<?xml version="1.0" encoding="utf-8"?>
<!-- Generator: Adobe Illustrator 26.0.3, SVG Export Plug-In . SVG Version: 6.00 Build 0)  -->
<svg version="1.1" id="Layer_1" xmlns="http://www.w3.org/2000/svg" xmlns:xlink="http://www.w3.org/1999/xlink" x="0px" y="0px"
	 viewBox="0 0 249.1 150.6" style="enable-background:new 0 0 249.1 150.6;" xml:space="preserve">
<style type="text/css">
	.st0{clip-path:url(#SVGID_00000082365538079225928890000013774183876260668087_);fill:#010101;}
	.st1{clip-path:url(#SVGID_00000082365538079225928890000013774183876260668087_);fill:#353535;}
	.st2{clip-path:url(#SVGID_00000082365538079225928890000013774183876260668087_);fill:#FDB719;}
	.st3{clip-path:url(#SVGID_00000082365538079225928890000013774183876260668087_);fill:#FFFFFF;}
</style>
<g>
	<defs>
		<rect id="SVGID_1_" width="249.1" height="150.6"/>
	</defs>
	<clipPath id="SVGID_00000067215145205956056370000000770368742841869239_">
		<use xlink:href="#SVGID_1_"  style="overflow:visible;"/>
	</clipPath>
	<path style="clip-path:url(#SVGID_00000067215145205956056370000000770368742841869239_);fill:#010101;" d="M222.3,99.7
		c0,0,0,0.1,0,0.1C222.3,99.8,222.2,99.7,222.3,99.7z"/>
	<path style="clip-path:url(#SVGID_00000067215145205956056370000000770368742841869239_);fill:#010101;" d="M221.2,100.9L221,101
		L221.2,100.9z"/>
	<path style="clip-path:url(#SVGID_00000067215145205956056370000000770368742841869239_);fill:#010101;" d="M221.5,100.7l-0.1,0.1
		L221.5,100.7z"/>
	<path style="clip-path:url(#SVGID_00000067215145205956056370000000770368742841869239_);fill:#010101;" d="M221.8,100.4
		L221.8,100.4L221.8,100.4z"/>
	<path style="clip-path:url(#SVGID_00000067215145205956056370000000770368742841869239_);fill:#010101;" d="M221.4,100.8
		c-0.1,0-0.1,0.1-0.2,0.1C221.3,100.9,221.3,100.8,221.4,100.8z"/>
	<path style="clip-path:url(#SVGID_00000067215145205956056370000000770368742841869239_);fill:#010101;" d="M28,101
		c0.1,0,0.2,0.1,0.3,0.1L28,101z"/>
	<path style="clip-path:url(#SVGID_00000067215145205956056370000000770368742841869239_);fill:#010101;" d="M222,100.2
		c-0.1,0.1-0.1,0.2-0.2,0.3C221.9,100.4,222,100.3,222,100.2z"/>
	<path style="clip-path:url(#SVGID_00000067215145205956056370000000770368742841869239_);fill:#010101;" d="M221.7,100.5l-0.2,0.2
		L221.7,100.5z"/>
	<path style="clip-path:url(#SVGID_00000067215145205956056370000000770368742841869239_);fill:#010101;" d="M220.8,101.1l0.3-0.1
		L220.8,101.1z"/>
	<path style="clip-path:url(#SVGID_00000067215145205956056370000000770368742841869239_);fill:#010101;" d="M27.1,100.2
		c0,0.1,0.1,0.1,0.1,0.2C27.2,100.3,27.1,100.2,27.1,100.2z"/>
	<path style="clip-path:url(#SVGID_00000067215145205956056370000000770368742841869239_);fill:#010101;" d="M27.7,100.8l0.2,0.1
		L27.7,100.8z"/>
	<path style="clip-path:url(#SVGID_00000067215145205956056370000000770368742841869239_);fill:#010101;" d="M26.9,99.8L27,100
		L26.9,99.8z"/>
	<path style="clip-path:url(#SVGID_00000067215145205956056370000000770368742841869239_);fill:#010101;" d="M222.2,99.8
		c0,0.1-0.1,0.2-0.2,0.4C222.1,100,222.2,99.9,222.2,99.8z"/>
	<path style="clip-path:url(#SVGID_00000067215145205956056370000000770368742841869239_);fill:#010101;" d="M27.5,100.6l-0.2-0.1
		L27.5,100.6z"/>
	<path style="clip-path:url(#SVGID_00000067215145205956056370000000770368742841869239_);fill:#010101;" d="M26.8,99.6l0.1,0.2
		L26.8,99.6z"/>
	<path style="clip-path:url(#SVGID_00000067215145205956056370000000770368742841869239_);fill:#010101;" d="M27,100
		c0,0.1,0.1,0.1,0.1,0.2C27,100.1,27,100,27,100z"/>
	<path style="clip-path:url(#SVGID_00000067215145205956056370000000770368742841869239_);fill:#010101;" d="M27.3,100.5l-0.2-0.2
		L27.3,100.5z"/>
	<path style="clip-path:url(#SVGID_00000067215145205956056370000000770368742841869239_);fill:#010101;" d="M28.4,101.1l-0.2-0.1
		L28.4,101.1L28.4,101.1z"/>
	<path style="clip-path:url(#SVGID_00000067215145205956056370000000770368742841869239_);fill:#010101;" d="M27.5,100.6l0.2,0.1
		L27.5,100.6z"/>
	<path style="clip-path:url(#SVGID_00000067215145205956056370000000770368742841869239_);fill:#010101;" d="M27.8,100.9L28,101
		L27.8,100.9z"/>
	<path style="clip-path:url(#SVGID_00000067215145205956056370000000770368742841869239_);fill:#353535;" d="M188.3,99.8h-0.2
		c-2.1,0-4.2,0.5-6.1,1.6c-1.9,1-3.4,2.6-4.4,4.4c-1.1,1.8-1.6,3.9-1.6,6c0,2.1,0.6,4.2,1.7,6c0.9,1.4,1.2,3.1,1,4.8
		c-0.2,1.7-1,3.2-2.2,4.4c-1.2,1.2-2.8,2-4.4,2.2c-1.7,0.2-3.4-0.1-4.8-1c-1.8-1.1-3.9-1.7-6-1.7c-2.1,0-4.2,0.5-6.1,1.6
		c-1.8,1.1-3.4,2.6-4.4,4.4c-1,1.8-1.6,3.9-1.6,6c0,1.7-0.5,3.3-1.5,4.7c-1,1.3-2.5,2.3-4.1,2.7c-1.6,0.4-3.4,0.3-4.9-0.3
		c-1.6-0.7-2.9-1.8-3.7-3.3c-1-1.8-2.6-3.4-4.4-4.5c-1.8-1.1-3.9-1.6-6.1-1.6c-2.1,0-4.2,0.6-6.1,1.6c-1.8,1.1-3.3,2.6-4.4,4.5
		c-0.8,1.5-2.1,2.6-3.7,3.3c-1.6,0.7-3.3,0.8-4.9,0.3s-3.1-1.4-4.1-2.7c-1-1.3-1.6-3-1.5-4.7c0-2.1-0.5-4.2-1.6-6
		c-1.1-1.8-2.6-3.4-4.4-4.4c-1.8-1.1-3.9-1.6-6.1-1.6c-2.1,0-4.2,0.6-6,1.7c-1.5,0.9-3.2,1.2-4.8,1c-1.7-0.2-3.2-1-4.4-2.2
		c-1.2-1.2-2-2.7-2.2-4.4c-0.2-1.7,0.1-3.4,1-4.8c1.1-1.8,1.7-3.9,1.7-6s-0.5-4.2-1.6-6c-1.1-1.8-2.6-3.3-4.5-4.4
		c-1.9-1-4-1.6-6.1-1.5h-0.2c-1.1,0-2.2-0.2-3.2-0.7c-1-0.5-1.9-1.2-2.6-2l-4.7,0.6c1,1.9,2.5,3.6,4.4,4.7c1.9,1.1,4,1.7,6.2,1.7H61
		c1.3,0,2.6,0.3,3.7,0.9c1.1,0.6,2.1,1.5,2.8,2.6c0.1,0.1,0.2,0.2,0.2,0.4c0.7,1.2,1,2.5,1,3.8c0,1.3-0.4,2.7-1.1,3.8
		c-1.3,2.3-1.9,4.9-1.6,7.5c0.3,2.6,1.5,5,3.4,6.9c1.9,1.9,4.3,3.1,6.9,3.4c2.6,0.3,5.3-0.2,7.6-1.5c1.2-0.7,2.5-1.1,3.8-1.1
		c1.4,0,2.7,0.3,3.9,1c1.2,0.7,2.1,1.6,2.8,2.8c0.7,1.2,1,2.5,1,3.8c-0.1,2.7,0.8,5.3,2.4,7.4c1.6,2.1,3.9,3.6,6.5,4.3
		c1,0.3,2.1,0.4,3.2,0.4c2.1,0,4.2-0.6,6-1.6c1.8-1.1,3.3-2.6,4.3-4.5c0.7-1.2,1.6-2.2,2.8-2.8c1.2-0.7,2.5-1,3.9-1
		c1.4,0,2.7,0.4,3.9,1c1.2,0.7,2.1,1.7,2.8,2.8c1.3,2.3,3.3,4.1,5.8,5.1c2.4,1,5.2,1.2,7.7,0.5c2.6-0.7,4.8-2.2,6.4-4.3
		c1.6-2.1,2.5-4.7,2.4-7.3c0-1.3,0.3-2.7,1-3.8c0.7-1.2,1.6-2.1,2.8-2.8c1.2-0.7,2.5-1,3.9-1s2.7,0.4,3.8,1.1c2.3,1.3,5,1.9,7.6,1.6
		c2.6-0.3,5.1-1.5,7-3.4c1.9-1.9,3.1-4.3,3.4-6.9c0.3-2.6-0.2-5.3-1.6-7.5c-0.7-1.2-1.1-2.5-1.1-3.8c0-1.3,0.3-2.7,1-3.8
		c0.1-0.1,0.2-0.3,0.2-0.4c0.7-1.1,1.6-1.9,2.7-2.5c1.1-0.6,2.3-0.9,3.6-0.9h0.3c2.2,0,4.3-0.6,6.2-1.7c1.9-1.1,3.4-2.7,4.4-4.7
		l-4.7-0.6c-0.7,0.9-1.6,1.6-2.6,2C190.6,99.6,189.5,99.8,188.3,99.8z"/>
	<path style="clip-path:url(#SVGID_00000067215145205956056370000000770368742841869239_);fill:#353535;" d="M53.4,56.3
		c0.4-1.6,1.3-3.1,2.7-4.1c1.3-1,3-1.6,4.6-1.5h0.1c2.1,0,4.2-0.5,6.1-1.6c1.8-1,3.4-2.6,4.4-4.4c1.1-1.8,1.6-3.9,1.6-6
		c0-2.1-0.6-4.2-1.7-6c-0.9-1.4-1.2-3.1-1-4.8c0.2-1.7,1-3.2,2.2-4.4c1.2-1.2,2.8-2,4.4-2.2c1.7-0.2,3.4,0.1,4.8,1
		c1.8,1.1,3.9,1.7,6,1.7c2.1,0,4.2-0.5,6.1-1.6c1.8-1.1,3.4-2.6,4.4-4.4c1.1-1.8,1.6-3.9,1.6-6c-0.1-1.7,0.5-3.4,1.5-4.8
		c1-1.4,2.5-2.4,4.2-2.8c1.7-0.4,3.4-0.3,5,0.4c1.6,0.7,2.9,1.9,3.7,3.4c1,1.8,2.6,3.4,4.4,4.5c1.8,1.1,3.9,1.6,6.1,1.6
		c2.1,0,4.2-0.6,6.1-1.6c1.8-1.1,3.3-2.6,4.4-4.5c0.8-1.5,2.1-2.6,3.7-3.3c1.6-0.7,3.3-0.8,4.9-0.3c1.6,0.4,3.1,1.4,4.1,2.7
		c1,1.3,1.6,3,1.5,4.7c0,2.1,0.5,4.2,1.6,6c1,1.8,2.6,3.4,4.4,4.4c1.8,1.1,3.9,1.6,6.1,1.6c2.1,0,4.2-0.6,6-1.7
		c1.5-0.9,3.2-1.2,4.8-1c1.7,0.2,3.2,1,4.4,2.2c1.2,1.2,2,2.7,2.2,4.4c0.2,1.7-0.2,3.4-1,4.8c-1.1,1.8-1.7,3.9-1.7,6
		c0,2.1,0.5,4.2,1.6,6c1.1,1.8,2.6,3.3,4.4,4.4c1.8,1,3.9,1.6,6.1,1.6h0.2c1.7,0,3.3,0.5,4.6,1.5c1.3,1,2.3,2.5,2.7,4.1
		c0.2,0.6,0.2,1.2,0.3,1.8c1.4,0.2,2.9,0.4,4.3,0.6c0-1.6-0.2-3.2-0.8-4.7c-0.6-1.5-1.5-2.9-2.6-4c-1.1-1.1-2.5-2-4-2.6
		c-1.5-0.6-3.1-0.9-4.7-0.9c-1.4,0-2.7-0.3-3.9-1c-1.2-0.7-2.2-1.6-2.8-2.8c-0.7-1.2-1-2.5-1-3.8c0-1.3,0.4-2.7,1.1-3.8
		c1.4-2.3,1.9-4.9,1.6-7.5c-0.3-2.6-1.5-5.1-3.4-6.9c-1.9-1.9-4.3-3.1-7-3.4c-2.6-0.3-5.3,0.2-7.6,1.6c-1.2,0.7-2.5,1.1-3.8,1.1
		s-2.7-0.3-3.9-1c-1.2-0.7-2.1-1.6-2.8-2.8s-1-2.5-1-3.8c0-2.6-0.8-5.2-2.4-7.3c-1.6-2.1-3.9-3.6-6.4-4.3c-2.6-0.7-5.3-0.5-7.7,0.5
		c-2.4,1-4.5,2.8-5.8,5.1c-0.6,1.2-1.6,2.2-2.8,2.9s-2.5,1-3.9,1c-1.4,0-2.7-0.3-3.9-1c-1.2-0.7-2.1-1.7-2.8-2.9
		c-1.3-2.3-3.3-4.1-5.8-5.1c-2.4-1-5.2-1.2-7.7-0.5c-2.6,0.7-4.8,2.2-6.4,4.3c-1.6,2.1-2.5,4.7-2.4,7.3c0,1.3-0.3,2.7-1,3.8
		c-0.7,1.2-1.6,2.1-2.8,2.8c-1.2,0.7-2.5,1-3.9,1c-1.4,0-2.7-0.4-3.8-1.1c-2.3-1.3-4.9-1.9-7.5-1.5c-2.6,0.3-5,1.5-6.9,3.4
		c-1.9,1.9-3.1,4.3-3.4,6.9c-0.3,2.6,0.2,5.2,1.5,7.5c0.7,1.2,1.1,2.5,1.1,3.8c0,1.4-0.3,2.7-1,3.9c-0.7,1.2-1.7,2.1-2.9,2.8
		c-1.2,0.7-2.5,1-3.9,1c-2.7-0.1-5.3,0.8-7.4,2.4c-2.1,1.6-3.7,3.9-4.3,6.4c-0.3,1.1-0.4,2.3-0.4,3.4c1.5-0.2,2.9-0.4,4.3-0.6
		C53.2,57.5,53.3,56.9,53.4,56.3z"/>
	<path style="clip-path:url(#SVGID_00000067215145205956056370000000770368742841869239_);fill:#FDB719;" d="M122.4,72.7
		c-0.4-0.6-1-1.2-1.6-1.5c-0.6-0.3-1.1-0.5-1.8-0.6c-0.4-0.1-0.7-0.1-1.1-0.1v-0.2c0.3,0,0.7-0.1,1-0.2c0.6-0.2,1.1-0.5,1.6-0.8
		c0.6-0.5,1.1-1,1.5-1.7c0.4-0.9,0.6-1.9,0.6-2.9c0-1.4-0.4-2.7-1.1-3.9c-0.8-1.1-2-1.9-3.3-2.4c-3.3-1.1-6.9-1.1-10.3,0
		c-1.4,0.5-2.7,1.3-3.8,2.4c-1,1.1-1.6,2.5-1.7,4l7.6,2.3c-0.1-0.4,0-0.9,0.1-1.3c0.1-0.4,0.3-0.8,0.6-1.2c0.4-0.4,1-0.6,1.6-0.6
		c0.3,0,0.5,0,0.7,0.1c0.2,0.1,0.4,0.2,0.6,0.4c0.3,0.4,0.5,0.9,0.5,1.5c0,0.3,0,0.6-0.1,0.9c-0.1,0.3-0.2,0.5-0.4,0.8
		c-0.5,0.4-1.1,0.6-1.7,0.5h-0.8l-0.6-0.1v5l0.9-0.1c0.3,0,0.6,0,0.9,0c0.4,0,0.7,0,1.1,0.2c0.3,0.1,0.6,0.3,0.8,0.6
		c0.2,0.3,0.3,0.7,0.3,1.1c0,0.4-0.1,0.8-0.3,1.1c-0.2,0.3-0.5,0.5-0.8,0.7c-0.3,0.1-0.7,0.2-1.1,0.2c-0.4,0-0.8-0.1-1.2-0.2
		c-0.4-0.2-0.8-0.5-0.9-0.9c-0.3-0.6-0.4-1.3-0.3-2l-8,3.2c0.6,2,2,3.7,3.8,4.8c2.2,1.1,4.7,1.7,7.2,1.6c1.7,0,3.4-0.3,5-0.9
		c1.4-0.5,2.7-1.5,3.6-2.7c0.9-1.2,1.4-2.6,1.3-4.1C123.2,74.6,122.9,73.6,122.4,72.7z"/>
	<path style="clip-path:url(#SVGID_00000067215145205956056370000000770368742841869239_);fill:#FDB719;" d="M127.5,60.8
		c-1.8,2.2-2.7,5.3-2.7,9.6c0,4.3,0.9,7.5,2.7,9.6c1.8,2.1,4.6,3.2,8.4,3.2c3.8,0,6.6-1.1,8.4-3.2c1.8-2.2,2.7-5.3,2.7-9.6
		c0-4.3-0.9-7.5-2.7-9.6c-1.8-2.1-4.6-3.2-8.4-3.2C132.1,57.5,129.3,58.6,127.5,60.8z M133.7,66.6c0-0.7,0.3-1.4,0.8-1.9
		c0.4-0.4,1-0.5,1.5-0.5c0.3,0,0.5,0,0.8,0.1c0.3,0.1,0.5,0.2,0.7,0.4c0.4,0.5,0.7,1.2,0.7,1.9c0.2,1.3,0.2,2.5,0.2,3.8
		c0,1.3,0,2.5-0.2,3.8c0,0.7-0.3,1.3-0.7,1.9c-0.2,0.2-0.4,0.3-0.7,0.4c-0.3,0.1-0.5,0.1-0.8,0.1c-0.3,0-0.5,0-0.8-0.1
		c-0.3-0.1-0.5-0.2-0.7-0.4c-0.4-0.5-0.7-1.2-0.8-1.9c-0.2-1.3-0.2-2.5-0.2-3.8C133.4,69.1,133.5,67.8,133.7,66.6z"/>
	<path style="clip-path:url(#SVGID_00000067215145205956056370000000770368742841869239_);fill:#FDB719;" d="M116.6,91.1
		c0.1-1.4-0.4-2.8-1.3-3.9c-0.5-0.5-1.1-0.8-1.7-1.1c-0.6-0.2-1.3-0.3-2-0.3h-5.1v10.4h5.1c0.7,0,1.4,0,2-0.3
		c0.6-0.2,1.2-0.6,1.7-1.1C116.3,93.9,116.7,92.5,116.6,91.1z M112.5,93.1c-0.1,0.2-0.4,0.4-0.6,0.5c-0.2,0.1-0.5,0.2-0.8,0.1h-0.9
		v-5.2h0.9c0.3,0,0.5,0,0.8,0.1c0.2,0.1,0.4,0.3,0.6,0.5C112.9,90.4,112.9,91.8,112.5,93.1z"/>
	<path style="clip-path:url(#SVGID_00000067215145205956056370000000770368742841869239_);fill:#FDB719;" d="M121.9,85.9h-3.7v10.4
		h3.7V85.9z"/>
	<path style="clip-path:url(#SVGID_00000067215145205956056370000000770368742841869239_);fill:#FDB719;" d="M130.3,96.3h3.8
		l-3.4-10.4h-4.4l-3.4,10.4h3.7l0.5-2h2.8L130.3,96.3z M127.6,92l0.4-1.7l0.4-1.7l0.4,1.8l0.4,1.7L127.6,92z"/>
	<path style="clip-path:url(#SVGID_00000067215145205956056370000000770368742841869239_);fill:#FDB719;" d="M139.6,96.5
		c0.8,0,1.6-0.1,2.4-0.4c0.7-0.2,1.2-0.7,1.7-1.2c0.4-0.6,0.7-1.3,0.6-2.1c0-0.4,0-0.8-0.2-1.1c-0.1-0.3-0.4-0.7-0.6-0.9
		c-0.7-0.5-1.5-0.9-2.4-1.1l-1.4-0.3c-0.3-0.1-0.5-0.1-0.7-0.2c-0.2,0-0.3-0.2-0.3-0.3c0-0.1,0-0.2,0.1-0.2c0.1-0.1,0.2-0.1,0.3-0.2
		c0.2,0,0.4-0.1,0.7-0.1c0.6,0,1.2,0.1,1.8,0.3c0.6,0.2,1.1,0.5,1.6,0.8l1.5-2.4c-0.6-0.5-1.4-0.9-2.2-1.1c-0.9-0.3-1.8-0.4-2.7-0.4
		c-0.9,0-1.8,0.1-2.7,0.5c-0.7,0.2-1.3,0.7-1.7,1.3c-0.4,0.5-0.6,1.2-0.6,1.9c0,0.6,0.1,1.2,0.5,1.6c0.3,0.4,0.8,0.7,1.2,0.9
		c0.5,0.2,1.1,0.4,1.6,0.5l1.6,0.3c0.2,0,0.5,0.1,0.7,0.2c0.1,0,0.1,0.1,0.1,0.1c0,0.1,0,0.1,0,0.2c0,0.1,0,0.2-0.1,0.2
		c-0.1,0.1-0.2,0.1-0.3,0.2c-0.2,0-0.4,0-0.6,0c-0.4,0-0.9-0.1-1.3-0.2c-0.5-0.1-0.9-0.3-1.3-0.5c-0.4-0.2-0.8-0.4-1.1-0.6l-1.5,2.4
		c0.4,0.4,0.9,0.6,1.5,0.9c0.6,0.2,1.2,0.4,1.9,0.5C138.2,96.4,138.9,96.5,139.6,96.5z"/>
	<path style="clip-path:url(#SVGID_00000067215145205956056370000000770368742841869239_);fill:#FFFFFF;" d="M78.8,79.6l2.9-0.2
		l-0.1-2.1l-6.3,0.4l0.1,1.7c0.1,0.1,0.3,0.2,0.3,0.3c0.1,0.1,0.2,0.3,0.3,0.4c0.1,0.2,0.2,0.4,0.3,0.5c0.1,0.2,0.1,0.4,0.2,0.6
		l1.7-0.2c-0.1-0.3-0.2-0.5-0.3-0.7c-0.1-0.2-0.3-0.4-0.5-0.6h0.6L78.8,79.6z"/>
	<path style="clip-path:url(#SVGID_00000067215145205956056370000000770368742841869239_);fill:#FFFFFF;" d="M81.2,71.3
		c-0.7-0.5-1.5-0.8-2.4-0.8c-0.9-0.1-1.7,0.1-2.5,0.5c-0.3,0.2-0.5,0.6-0.7,0.9c-0.2,0.4-0.2,0.7-0.2,1.1c-0.1,0.4,0,0.8,0.1,1.2
		c0.1,0.4,0.3,0.7,0.6,1c0.7,0.5,1.5,0.8,2.4,0.8c0.9,0.1,1.7-0.1,2.5-0.5c0.6-0.5,0.9-1.3,1-2C81.9,72.7,81.7,72,81.2,71.3z
		 M80,73.7c-0.1,0.1-0.3,0.1-0.5,0.2c-0.3,0-0.6,0-1,0c-0.3,0-0.6-0.1-1-0.1c-0.2,0-0.3-0.1-0.5-0.2c-0.1-0.1-0.1-0.3-0.1-0.4
		c0-0.1,0-0.1,0-0.2c0-0.1,0.1-0.1,0.1-0.2c0.1-0.1,0.3-0.1,0.5-0.2c0.3,0,0.6,0,1,0c0.3,0,0.6,0.1,1,0.1c0.2,0,0.3,0.1,0.5,0.2
		c0,0.1,0.1,0.1,0.1,0.2c0,0.1,0,0.1,0,0.2c0,0.1,0,0.1,0,0.2C80.1,73.6,80.1,73.7,80,73.7L80,73.7z"/>
	<path style="clip-path:url(#SVGID_00000067215145205956056370000000770368742841869239_);fill:#FFFFFF;" d="M82.7,67.2
		c0.1-0.4,0.1-0.8,0.1-1.1c-0.1-0.4-0.2-0.7-0.4-1.1c-0.6-0.6-1.3-1.1-2.2-1.2c-0.8-0.2-1.7-0.2-2.5,0.2c-0.3,0.2-0.6,0.5-0.8,0.8
		c-0.2,0.3-0.4,0.7-0.4,1.1c-0.1,0.4-0.1,0.7-0.1,1.1c0.1,0.4,0.2,0.7,0.4,1c0.6,0.6,1.4,1,2.2,1.2c0.8,0.2,1.7,0.1,2.5-0.1
		c0.3-0.2,0.6-0.5,0.8-0.8C82.6,67.9,82.7,67.6,82.7,67.2z M81.1,66.8c0,0.1,0,0.1-0.1,0.2c0,0.1-0.1,0.1-0.1,0.1
		c-0.2,0.1-0.3,0.1-0.5,0.1c-0.3,0-0.6-0.1-0.9-0.2c-0.3-0.1-0.6-0.2-0.9-0.3c-0.2-0.1-0.3-0.2-0.4-0.3c-0.1-0.1-0.1-0.3,0-0.4
		c0-0.1,0.1-0.3,0.2-0.3c0.2-0.1,0.3-0.1,0.5-0.1c0.3,0,0.6,0.1,0.9,0.2c0.3,0.1,0.6,0.2,0.9,0.3c0.2,0.1,0.3,0.1,0.4,0.3
		c0,0.1,0,0.1,0,0.2C81.1,66.7,81.1,66.8,81.1,66.8z"/>
	<path style="clip-path:url(#SVGID_00000067215145205956056370000000770368742841869239_);fill:#FFFFFF;" d="M84.5,61l-4-6.7
		l-0.6,1.4l4,6.7L84.5,61z"/>
	<path style="clip-path:url(#SVGID_00000067215145205956056370000000770368742841869239_);fill:#FFFFFF;" d="M85.6,58.2
		c0.3-0.2,0.5-0.5,0.6-0.8c0.2-0.3,0.2-0.7,0.2-1.1c0-0.3-0.1-0.6-0.3-0.9c-0.2-0.3-0.5-0.5-0.8-0.6c-0.3-0.1-0.6-0.2-1-0.2
		c-0.3,0-0.6,0.2-0.9,0.4c-0.3,0.2-0.5,0.5-0.6,0.9c-0.1,0.3-0.2,0.7-0.2,1c0,0.3,0.1,0.6,0.3,0.9c0.2,0.3,0.5,0.5,0.8,0.6
		c0.3,0.1,0.6,0.2,1,0.2C85,58.5,85.3,58.4,85.6,58.2z M84.3,57c-0.1,0-0.1-0.1-0.2-0.1c0,0-0.1-0.1-0.1-0.2c0-0.1,0-0.1,0-0.2
		c0-0.1,0.1-0.1,0.1-0.2c0.1,0,0.1-0.1,0.2-0.1c0.1,0,0.2,0,0.2,0c0.1,0,0.1,0.1,0.2,0.1c0,0,0.1,0.1,0.1,0.2c0,0.1,0,0.1,0,0.2
		c0,0.1-0.1,0.1-0.1,0.2c0,0-0.1,0.1-0.2,0.1C84.5,57,84.4,57,84.3,57z"/>
	<path style="clip-path:url(#SVGID_00000067215145205956056370000000770368742841869239_);fill:#FFFFFF;" d="M79.1,62
		c0.3,0.1,0.6,0.2,1,0.2c0.3,0,0.6-0.2,0.8-0.4c0.3-0.2,0.5-0.5,0.6-0.8c0.1-0.3,0.2-0.7,0.2-1c0-0.3-0.1-0.6-0.3-0.9
		c-0.2-0.3-0.5-0.5-0.8-0.6c-0.3-0.1-0.6-0.2-1-0.2c-0.3,0-0.6,0.2-0.9,0.4c-0.3,0.2-0.5,0.5-0.6,0.8C78,59.8,78,60.2,78,60.6
		c0,0.3,0.1,0.6,0.3,0.9C78.5,61.7,78.8,61.9,79.1,62z M79.5,60c0-0.1,0.1-0.1,0.1-0.2c0.1,0,0.1-0.1,0.2-0.1c0.1,0,0.2,0,0.2,0
		c0.1,0,0.1,0.1,0.2,0.1c0,0,0.1,0.1,0.1,0.2c0,0.1,0,0.1,0,0.2c0,0.1-0.1,0.1-0.1,0.2c-0.1,0-0.1,0.1-0.2,0.1
		c-0.2,0-0.3-0.1-0.4-0.2c0,0-0.1-0.1-0.1-0.2C79.5,60.2,79.5,60.1,79.5,60z"/>
	<path style="clip-path:url(#SVGID_00000067215145205956056370000000770368742841869239_);fill:#FFFFFF;" d="M90.7,50.2
		c0.3-0.3,0.5-0.7,0.6-1.1c0.1-0.4,0.1-0.8,0.1-1.2c-0.2-0.8-0.7-1.5-1.4-2c-0.7-0.5-1.5-0.8-2.3-0.8c-0.4,0.1-0.8,0.2-1.1,0.4
		c-0.3,0.2-0.6,0.5-0.9,0.8l-1.9,2.4l5,3.8L90.7,50.2z M86.7,47.6c0.1-0.1,0.2-0.3,0.3-0.3c0.1-0.1,0.3-0.1,0.5-0.1
		c0.4,0.1,0.8,0.3,1.1,0.6c0.3,0.2,0.6,0.5,0.8,0.9c0.1,0.2,0.1,0.3,0,0.5c0,0.2-0.1,0.3-0.2,0.4l-0.3,0.4l-2.5-1.9L86.7,47.6z"/>
	<path style="clip-path:url(#SVGID_00000067215145205956056370000000770368742841869239_);fill:#FFFFFF;" d="M93.8,46.1
		c0.6-0.2,1.1-0.5,1.5-0.9c0.4-0.4,0.8-0.9,1-1.4c0.2-0.5,0.2-1,0-1.5c-0.2-0.6-0.5-1.1-0.9-1.5c-0.4-0.5-0.9-0.8-1.5-1
		c-0.5-0.2-1-0.2-1.5-0.1c-0.6,0.2-1.1,0.5-1.5,0.9c-0.4,0.4-0.8,0.9-1,1.4c-0.2,0.5-0.2,1,0,1.6c0.2,0.6,0.5,1.1,0.9,1.5
		c0.4,0.5,0.9,0.8,1.5,1C92.8,46.3,93.3,46.3,93.8,46.1z M91.8,42.3c0-0.2,0.1-0.4,0.3-0.5c0.1-0.1,0.3-0.2,0.5-0.2
		c0.2,0,0.4,0.1,0.6,0.2c0.3,0.2,0.5,0.4,0.7,0.6c0.2,0.2,0.4,0.5,0.5,0.7c0.1,0.2,0.1,0.4,0.1,0.6c0,0.2-0.1,0.4-0.3,0.5
		c-0.1,0.1-0.3,0.2-0.5,0.2c-0.2,0-0.4-0.1-0.6-0.2c-0.5-0.3-0.9-0.8-1.2-1.3C91.8,42.7,91.8,42.5,91.8,42.3z"/>
	<path style="clip-path:url(#SVGID_00000067215145205956056370000000770368742841869239_);fill:#FFFFFF;" d="M102.4,33.6
		c-0.4-0.1-0.8-0.1-1.2,0c-0.4,0.1-0.8,0.2-1.1,0.5l-2.7,1.5l3.2,5.4l2.7-1.5c0.4-0.2,0.7-0.4,1-0.8c0.3-0.3,0.5-0.7,0.6-1.1
		c0.1-0.8-0.1-1.7-0.5-2.4C103.8,34.5,103.2,33.9,102.4,33.6z M102.1,38.2l-0.5,0.3l-1.6-2.7l0.5-0.3c0.1-0.1,0.3-0.2,0.4-0.2
		c0.2,0,0.3,0,0.5,0.1c0.3,0.2,0.6,0.6,0.8,0.9c0.2,0.3,0.4,0.7,0.4,1.1c0,0.2-0.1,0.3-0.1,0.5S102.3,38.1,102.1,38.2z"/>
	<path style="clip-path:url(#SVGID_00000067215145205956056370000000770368742841869239_);fill:#FFFFFF;" d="M106.2,31l-2,0.9
		l2.5,5.7l2-0.9L106.2,31z"/>
	<path style="clip-path:url(#SVGID_00000067215145205956056370000000770368742841869239_);fill:#FFFFFF;" d="M112.6,31.9l-2.2-2.3
		l-2.3,0.7l1.7,6l1.8-0.5l-0.6-2.2l-0.4-1.2l0,0l0.5,0.6l2.2,2.3l2.3-0.6l-1.7-6l-1.8,0.5l0.6,2.2l0.4,1.2l0,0L112.6,31.9z"/>
	<path style="clip-path:url(#SVGID_00000067215145205956056370000000770368742841869239_);fill:#FFFFFF;" d="M118.2,27.9l-2.2,0.2
		l0.7,6.2l2.2-0.2l-0.3-2.3l1.7-0.2l0.3,2.3l2.2-0.2l-0.7-6.2l-2.2,0.2l0.3,2.3l-1.7,0.2L118.2,27.9z"/>
	<path style="clip-path:url(#SVGID_00000067215145205956056370000000770368742841869239_);fill:#FFFFFF;" d="M124,33.7l5.3,0.2
		l0.1-1.6l-3.1-0.1l0-0.7l2.4,0.1l0.1-1.5l-2.4-0.1l0-0.8l3,0.1l0.1-1.6l-5.2-0.2L124,33.7z"/>
	<path style="clip-path:url(#SVGID_00000067215145205956056370000000770368742841869239_);fill:#FFFFFF;" d="M131.1,27.9l-1,6.2
		l2.2,0.3l1-6.2L131.1,27.9z"/>
	<path style="clip-path:url(#SVGID_00000067215145205956056370000000770368742841869239_);fill:#FFFFFF;" d="M140.4,32.1
		c0.1-0.3,0.1-0.5,0.1-0.8c0-0.3-0.1-0.5-0.3-0.8c-0.4-0.5-1-0.9-1.7-1.1l-3.3-0.9l-1.7,6.1l2.1,0.6l0.6-2l0.6,0.2l0.5,2.3l2.3,0.6
		l-0.8-2.8c0.2,0,0.4-0.1,0.6-0.1c0.3-0.1,0.5-0.3,0.7-0.5C140.2,32.6,140.3,32.4,140.4,32.1z M136.8,30.7l0.8,0.2
		c0.2,0,0.4,0.1,0.5,0.3c0,0.1,0.1,0.2,0.1,0.2c0,0.1,0,0.2-0.1,0.2c0,0.1,0,0.2-0.1,0.2c-0.1,0.1-0.1,0.1-0.2,0.1
		c-0.2,0.1-0.4,0.1-0.5,0l-0.8-0.2L136.8,30.7z"/>
	<path style="clip-path:url(#SVGID_00000067215145205956056370000000770368742841869239_);fill:#FFFFFF;" d="M144.4,38.2
		c0.5,0,1-0.2,1.5-0.5c0.5-0.4,0.8-0.9,1.1-1.4c0.3-0.5,0.4-1.1,0.4-1.7c0-0.5-0.2-1-0.5-1.5c-0.4-0.5-0.9-0.8-1.4-1.1
		c-0.5-0.2-1.1-0.4-1.7-0.4c-0.5,0-1,0.2-1.5,0.5c-0.5,0.4-0.8,0.9-1.1,1.4c-0.3,0.5-0.4,1.1-0.4,1.7c0,0.5,0.2,1,0.5,1.5
		c0.4,0.5,0.8,0.8,1.4,1.1C143.2,38.1,143.8,38.2,144.4,38.2z M142.9,35.4c0.1-0.3,0.2-0.6,0.3-0.8c0.1-0.3,0.3-0.5,0.5-0.8
		c0.1-0.2,0.3-0.3,0.5-0.3c0.2,0,0.4,0,0.6,0.1c0.2,0.1,0.3,0.2,0.4,0.4c0.1,0.2,0.1,0.4,0.1,0.6c-0.1,0.3-0.2,0.6-0.3,0.8
		c-0.1,0.3-0.3,0.5-0.5,0.8c-0.1,0.2-0.3,0.3-0.5,0.3c-0.2,0-0.4,0-0.5-0.1c-0.2-0.1-0.3-0.2-0.4-0.4
		C142.9,35.8,142.9,35.6,142.9,35.4z"/>
	<path style="clip-path:url(#SVGID_00000067215145205956056370000000770368742841869239_);fill:#FFFFFF;" d="M153.3,43.6
		c0.8-0.2,1.5-0.7,2-1.4c0.5-0.7,0.8-1.5,0.8-2.3c-0.1-0.4-0.2-0.8-0.4-1.1c-0.2-0.3-0.5-0.6-0.8-0.9l-2.4-1.9l-3.9,4.9l2.4,1.9
		c0.3,0.3,0.7,0.5,1.1,0.6C152.5,43.6,152.9,43.6,153.3,43.6z M153.3,38.6l0.4,0.3c0.1,0.1,0.3,0.2,0.3,0.3c0.1,0.1,0.1,0.3,0.1,0.5
		c-0.1,0.4-0.3,0.8-0.6,1.1c-0.2,0.3-0.5,0.6-0.9,0.8c-0.2,0.1-0.3,0.1-0.5,0c-0.2,0-0.3-0.1-0.4-0.2l-0.4-0.3L153.3,38.6z"/>
	<path style="clip-path:url(#SVGID_00000067215145205956056370000000770368742841869239_);fill:#FFFFFF;" d="M161,45.9l1.2-1.1
		l-3.6-3.8l-4.6,4.3l3.7,3.9l1.2-1.1l-2.1-2.2l0.5-0.5l1.7,1.8l1.1-1l-1.7-1.8l0.6-0.5L161,45.9z"/>
	<path style="clip-path:url(#SVGID_00000067215145205956056370000000770368742841869239_);fill:#FFFFFF;" d="M168.3,53.8l-1.2-1.9
		l-3.4,1l-1.2,0.4l0.9-0.9l2.5-2.5l-1.2-2l-4.3,5.1l1.4,2.2L168.3,53.8z"/>
	<path style="clip-path:url(#SVGID_00000067215145205956056370000000770368742841869239_);fill:#FFFFFF;" d="M165.2,61.6
		c0.4,0.3,0.9,0.5,1.4,0.6c0.6,0,1.2-0.1,1.8-0.3c0.6-0.2,1.1-0.6,1.5-1c0.3-0.4,0.6-0.9,0.6-1.4c0-0.6-0.1-1.2-0.3-1.7
		c-0.2-0.5-0.6-1-1-1.4c-0.4-0.3-0.9-0.5-1.4-0.6c-0.6,0-1.2,0.1-1.8,0.3c-0.6,0.2-1.1,0.6-1.5,1c-0.3,0.4-0.6,0.9-0.6,1.4
		c0,0.6,0.1,1.2,0.3,1.7C164.4,60.7,164.7,61.2,165.2,61.6z M165.7,59c0.1-0.2,0.2-0.4,0.4-0.5c0.2-0.2,0.5-0.3,0.8-0.4
		c0.3-0.1,0.6-0.2,0.9-0.2c0.2,0,0.4,0,0.6,0.1c0.2,0.1,0.3,0.2,0.4,0.4c0.1,0.2,0.1,0.4,0,0.6c-0.1,0.2-0.2,0.4-0.4,0.5
		c-0.2,0.2-0.5,0.3-0.8,0.4c-0.3,0.1-0.6,0.2-0.9,0.2c-0.2,0-0.4,0-0.6-0.1c-0.2-0.1-0.3-0.2-0.4-0.4
		C165.6,59.4,165.6,59.2,165.7,59L165.7,59z"/>
	<path style="clip-path:url(#SVGID_00000067215145205956056370000000770368742841869239_);fill:#FFFFFF;" d="M168.5,68.5l-0.7-2.7
		l4.5-1.1l-0.5-2.1l-6.1,1.5l1.2,4.9L168.5,68.5z"/>
	<path style="clip-path:url(#SVGID_00000067215145205956056370000000770368742841869239_);fill:#FFFFFF;" d="M171.9,71.8l0.2,1.9
		l1.6-0.2l-0.7-6.1l-1.6,0.2l0.2,1.9l-4.6,0.6l0.3,2.2L171.9,71.8z"/>
	<path style="clip-path:url(#SVGID_00000067215145205956056370000000770368742841869239_);fill:#FFFFFF;" d="M173.8,75.9l-6.2-2.2
		v2.2l1.2,0.3v1.7l-1.2,0.3v2.3l6.3-1.9L173.8,75.9z M172.1,77.2l-1.1,0.2l-1.1,0.2v-1.1l1,0.3L172.1,77.2L172.1,77.2z"/>
	<path style="clip-path:url(#SVGID_00000067215145205956056370000000770368742841869239_);fill:#FFFFFF;" d="M97.5,117.3l2.2-2.8
		l-2.3-1.7l-0.8,1.1l0.8,0.6c-0.1,0.1-0.1,0.1-0.2,0.2c-0.1,0-0.2,0-0.3,0c-0.1,0-0.2,0-0.3-0.1c-0.1,0-0.2-0.1-0.3-0.2
		c-0.2-0.1-0.3-0.3-0.4-0.5c-0.1-0.2-0.1-0.4,0-0.6c0.1-0.3,0.3-0.6,0.5-0.8c0.2-0.2,0.4-0.5,0.6-0.6c0.2-0.1,0.4-0.2,0.6-0.2
		c0.2,0,0.4,0.1,0.6,0.2c0.2,0.1,0.3,0.3,0.3,0.5c0,0.2,0,0.5-0.1,0.7l2.1,0.6c0.2-0.6,0.1-1.1-0.1-1.7c-0.3-0.6-0.7-1.1-1.2-1.4
		c-0.5-0.4-1-0.6-1.6-0.7c-0.5-0.1-1.1,0-1.6,0.2c-0.5,0.3-1,0.7-1.4,1.2c-0.4,0.5-0.6,1-0.8,1.6c-0.1,0.5,0,1,0.2,1.5
		c0.2,0.5,0.5,0.9,1,1.1c0.4,0.3,0.8,0.5,1.3,0.5c0.2,0,0.4,0,0.6-0.1l-0.4,0.6L97.5,117.3z"/>
	<path style="clip-path:url(#SVGID_00000067215145205956056370000000770368742841869239_);fill:#FFFFFF;" d="M105.2,121.4l1.1-6.5
		l-2.4-1.2l-4.7,4.6l2,1l0.8-0.9l1.5,0.8l-0.3,1.2L105.2,121.4z M102.9,117.4l0.7-0.8l0.7-0.8l-0.3,1.1l-0.3,1L102.9,117.4z"/>
	<path style="clip-path:url(#SVGID_00000067215145205956056370000000770368742841869239_);fill:#FFFFFF;" d="M114,119.8
		c0.1-0.3,0.1-0.5,0.1-0.8c0-0.3-0.1-0.5-0.3-0.8c-0.4-0.5-1-0.9-1.6-1.1l-3.3-1l-1.9,6l2.1,0.6l0.6-2l0.6,0.2l0.4,2.3l2.3,0.7
		l-0.8-2.8c0.2,0,0.4,0,0.6-0.1c0.3-0.1,0.5-0.3,0.7-0.5C113.8,120.4,114,120.1,114,119.8z M110.5,118.3l0.8,0.3
		c0.2,0,0.3,0.1,0.5,0.3c0,0.1,0.1,0.2,0.1,0.2c0,0.1,0,0.2-0.1,0.2c0,0.1-0.1,0.2-0.1,0.2c-0.1,0.1-0.1,0.1-0.2,0.2
		c-0.2,0.1-0.4,0.1-0.5,0l-0.8-0.3L110.5,118.3z"/>
	<path style="clip-path:url(#SVGID_00000067215145205956056370000000770368742841869239_);fill:#FFFFFF;" d="M117.1,123.4l1.7,0.2
		l0.1,1.2l2.2,0.3l-1.2-6.5l-2.6-0.4l-2.9,6l2.2,0.3L117.1,123.4z M118.4,120.1l0.1,1.1l0.1,1.1l-1-0.1l0.4-1L118.4,120.1z"/>
	<path style="clip-path:url(#SVGID_00000067215145205956056370000000770368742841869239_);fill:#FFFFFF;" d="M125.3,122.3l1.6,2.8
		l2.4-0.1l-0.2-6.2l-1.9,0.1l0.1,2.3l0.1,1.3h0l-0.4-0.7l-1.6-2.8L123,119l0.2,6.2l1.9-0.1l-0.1-2.3l-0.1-1.3h0L125.3,122.3z"/>
	<path style="clip-path:url(#SVGID_00000067215145205956056370000000770368742841869239_);fill:#FFFFFF;" d="M136.3,117.4l-6,1.3
		l0.3,1.6l1.9-0.4l1,4.5l2.2-0.5l-1-4.5l1.9-0.4L136.3,117.4z"/>
	<path style="clip-path:url(#SVGID_00000067215145205956056370000000770368742841869239_);fill:#FFFFFF;" d="M139.7,116.2l-2.1,0.7
		l2.1,5.9l2.1-0.7L139.7,116.2z"/>
	<path style="clip-path:url(#SVGID_00000067215145205956056370000000770368742841869239_);fill:#FFFFFF;" d="M146.8,119.9
		c0.4-0.2,0.7-0.4,1-0.7c0.3-0.3,0.5-0.7,0.6-1c0.1-0.8,0-1.7-0.4-2.4c-0.4-0.7-1-1.3-1.7-1.7c-0.4-0.1-0.8-0.2-1.2-0.1
		c-0.4,0-0.8,0.2-1.2,0.4l-2.8,1.4l2.8,5.6L146.8,119.9z M144.4,115.9c0.1-0.1,0.3-0.1,0.5-0.1s0.3,0,0.5,0.1c0.3,0.3,0.6,0.6,0.7,1
		c0.2,0.3,0.3,0.7,0.3,1.1c0,0.2-0.1,0.3-0.2,0.4c-0.1,0.1-0.2,0.2-0.4,0.3l-0.5,0.2l-1.4-2.8L144.4,115.9z"/>
	<path style="clip-path:url(#SVGID_00000067215145205956056370000000770368742841869239_);fill:#FFFFFF;" d="M149.4,114.9
		c0.4,0.5,0.8,0.9,1.4,1.2c0.5,0.2,1,0.3,1.5,0.2c0.6-0.1,1.1-0.4,1.6-0.7c0.5-0.4,0.9-0.8,1.1-1.3c0.2-0.5,0.3-1,0.2-1.5
		c-0.1-0.6-0.4-1.2-0.7-1.6c-0.4-0.5-0.8-0.9-1.3-1.2c-0.5-0.2-1-0.3-1.5-0.2c-0.6,0.1-1.1,0.4-1.6,0.7c-0.5,0.4-0.9,0.8-1.1,1.3
		c-0.2,0.5-0.3,1-0.2,1.5C148.8,113.9,149,114.4,149.4,114.9z M150.7,112.2c0.1-0.2,0.2-0.3,0.3-0.4c0.1-0.1,0.3-0.2,0.5-0.2
		c0.2,0,0.4,0.1,0.5,0.2c0.2,0.2,0.4,0.4,0.6,0.7c0.2,0.2,0.3,0.5,0.5,0.8c0.1,0.2,0.1,0.4,0.1,0.6c-0.1,0.2-0.2,0.3-0.3,0.5
		c-0.1,0.1-0.3,0.2-0.5,0.2c-0.2,0-0.4-0.1-0.5-0.2c-0.2-0.2-0.4-0.4-0.6-0.6c-0.2-0.2-0.3-0.5-0.5-0.8
		C150.7,112.6,150.7,112.4,150.7,112.2z"/>
	<path style="clip-path:url(#SVGID_00000067215145205956056370000000770368742841869239_);fill:#FDB719;" d="M249.1,86.6
		c-0.1-0.4-0.3-0.8-0.6-1c-0.3-0.3-0.6-0.5-1-0.6c-6.8-1.6-13.9-3.1-21.5-4.6l2.9-15.1c0.1-0.3,0-0.6,0-0.8
		c-0.1-0.3-0.2-0.5-0.3-0.8c-0.3-0.5-0.8-0.8-1.4-0.9c-8.9-1.6-17.8-3-26.8-4.2c-1.4-0.2-2.9-0.4-4.3-0.6
		c-5.4-0.7-10.9-1.3-16.3-1.8c-4-11.4-11.4-21.3-21.3-28.2c-9.9-7-21.7-10.7-33.8-10.7S100.6,21.1,90.7,28
		c-9.9,7-17.3,16.9-21.3,28.2c-5.4,0.5-10.9,1.1-16.3,1.8c-1.4,0.2-2.9,0.4-4.3,0.6c-8.9,1.2-17.9,2.6-26.8,4.2
		c-0.5,0.1-1,0.5-1.3,0.9c-0.2,0.2-0.3,0.5-0.3,0.8c-0.1,0.3-0.1,0.6,0,0.8l2.9,15.1C16.3,81.7,9.3,83.2,1.7,85
		c-0.4,0.1-0.8,0.3-1,0.6c-0.3,0.3-0.5,0.6-0.6,1C0,87,0,87.4,0.1,87.8c0.1,0.4,0.4,0.7,0.7,1c5.1,4.2,10.1,8.5,15.1,12.7
		c-2.7,6.2-5.2,12.4-7.7,18.5C8,120.3,8,120.7,8,121.1c0.1,0.4,0.2,0.7,0.5,1c0.2,0.2,0.5,0.4,0.7,0.6c0.3,0.1,0.6,0.2,0.9,0.2
		c0.2,0,0.3,0,0.5,0c19.1-4.4,38.5-7.7,58-10c0.3-1.7,0-3.5-0.9-5c-0.1-0.1-0.2-0.3-0.2-0.4c-9.2-2.9-18.6-5.6-28.1-8.1
		c3.6-0.6,7.2-1.1,10.9-1.6l4.7-0.6c5-0.7,10-1.3,14.9-1.8c4.1,11.1,11.6,20.7,21.4,27.5c9.8,6.8,21.4,10.4,33.3,10.4
		c11.9,0,23.6-3.6,33.3-10.4c9.8-6.8,17.2-16.4,21.4-27.5c5,0.5,10,1.1,14.9,1.8l4.7,0.6c3.6,0.5,7.2,1.1,10.9,1.6
		c-9.5,2.5-18.9,5.2-28.1,8.1c-0.1,0.1-0.2,0.2-0.2,0.4c-0.9,1.5-1.2,3.3-0.9,5c19.5,2.3,38.8,5.7,58,10c0.2,0,0.3,0,0.5,0
		c0.3,0,0.6-0.1,0.9-0.2c0.3-0.1,0.5-0.3,0.7-0.6c0.3-0.3,0.4-0.7,0.5-1c0.1-0.4,0-0.8-0.1-1.1c-2.5-6.2-5.1-12.4-7.7-18.5
		c4.9-4.3,10-8.6,15.1-12.7c0.3-0.3,0.5-0.6,0.6-1C249.1,87.4,249.2,87,249.1,86.6z M59.8,109.7c-15.5,2.1-30.9,4.8-46.1,8.2
		c2.2-5.4,4.4-10.7,6.8-16.1c0.2-0.4,0.2-0.9,0.1-1.3c-0.1-0.4-0.3-0.8-0.7-1.1c-4.2-3.7-8.6-7.4-13-11c6-1.4,11.6-2.5,17.1-3.6
		l2.8,14.8c0,0,0,0.1,0,0.1l0.1,0.2l0.1,0.2c0.1,0.1,0.1,0.2,0.2,0.4l0.1,0.2l0.2,0.1l0.2,0.1l0.2,0.1L28,101l0.3,0.1l0.2,0.1
		C39,103.7,49.5,106.5,59.8,109.7z M53.2,93l-4.3,0.6c-6.1,0.9-12.2,1.8-18.3,2.9L25,66.7c8.2-1.4,16.5-2.7,24.7-3.8l4.6-0.6
		c4.6-0.6,9.2-1.1,13.8-1.6c-2.6,10-2.5,20.5,0.4,30.4C63.4,91.7,58.3,92.3,53.2,93z M124.6,128.9c-10.8,0-21.4-3.3-30.4-9.3
		c-9-6.1-15.9-14.7-19.9-24.7c-0.5-1.4-1-2.8-1.5-4.2c-3-9.9-3-20.5-0.1-30.4c0.4-1.5,0.9-3,1.5-4.5c3.9-10.1,10.9-18.7,19.8-24.8
		s19.6-9.4,30.5-9.4s21.5,3.3,30.5,9.4c9,6.1,15.9,14.8,19.8,24.8c0.6,1.5,1.1,3,1.5,4.5c2.9,10,2.9,20.6-0.1,30.5
		c-0.4,1.4-0.9,2.8-1.5,4.2c-4,10-10.9,18.6-19.9,24.7C146,125.7,135.4,128.9,124.6,128.9L124.6,128.9z M200.2,93.6l-4.3-0.6
		c-5.1-0.7-10.1-1.3-15.2-1.8c2.8-9.9,3-20.4,0.4-30.4c4.6,0.5,9.2,1,13.8,1.6l4.6,0.6c8.2,1.1,16.5,2.4,24.7,3.8l-5.7,29.8
		C212.4,95.4,206.3,94.5,200.2,93.6L200.2,93.6z M229.2,99.2c-0.3,0.3-0.6,0.7-0.7,1.1c-0.1,0.4-0.1,0.9,0.1,1.3
		c2.3,5.3,4.6,10.7,6.8,16.1c-15.2-3.4-30.7-6.1-46.1-8.2c10.3-3.1,20.9-6,31.4-8.6h0.1l0.3-0.1l0.1-0.1c0.1,0,0.1-0.1,0.2-0.1
		l0.1-0.1l0.2-0.2l0.1-0.1c0.1-0.1,0.1-0.2,0.2-0.3c0.1-0.1,0.1-0.2,0.2-0.4c0,0,0-0.1,0-0.1l0.1-0.2l2.8-14.7
		c6,1.2,11.6,2.3,17.1,3.6C237.8,91.9,233.5,95.6,229.2,99.2L229.2,99.2z"/>
	<path style="clip-path:url(#SVGID_00000067215145205956056370000000770368742841869239_);fill:#FDB719;" d="M155.4,54.5
		c-3.5-4.9-8.1-8.9-13.5-11.6c-5.4-2.7-11.3-4.2-17.4-4.2c-6,0-12,1.4-17.4,4.2c-5.4,2.7-10,6.7-13.5,11.6c-1,1.4-2,2.9-2.8,4.5
		c-2.5,4.7-3.9,9.8-4.2,15c-0.3,5.3,0.4,10.5,2.2,15.5c0.5,1.4,1.2,2.8,1.9,4.2c3.2,6.2,8,11.4,14,15c6,3.6,12.8,5.5,19.8,5.5
		s13.8-1.9,19.8-5.5c6-3.6,10.8-8.8,14-15c0.7-1.4,1.3-2.8,1.9-4.2c1.8-4.9,2.6-10.2,2.2-15.5c-0.3-5.3-1.8-10.4-4.3-15
		C157.4,57.4,156.4,55.9,155.4,54.5z M153.5,93.4c-2.3,3.8-5.3,7-8.9,9.6s-7.6,4.5-11.9,5.5c-8.7,2.1-17.8,0.7-25.4-3.9
		s-13.1-12-15.2-20.6c-2.1-8.6-0.7-17.7,3.9-25.3c1-1.6,2.1-3.1,3.4-4.5c3.2-3.5,7-6.3,11.3-8.3c4.3-1.9,9-2.9,13.7-2.9
		s9.4,1,13.7,2.9c4.3,1.9,8.2,4.7,11.3,8.3c1.3,1.4,2.4,2.9,3.4,4.5c2.8,4.5,4.6,9.6,5,14.9c0.5,5.3-0.4,10.6-2.4,15.6
		C155,90.6,154.3,92,153.5,93.4L153.5,93.4z"/>
	<path style="clip-path:url(#SVGID_00000067215145205956056370000000770368742841869239_);fill:#FDB719;" d="M81.2,87.9
		c-0.2-0.1-0.4-0.2-0.6-0.2c-0.2,0-0.4,0-0.6,0.1c-0.2,0.1-0.4,0.1-0.6,0.3c-0.2,0.1-0.3,0.3-0.4,0.5c-0.1,0.2-0.1,0.4-0.1,0.6
		c0,0.2,0,0.4,0.1,0.6c0,0.2,0.1,0.4,0.3,0.6c0.1,0.2,0.3,0.3,0.5,0.5c0.2,0.1,0.4,0.2,0.6,0.2c0.2,0,0.4,0,0.6-0.1
		c0.2,0,0.4-0.1,0.6-0.3c0.2-0.1,0.3-0.3,0.4-0.5c0.2-0.4,0.2-0.9,0.1-1.3C81.8,88.6,81.6,88.2,81.2,87.9L81.2,87.9z"/>
	<path style="clip-path:url(#SVGID_00000067215145205956056370000000770368742841869239_);fill:#FDB719;" d="M169.4,86.9
		c-0.2-0.1-0.4-0.1-0.6-0.1c-0.2,0-0.4,0.1-0.6,0.2c-0.2,0.1-0.3,0.3-0.5,0.5c-0.1,0.2-0.2,0.4-0.2,0.6c-0.1,0.2-0.1,0.4-0.1,0.7
		c0,0.2,0.1,0.4,0.2,0.6c0.1,0.2,0.3,0.3,0.4,0.5c0.2,0.1,0.4,0.2,0.6,0.3c0.2,0.1,0.4,0.1,0.6,0.1s0.4-0.1,0.6-0.2
		c0.2-0.1,0.3-0.3,0.5-0.5c0.1-0.2,0.2-0.4,0.3-0.6c0.1-0.2,0.1-0.4,0.1-0.6c0-0.2-0.1-0.4-0.2-0.6c-0.1-0.2-0.2-0.4-0.4-0.5
		C169.8,87.1,169.6,87,169.4,86.9z"/>
</g>
</svg>
