<?xml version="1.0" encoding="UTF-8"?>
<svg width="88px" height="88px" viewBox="0 0 88 88" version="1.1" xmlns="http://www.w3.org/2000/svg" xmlns:xlink="http://www.w3.org/1999/xlink">
    <!-- Generator: sketchtool 58 (101010) - https://sketch.com -->
    <title>95488655-C0A9-4FD5-B5B8-B78298669799</title>
    <desc>Created with sketchtool.</desc>
    <g id="Page-1" stroke="none" stroke-width="1" fill="none" fill-rule="evenodd">
        <g id="STM-Salespage" transform="translate(-216.000000, -3570.000000)" fill="#D22529" fill-rule="nonzero">
            <g id="Section-3" transform="translate(0.000000, 2969.000000)">
                <path d="M259.593646,601.656434 C235.511672,601.656434 216,621.168107 216,645.25008 C216,669.332054 235.511672,688.843727 259.593646,688.843727 C283.67562,688.843727 303.187292,669.332054 303.187292,645.25008 C303.187292,621.168107 283.67562,601.656434 259.593646,601.656434 Z M259.593646,680.406247 C240.205055,680.406247 224.43748,664.638672 224.43748,645.25008 C224.43748,625.861489 240.205055,610.093914 259.593646,610.093914 C278.982237,610.093914 294.749812,625.861489 294.749812,645.25008 C294.749812,664.638672 278.982237,680.406247 259.593646,680.406247 Z M245.53118,642.437587 C248.642535,642.437587 251.156166,639.923956 251.156166,636.812601 C251.156166,633.701246 248.642535,631.187614 245.53118,631.187614 C242.419825,631.187614 239.906193,633.701246 239.906193,636.812601 C239.906193,639.923956 242.419825,642.437587 245.53118,642.437587 Z M273.656113,631.187614 C270.544757,631.187614 268.031126,633.701246 268.031126,636.812601 C268.031126,639.923956 270.544757,642.437587 273.656113,642.437587 C276.767468,642.437587 279.281099,639.923956 279.281099,636.812601 C279.281099,633.701246 276.767468,631.187614 273.656113,631.187614 Z M259.593646,653.68756 C266.66007,653.68756 273.304551,656.798915 277.839662,662.23044 C279.31629,664.023439 279.087809,666.677832 277.29481,668.171969 C275.413921,669.718806 272.777208,669.332054 271.353452,667.626946 C268.435388,664.111329 264.146438,662.107531 259.593646,662.107531 C255.040854,662.107531 250.751905,664.12901 247.83384,667.626946 C246.339703,669.419945 243.685481,669.648425 241.892482,668.171969 C240.099483,666.677832 239.853493,664.023439 241.34763,662.23044 C245.882741,656.798915 252.527222,653.68756 259.593646,653.68756 Z" id="f5"></path>
            </g>
        </g>
    </g>
</svg>