<?xml version="1.0" encoding="utf-8"?>
<!-- Generator: Adobe Illustrator 26.0.3, SVG Export Plug-In . SVG Version: 6.00 Build 0)  -->
<svg version="1.1" id="Layer_1" xmlns="http://www.w3.org/2000/svg" xmlns:xlink="http://www.w3.org/1999/xlink" x="0px" y="0px"
	 viewBox="0 0 40 40" style="enable-background:new 0 0 40 40;" xml:space="preserve">
<style type="text/css">
	.st0{fill:none;}
	.st1{fill:#FFB815;}
</style>
<path id="Background-1" class="st0" d="M33.3,10L20.1,22.7l-6.1-6.3l-2.2,2.1l8.2,8.5l14.7-14.2c0.9,2,2,4.8,2,7.2
	c0,9-7.8,16.8-16.8,16.8S3.2,29,3.2,20S11,3.2,20,3.2C25.2,3.2,30.3,6.2,33.3,10z"/>
<path id="Border" class="st1" d="M20,3.8C11,3.8,3.8,11,3.8,20S11,36.2,20,36.2S36.2,29,36.2,20c0-2.4-0.5-4.7-1.5-6.7L20.1,27.5
	l-0.1-0.1l-8.6-8.9l2.7-2.6l6.1,6.3L32.8,10C29.8,6.2,25.2,3.8,20,3.8z M20,40C9,40,0,31,0,20S9,0,20,0s20,9,20,20S31,40,20,40z"/>
</svg>
