<?xml version="1.0" encoding="utf-8"?>
<!-- Generator: Adobe Illustrator 26.0.3, SVG Export Plug-In . SVG Version: 6.00 Build 0)  -->
<svg version="1.1" id="Layer_1" xmlns="http://www.w3.org/2000/svg" xmlns:xlink="http://www.w3.org/1999/xlink" x="0px" y="0px"
	 viewBox="0 0 24 24" style="enable-background:new 0 0 24 24;" xml:space="preserve">
<style type="text/css">
	.st0{fill-rule:evenodd;clip-rule:evenodd;fill:#666666;}
</style>
<path class="st0" d="M19.1,4.9C17.2,3.1,14.7,2,12,2C6.5,2,2,6.5,2,12s4.5,10,10,10s10-4.5,10-10C22,9.3,20.9,6.8,19.1,4.9z
	 M16.9,15.6l-1.2,1.2c-0.1,0.1-0.3,0.1-0.3,0l-3.1-3.1c-0.1-0.1-0.3-0.1-0.3,0l-3.1,3.1c-0.1,0.1-0.3,0.1-0.3,0l-1.2-1.2
	c-0.1-0.1-0.1-0.3,0-0.3l3.1-3.1c0.1-0.1,0.1-0.3,0-0.3L7.2,8.8c-0.1-0.1-0.1-0.3,0-0.3l1.2-1.2c0.1-0.1,0.3-0.1,0.3,0l3.1,3.1
	c0.1,0.1,0.3,0.1,0.3,0l3.1-3.1c0.1-0.1,0.3-0.1,0.3,0l1.2,1.2c0.1,0.1,0.1,0.3,0,0.3l-3.1,3.1c-0.1,0.1-0.1,0.3,0,0.3l3.1,3.1
	C17,15.4,17,15.5,16.9,15.6z"/>
</svg>
