<?xml version="1.0" encoding="utf-8"?>
<!-- Generator: Adobe Illustrator 26.0.3, SVG Export Plug-In . SVG Version: 6.00 Build 0)  -->
<svg version="1.1" id="Layer_1" xmlns="http://www.w3.org/2000/svg" xmlns:xlink="http://www.w3.org/1999/xlink" x="0px" y="0px"
	 viewBox="0 0 33 33" style="enable-background:new 0 0 33 33;" xml:space="preserve">
<style type="text/css">
	.st0{fill:#FFB815;}
</style>
<path class="st0" d="M17.6,14.9c-0.8-0.2-1.6-0.6-2.2-1.2c-0.6-0.2-0.8-0.8-0.8-1.2s0.2-1,0.6-1.2c0.6-0.4,1.2-0.8,1.8-0.6
	c1.2,0,2.2,0.6,2.8,1.4l1.8-2.4c-0.6-0.6-1.2-1-1.8-1.4c-0.6-0.4-1.4-0.6-2.2-0.6V4.9h-2.4v2.8c-1,0.2-2,0.8-2.8,1.6
	c-0.8,1-1.4,2.2-1.2,3.4c0,1.2,0.4,2.4,1.2,3.2c1,1,2.4,1.6,3.6,2.2c0.6,0.2,1.4,0.6,2,1c0.4,0.4,0.6,1,0.6,1.6
	c0,0.6-0.2,1.2-0.6,1.8c-0.6,0.6-1.4,0.8-2,0.8c-0.8,0-1.8-0.2-2.4-0.8c-0.6-0.4-1.2-1-1.6-1.6L10,23c0.6,0.8,1.2,1.4,2,2
	c1,0.6,2.2,1.2,3.4,1.2v2.6h2.2v-3c1.2-0.2,2.2-0.8,3-1.6c1-1,1.6-2.6,1.6-4c0-1.2-0.4-2.6-1.4-3.4C19.8,15.9,18.8,15.3,17.6,14.9z
	 M16.4,1C7.6,1,0.5,8.1,0.5,16.9c0,8.7,7.2,15.9,15.9,15.9c8.7,0,15.9-7.2,15.9-15.9C32.3,8.1,25.1,1,16.4,1z M16.4,30.6
	c-7.5,0-13.7-6.2-13.7-13.7c0-7.5,6.2-13.7,13.7-13.7c7.5,0,13.7,6.2,13.7,13.7C30.1,24.4,23.9,30.6,16.4,30.6z"/>
</svg>
