<svg width="20" height="20" viewBox="0 0 20 20" fill="none" xmlns="http://www.w3.org/2000/svg">
<rect width="20" height="20" rx="4" fill="url(#paint0_linear_104_332)"/>
<path d="M13.6355 7.04551C13.3561 7.18832 13.5754 7.67529 13.1815 7.61673C12.8365 7.5639 12.9091 7.23116 12.8589 6.98839C12.8314 6.80059 12.7893 6.61531 12.7332 6.4343C12.5208 5.86308 12.2527 5.33184 11.5794 5.02767V5.47465C11.5794 5.72456 11.6968 6.04587 11.3615 6.14155C11.0263 6.23723 10.8699 5.95305 10.719 5.71313C10.5281 5.41224 10.4112 5.06864 10.3781 4.7116C10.345 4.35456 10.3968 3.99463 10.5291 3.66244C10.6003 3.46109 10.9202 3.25402 10.6855 3.05123C10.4955 2.88701 10.2665 3.16262 10.0709 3.24831C9.9024 3.32952 9.74545 3.43377 9.6044 3.55819C8.66298 4.31649 8.26769 5.41467 7.85704 6.50285C7.73971 6.81559 7.71736 7.19403 7.36259 7.40538C7.16564 7.01267 7.41008 6.69135 7.43382 6.32006C7.1852 6.2815 7.13491 6.4443 7.0525 6.54712C6.00576 7.80156 5.31798 9.32704 5.0649 10.9555C4.64587 13.6688 6.29965 16.2965 8.76075 16.8591C11.5068 17.4875 14.0978 15.9709 14.8004 13.1676C15.3479 10.9855 14.7068 8.97053 13.6355 7.04551ZM9.96197 14.2072C9.6709 14.2125 9.3818 14.1575 9.1121 14.0455C8.8424 13.9334 8.59771 13.7666 8.39277 13.5553C8.18784 13.3439 8.02692 13.0922 7.91972 12.8155C7.81252 12.5388 7.76126 12.2427 7.76905 11.9452C7.78022 10.6356 8.70069 9.69741 9.97175 9.7017C11.2805 9.7017 12.2345 10.6799 12.2066 11.9866C12.2058 12.2844 12.1466 12.579 12.0325 12.8531C11.9184 13.1271 11.7517 13.3749 11.5424 13.5819C11.333 13.789 11.0851 13.951 10.8134 14.0584C10.5417 14.1658 10.2517 14.2164 9.96057 14.2072H9.96197Z" fill="white"/>
<defs>
<linearGradient id="paint0_linear_104_332" x1="10" y1="0" x2="10" y2="20" gradientUnits="userSpaceOnUse">
<stop stop-color="#01769B"/>
<stop offset="1" stop-color="#013C4A"/>
</linearGradient>
</defs>
</svg>
