<?xml version="1.0" encoding="utf-8"?>
<!-- Generator: Adobe Illustrator 26.0.3, SVG Export Plug-In . SVG Version: 6.00 Build 0)  -->
<svg version="1.1" id="Layer_1" xmlns="http://www.w3.org/2000/svg" xmlns:xlink="http://www.w3.org/1999/xlink" x="0px" y="0px"
	 viewBox="0 0 180 180" style="enable-background:new 0 0 180 180;" xml:space="preserve">
<style type="text/css">
	.st0{fill:#FDB719;}
</style>
<g>
	<g>
		<path class="st0" d="M52.8,172.6c0.1-0.4-0.1-0.7-0.4-1c-0.7-0.6-0.9-1.3-1-2.2c0-0.7,0-1.5,0-2.2c0-35,0-70,0-105
			c0-0.6,0-1.2,0-1.8c0-2.1,1.4-3.4,3.4-3.4c0.6,0,1.3,0.1,1.9,0.1c4.2,0,8.4,0,12.7,0c11.3,0,22.7,0,34,0c0.7,0,1.4-0.1,2.1-0.6
			c0.8-0.6,1.1-1.5,1-2.5c-0.1-1.7-1.6-2.5-2.8-2.5c-5.7,0-11.4,0-17.2,0c-20.7,0-41.4,0-62.1,0c-0.2,0-0.4,0-0.6,0
			c-1.2-0.1-2.2,0.2-3.2,0.7c-0.9,0.5-1.7,1-2.5,1.7c-1.8,1.7-3.2,3.7-4.1,6c-0.4,1-0.7,2-0.9,3.1c-0.1,0.4,0,0.9,0,1.3
			c0,5.6,0,11.3,0,16.9c0,7.5,0,15,0,22.6c0,0.5,0.1,1,0.4,1.5c0.4,0.7,1,1.1,1.8,1.2c1.7,0.2,2.5-0.4,3.3-2
			c0.1-0.2,0.1-0.5,0.1-0.7c0-0.7,0-1.5,0-2.2c0-10.1,0-20.1,0-30.2c0-0.6,0.1-1.1,0.3-1.6c0.4-0.9,1.2-1.4,2.1-1.7
			c0.2-0.1,0.4-0.1,0.6,0c0.7,0.2,1.4,0.5,1.9,1.2c0.1,0.2,0.2,0.4,0.4,0.6c0.3,0.5,0.4,1,0.4,1.5c0,1.9,0,3.8,0,5.7
			c0,17.6,0,35.1,0,52.7c0,12.4,0,24.7,0,37.1c0,0.7,0,1.5,0,2.2c0,1-0.4,1.9-1.1,2.6c-0.3,0.3-0.4,0.5-0.4,0.9c-0.9,0-1.8,0-2.7,0
			c0-0.4-0.1-0.7-0.4-0.9c-0.6-0.5-0.9-1.2-0.9-2c0-0.7,0-1.5,0-2.2c0-17.5,0-35,0-52.5c0-0.6,0-1.3,0-1.9c0-0.2,0-0.3,0-0.5
			c-0.1-0.6-0.4-0.8-1-0.8c-0.4,0-0.7,0.1-1.1,0.2c-0.6,0.1-1.2,0.1-1.7,0c-1.2-0.2-2.4-0.6-3.4-1.3c-1-0.6-1.8-1.5-2.4-2.4
			c-0.7-1.1-1.1-2.3-1.3-3.5c-0.1-0.3,0-0.7,0-1c0-12.3,0-24.5,0-36.8c0-0.6,0-1.1,0-1.7c0-0.8,0.1-1.6,0.2-2.4
			C7.8,62.1,7.9,61.5,8,61c0.1-0.5,0.2-0.9,0.4-1.4c0.2-0.5,0.4-1,0.5-1.6c0.2-0.5,0.4-1,0.6-1.4c0.1-0.1,0.1-0.2,0.2-0.3
			c0.4-1,0.9-1.8,1.5-2.7c0.5-0.7,1-1.3,1.5-1.9c0.7-0.8,1.5-1.6,2.4-2.4c0.7-0.6,1.4-1.1,2.2-1.5c1.2-0.7,2.5-1.3,3.9-1.5
			c1.1-0.2,2.1-0.4,3.2-0.4c16.9,0,33.7,0,50.6,0c9.4,0,18.9,0,28.3,0c1.3,0,2.5,0.3,3.6,0.8c0.9,0.4,1.8,1,2.5,1.8
			c0.2,0.2,0.4,0.4,0.6,0.6c0.1,0.1,0.2,0.3,0.3,0.4c1,1.6,1.7,3.2,1.5,5.1c-0.1,1.8-0.8,3.5-2,4.8c-0.8,0.8-1.7,1.5-2.6,2.1
			c-0.1,0.1-0.2,0.1-0.3,0.2c-1.2,0.4-2.3,0.8-3.6,0.8c-4.4,0-8.8,0-13.2,0c-10.1,0-20.2,0-30.2,0c-0.6,0-1.1-0.1-1.7,0
			c-1.1,0.1-1.5,0.8-1.4,1.7c0.1,1,0.1,2,0.1,2.9c0,5.8,0,11.7,0,17.5c0,1.3-0.1,2.6-0.2,4c-0.1,1.3-0.1,2.6,0.1,3.9
			c0.1,0.7,0.2,1.5,0.2,2.2c0,24.1,0,48.2,0,72.3c0,0.8,0,1.5,0,2.3c0,1-0.3,1.8-1,2.4c-0.3,0.2-0.4,0.5-0.4,0.9
			C54.6,172.6,53.7,172.6,52.8,172.6z"/>
		<path class="st0" d="M36.3,172.6c0.1-0.4-0.1-0.7-0.4-1c-0.6-0.4-0.8-1.1-0.9-1.8c0-0.2,0-0.5,0-0.7c0-15.9,0-31.8,0-47.7
			c0-2,0-4,0-6c0-0.3,0-0.7,0.1-1c0.3-1.2,1.1-1.8,2.1-2.3c0.4-0.2,0.8-0.1,1.2,0.1c1,0.5,1.7,1.3,2,2.4c0.1,0.3,0.1,0.6,0.1,0.9
			c0,2.8,0,5.5,0,8.3c0,14.4,0,28.8,0,43.2c0,0.8,0,1.5,0,2.3c0,1-0.3,1.8-1.1,2.5c-0.3,0.3-0.4,0.5-0.4,0.9
			C38.1,172.6,37.2,172.6,36.3,172.6z"/>
		<path class="st0" d="M63.9,172.6c0-0.4-0.1-0.7-0.4-0.9c-0.3-0.2-0.5-0.5-0.7-0.8c-0.3-0.6-0.4-1.2-0.2-1.9
			c0.4-0.9,0.5-1.8,0.5-2.7c0-0.6,0.1-1.3,0.3-1.9c0.3-0.8,0.4-1.6,0.4-2.4c0-0.5,0.1-1.1,0.3-1.6c0.3-0.9,0.3-1.7,0.4-2.6
			c0-0.5,0.1-1,0.2-1.4c0.3-0.9,0.4-1.8,0.4-2.7c0-0.3,0-0.6,0.1-0.8c0.1-0.4,0.3-0.7,0.6-1c0.3-0.3,0.7-0.6,1-0.9
			c0.7-0.5,1.5-0.5,2.2,0c0.4,0.3,0.7,0.6,1,0.9c0.6,0.6,0.7,1.3,0.6,2.1c0,0.2-0.1,0.5-0.2,0.7c-0.3,0.8-0.4,1.6-0.4,2.4
			c0,0.3,0,0.6-0.1,0.9c-0.3,1.2-0.5,2.4-0.6,3.6c0,0.4-0.1,0.8-0.3,1.2c-0.4,0.9-0.5,1.8-0.5,2.7c0,0.4,0,0.8-0.2,1.2
			c-0.3,1-0.4,2-0.5,3c0,0.2-0.1,0.4-0.1,0.6c-0.1,0.6-0.4,1.1-0.9,1.5c-0.3,0.2-0.5,0.5-0.4,0.9C65.6,172.6,64.8,172.6,63.9,172.6z
			"/>
		<path class="st0" d="M113.5,172.6c0-0.4-0.1-0.7-0.4-1c-0.3-0.3-0.5-0.6-0.8-1c-0.2-0.3-0.3-0.7-0.4-1.1c0-1.1-0.2-2.2-0.5-3.3
			c-0.1-0.4-0.2-0.8-0.2-1.3c0-0.7-0.2-1.4-0.4-2.1c-0.2-0.6-0.3-1.3-0.3-1.9c0-0.9-0.2-1.7-0.5-2.5c-0.2-0.5-0.3-1-0.3-1.5
			c0-1-0.1-1.9-0.4-2.8c-0.3-0.8-0.2-1.5,0.3-2.2c0.4-0.6,1-1.1,1.7-1.4c0.5-0.2,1.1-0.2,1.6,0.2c0.4,0.3,0.8,0.6,1.1,0.9
			c0.5,0.6,0.7,1.3,0.7,2c0,0.8,0.1,1.6,0.3,2.3c0.2,0.7,0.3,1.4,0.3,2.2c0,0.6,0.1,1.1,0.3,1.7c0.3,0.8,0.4,1.7,0.4,2.6
			c0,0.7,0.1,1.4,0.3,2c0.2,0.6,0.3,1.3,0.3,2c0,0.8,0.2,1.6,0.5,2.4c0.1,0.5,0.2,0.9,0.1,1.4c-0.1,0.5-0.4,0.9-0.8,1.2
			c-0.4,0.3-0.6,0.6-0.5,1C115.2,172.6,114.3,172.6,113.5,172.6z"/>
		<path class="st0" d="M115.1,7.4c16.2,0,32.5,0,48.7,0c1.1,0,2.1,0.1,3.2,0.5c1,0.3,1.8,0.8,2.6,1.5c0.4,0.3,0.8,0.7,1.1,1.1
			c0.5,0.6,0.9,1.3,1.2,2.1c0.1,0.2,0.2,0.4,0.4,0.5c0.2,0,0.2,0.2,0.2,0.4c0,1,0.1,1.9,0,2.9c0,0.5,0,0.9,0,1.4
			c0,0.2,0,0.4-0.3,0.4c-0.2,0-0.3,0.2-0.3,0.3c0,0,0,0.1-0.1,0.1c-0.6,1.6-1.7,2.8-3.1,3.8c-0.6,0.5-1.3,0.8-2,0.9
			c-0.3,0.1-0.6,0.2-0.9,0.3c-0.6,0.2-1.2,0.3-1.9,0.3c-2.6,0-5.2,0-7.8,0c-22.2,0-44.3,0-66.5,0c-7.2,0-14.5,0-21.7,0
			c-0.7,0-1.4,0-2.1,0c-1.3,0-2.8-1-3.2-2.5c-0.1-0.3,0-0.7,0.1-1c0.6-1.3,1.5-2,3-2c0.8,0,1.5,0,2.3,0c31.5,0,62.9,0,94.4,0
			c0.7,0,1.3,0,2,0c0.6,0,1.1-0.2,1.5-0.5c0.1-0.1,0.2-0.2,0.4-0.3c1.3-1,1.4-3.2-0.4-4.4c-0.4-0.2-0.8-0.3-1.2-0.3
			c-0.7,0-1.5,0-2.2,0c-31.4,0-62.8,0-94.2,0c-0.7,0-1.4,0-2,0c-0.8,0-1.4-0.2-2.1-0.6c-0.7-0.4-1.2-1-1.4-1.8
			c-0.1-0.3-0.1-0.6,0-0.8c0.4-1,1-1.9,2.1-2.2c0.3-0.1,0.5-0.1,0.8-0.1c0.8,0,1.5,0,2.3,0C83.5,7.4,99.3,7.4,115.1,7.4
			C115.1,7.4,115.1,7.4,115.1,7.4z"/>
		<path class="st0" d="M167.1,87.2c0,17.4,0,34.8,0,52.2c0,0.8,0,1.7,0,2.5c0,0.8-0.3,1.4-0.8,2c-0.7,0.8-1.6,1.1-2.6,1.1
			c-5.5,0-11,0-16.5,0c-23.3,0-46.6,0-69.9,0c-3.8,0-7.7,0-11.5,0c-1.5,0-2.4-0.7-3.1-1.9c-0.3-0.5-0.3-1,0-1.5
			c0.7-1.3,1.7-2.1,3.2-2.1c0.8,0,1.5,0.1,2.3,0.1c30.1,0,60.1,0,90.2,0c0.6,0,1.3,0,1.9,0c0.2,0,0.4,0,0.6,0
			c0.4-0.1,0.6-0.3,0.7-0.7c0.1-0.3,0.1-0.6,0-0.9c-0.1-0.5,0-1,0-1.6c0-32.5,0-65.1,0-97.6c0-1.9,0-3.9,0-5.8
			c0-1.1,0.4-1.9,1.1-2.6c0.9-0.9,2.3-0.9,3.3,0c0.8,0.7,1.2,1.6,1.2,2.8C167.1,51,167.1,69.1,167.1,87.2
			C167.1,87.2,167.1,87.2,167.1,87.2z"/>
		<path class="st0" d="M109.2,128.4c-14.5,0-28.9,0-43.4,0c-1.4,0-2.4-0.6-3.1-1.8c-0.3-0.5-0.3-1.1-0.1-1.6
			c0.7-1.3,1.7-2.1,3.3-2.1c28.4,0,56.7,0,85.1,0c0.6,0,1.3,0,1.9,0c0.7,0,1.2,0.2,1.7,0.6c0.3,0.3,0.6,0.5,0.9,0.8
			c0.7,0.7,0.7,2,0.1,2.6c-0.3,0.3-0.6,0.6-0.9,0.9c-0.4,0.4-0.9,0.5-1.5,0.5c-0.7,0-1.3,0-2,0C137.3,128.4,123.3,128.4,109.2,128.4
			C109.2,128.4,109.2,128.4,109.2,128.4z"/>
		<path class="st0" d="M37.6,7.4c1.6-0.1,3.1,0.3,4.6,0.6c1.2,0.3,2.3,0.8,3.4,1.4c0.2,0.1,0.3,0.2,0.5,0.3c0.9,0.5,1.7,1.2,2.5,1.9
			c0.2,0.2,0.4,0.4,0.6,0.6c1.2,1.2,2.2,2.5,3,4c0.8,1.4,1.2,2.8,1.5,4.4c0.1,0.7,0.3,1.3,0.4,2c0.1,1.2,0.1,2.4-0.2,3.5
			c-0.3,1.1-0.4,2.2-0.8,3.3c-0.2,0.6-0.4,1.2-0.8,1.7c-0.1,0.1-0.1,0.2-0.1,0.2c-0.4,0.9-1,1.7-1.5,2.5c-0.3,0.4-0.7,0.8-1,1.2
			c-1.3,1.4-2.8,2.5-4.5,3.4c-0.3,0.2-0.7,0.3-1.1,0.4c-0.3,0.1-0.6,0.2-0.9,0.4c-0.4,0.2-0.7,0.4-1.1,0.4c-1,0.1-1.9,0.4-2.8,0.6
			c-1.2,0.3-2.5,0.2-3.7-0.1c-0.7-0.2-1.4-0.3-2-0.4c-0.5-0.1-1-0.2-1.5-0.5c-0.2-0.1-0.3-0.2-0.5-0.3c-0.9-0.3-1.8-0.8-2.6-1.3
			c-0.9-0.5-1.6-1.1-2.3-1.8c-1.2-1-2.2-2.3-3-3.6c-0.9-1.5-1.7-3-1.9-4.7c-0.2-0.9-0.4-1.8-0.5-2.7c-0.1-1.2,0-2.4,0.2-3.6
			c0.3-1.1,0.5-2.3,0.9-3.3c0-0.1,0.1-0.2,0.1-0.4c0.5-0.9,0.9-1.8,1.4-2.6c0.6-0.8,1.1-1.6,1.8-2.4c0.5-0.6,1.1-1.1,1.7-1.6
			c0.8-0.7,1.8-1.3,2.8-1.8c1.2-0.6,2.4-1.1,3.7-1.4c0.3-0.1,0.7-0.1,1-0.2C35.8,7.5,36.7,7.4,37.6,7.4z M48.7,24c0-0.5,0-0.9,0-1.3
			c0-0.7-0.1-1.4-0.3-2c-0.5-1.2-0.9-2.3-1.7-3.4c-1-1.3-2.2-2.4-3.6-3.2c-0.3-0.2-0.7-0.4-1.1-0.5c-0.9-0.4-1.9-0.7-3-0.7
			c-0.9,0-1.9,0-2.8,0c-0.6,0-1.1,0.1-1.6,0.3c-1.8,0.6-3.4,1.6-4.8,2.9c-0.5,0.5-0.9,1.1-1.4,1.7c-0.3,0.4-0.5,0.8-0.7,1.2
			c-0.2,0.4-0.3,0.8-0.5,1.1c-0.3,0.6-0.4,1.1-0.5,1.8c-0.1,1-0.1,2.1,0,3.1c0,0.8,0.1,1.6,0.5,2.4c0.4,1,0.8,1.9,1.5,2.8
			c0.8,1.1,1.8,2,2.9,2.8c1,0.7,2.2,1.3,3.4,1.6c0.4,0.1,0.7,0.2,1.1,0.2c0.8,0.1,1.5,0.1,2.3,0.1c0.8,0,1.6-0.1,2.4-0.4
			c0.6-0.2,1.2-0.3,1.8-0.7c0.8-0.5,1.7-1,2.4-1.6c1.2-1.1,2.2-2.2,2.9-3.7c0.2-0.5,0.4-1.1,0.6-1.6c0.2-0.4,0.3-0.9,0.3-1.3
			C48.7,25.1,48.7,24.5,48.7,24z"/>
	</g>
	<g>
		<path class="st0" d="M114.6,100.7c-0.7,0.1-1.3-0.2-2-0.4c-1.5-0.5-2.7-1.4-3.7-2.5c-0.7-0.8-1.4-1.7-1.6-2.9
			c-0.1-0.5-0.3-1-0.5-1.5c-0.3-0.7-0.8-1.2-1.5-1.5c-0.5-0.2-1.1-0.3-1.6-0.5c-0.4-0.1-0.8-0.2-1.2-0.4c-0.6-0.2-1.3-0.5-2-0.7
			c-0.3-0.1-0.5-0.1-0.8-0.2c-1-0.5-2-0.7-3-1c-0.5-0.2-0.9-0.3-1.4-0.5c-1.1-0.4-2.3-0.6-3.3-1.2c-0.9-0.2-1.7-0.4-2.5-0.8
			c-0.2-0.1-0.3-0.1-0.5-0.1c-0.7-0.1-1.3,0-1.8,0.5c-0.7,0.7-1.6,1.4-2.4,1.9c-0.2,0.1-0.4,0.3-0.7,0.3c-0.9,0.1-1.7,0.3-2.6,0.3
			c-1,0-2-0.2-2.9-0.7c-0.3-0.1-0.6-0.3-0.9-0.4c-1-0.4-1.9-0.3-2.7,0.5c-0.1,0.1-0.2,0.2-0.3,0.3c-0.9,0.5-1.7,1.1-2.5,1.6
			c-0.8,0.5-1.7,1-2.4,1.6c-0.2,0.2-0.4,0.3-0.6,0.4c-0.9,0.5-1.7,1.1-2.5,1.6c-0.4,0.3-0.9,0.5-1.4,0.6c-1,0.1-1.7-0.4-2.2-1.2
			c-0.6-0.9-0.4-1.9,0.3-2.6c0.6-0.6,1.4-1.1,2.1-1.6c0.8-0.5,1.5-1,2.3-1.6c0.1-0.1,0.2-0.1,0.3-0.2c0.6-0.3,1.2-0.8,1.7-1.1
			c0.8-0.5,1.5-1.1,2.3-1.5c0.4-0.2,0.8-0.6,1.2-0.9c0.4-0.3,0.5-0.8,0.5-1.3c0-0.1,0-0.2,0-0.2c-0.4-1.4,0.1-2.7,0.4-4
			c0.1-0.3,0.2-0.5,0.4-0.8c0.5-1,1.2-1.8,2.1-2.4c0.8-0.6,1.6-1.1,2.6-1.3c0.8-0.1,1.5-0.4,2.3-0.4c0.3,0,0.5,0,0.8,0.1
			c0.6,0.1,1.2,0.3,1.8,0.4c0.3,0.1,0.5,0.2,0.8,0.3c1,0.6,1.9,1.2,2.6,2.1c0.1,0.1,0.1,0.1,0.2,0.2c0.6,1,1.2,2,1.4,3.1
			c0,0.1,0,0.2,0.1,0.3c0.2,1,0.7,1.6,1.6,1.9c1,0.3,2,0.8,3.1,1c0.2,0,0.5,0.1,0.7,0.2c0.6,0.3,1.2,0.5,1.8,0.7
			c0.6,0.1,1.2,0.4,1.7,0.6c0.5,0.2,1.1,0.4,1.7,0.5c0.5,0.1,0.9,0.2,1.3,0.5c0.6,0.3,1.2,0.5,1.8,0.6c0.5,0.1,1,0.3,1.5,0.5
			c0.9,0.4,1.8,0.6,2.7,0.8c0.7,0.2,1.2-0.1,1.7-0.5c0.3-0.2,0.5-0.5,0.7-0.7c0.9-0.6,1.8-1.3,2.9-1.4c0.3,0,0.6-0.2,0.9-0.2
			c0.5-0.1,1-0.2,1.5-0.1c0.2,0,0.4,0.1,0.7,0.1c0.6,0.1,1.2-0.1,1.6-0.6c0.5-0.6,0.9-1.2,1.3-1.9c0.5-0.7,0.9-1.4,1.4-2.1
			c0.2-0.2,0.3-0.4,0.4-0.7c0.6-1,1.3-2,2-3c0.5-0.7,1-1.5,1.5-2.2c0.6-0.8,1.1-1.7,1.7-2.5c0-0.1,0.1-0.1,0.1-0.2
			c0.5-0.9,1.2-1.7,1.7-2.6c0.3-0.6,0.7-1.1,1.1-1.6c0.4-0.6,0.8-1.3,1.2-1.8c0.5-0.7,1-1.4,1.4-2.1c0.6-0.9,1.2-1.7,1.7-2.6
			c0.5-0.8,1.1-1.6,1.6-2.3c0.2-0.3,0.3-0.6,0.6-0.9c0.7-0.8,1.2-1.8,1.8-2.7c0.4-0.5,0.6-1,1-1.5c0.6-0.8,1.1-1.6,1.6-2.4
			c0.1-0.2,0.3-0.4,0.4-0.6c0.5-0.5,0.8-1.1,1.2-1.7c0.3-0.4,0.3-0.9,0-1.3c-0.6-1-0.8-2-1.2-3.1c-0.4-0.9-0.3-1.9,0.1-2.8
			c0.2-0.4,0.3-0.8,0.4-1.2c0.2-1,0.8-1.7,1.4-2.4c0.8-0.9,1.7-1.6,2.8-2.1c1.4-0.6,2.9-0.8,4.5-0.5c1.3,0.2,2.4,0.8,3.4,1.5
			c0.9,0.7,1.6,1.6,2.1,2.6c0.2,0.3,0.4,0.6,0.6,1c0.8,1.6,0.9,3.2,0.2,4.8c-0.2,0.4-0.3,0.7-0.5,1.1c-0.6,1.2-1.5,2.1-2.5,3
			c-0.8,0.7-1.7,1.2-2.8,1.4c-0.1,0-0.2,0.1-0.3,0.1c-0.8,0.2-1.5,0.3-2.3,0.2c-0.1,0-0.2,0-0.3,0c-0.8-0.1-1.5,0.2-2,0.9
			c-1.1,1.6-2.1,3.1-3.2,4.7c-0.7,1.1-1.5,2.3-2.2,3.4c-0.7,1-1.4,2.1-2.1,3.1c-0.9,1.4-1.8,2.8-2.8,4.2c-0.6,0.8-1.1,1.7-1.7,2.5
			c-0.9,1.3-1.8,2.5-2.6,3.9c-0.6,0.9-1.1,1.8-1.8,2.7c0,0.1-0.1,0.1-0.1,0.2c-0.8,1.4-1.8,2.7-2.7,4.1c-0.4,0.7-0.9,1.4-1.4,2.1
			c-0.6,0.8-1.1,1.7-1.7,2.6c-0.2,0.3-0.3,0.5-0.5,0.7c-0.2,0.2-0.4,0.5-0.6,0.8c-0.4,0.8-0.4,1.5,0.1,2.3c0.5,0.9,0.9,1.7,1.1,2.7
			c0.2,1.2,0,2.4-0.4,3.6c-0.1,0.4-0.3,0.7-0.5,1c-0.1,0.3-0.3,0.5-0.5,0.8c-0.6,0.7-1.2,1.5-2,2c-0.6,0.4-1.2,0.8-1.9,1
			C116.6,100.5,115.7,100.8,114.6,100.7z M81.7,84.8c0.4,0,0.7-0.1,1.1-0.2c1-0.4,1.6-1.2,2-2.1c0.1-0.4,0.2-0.7,0.1-1.1
			c-0.1-0.4-0.2-0.8-0.5-1.2c-0.5-0.8-1.2-1.3-2.1-1.6c-0.3-0.1-0.6-0.1-0.8,0c-1.3,0.2-2.2,1.1-2.7,2.2c-0.3,0.7-0.3,1.4,0.1,2.1
			c0.2,0.4,0.5,0.8,0.8,1.1C80.2,84.5,80.9,84.8,81.7,84.8z M114.8,89.5c-0.4,0-0.8,0-1.2,0.2c-0.5,0.2-0.8,0.6-1.2,1
			c-0.9,0.8-1,1.9-0.7,3c0.1,0.4,0.4,0.6,0.6,0.9c0.6,0.8,1.4,1.1,2.3,1.2c1.2,0.1,2.5-0.8,2.9-2c0.5-1.2,0.1-2.7-0.9-3.5
			c-0.1-0.1-0.2-0.2-0.3-0.3C115.9,89.6,115.4,89.5,114.8,89.5z M144.7,43.1c0,0.3,0,0.7,0.1,1c0.2,0.8,0.8,1.2,1.4,1.7
			c1,0.8,2.3,0.7,3.2-0.1c0.2-0.2,0.5-0.4,0.7-0.6c0.2-0.2,0.4-0.5,0.5-0.8c0.3-0.9,0.3-1.7-0.1-2.5c-0.1-0.2-0.2-0.4-0.4-0.6
			c-0.4-0.4-0.8-0.7-1.3-1c-0.3-0.2-0.7-0.2-1-0.3C146.6,39.8,144.5,41.3,144.7,43.1z"/>
		<path class="st0" d="M150.2,90c0,7.5,0,15.1,0,22.6c0,0.6,0,1.3,0,1.9c0,0.5-0.1,1-0.5,1.4c-0.3,0.4-0.6,0.8-1.1,1
			c-0.8,0.4-1.5,0.2-2.1-0.3c-0.3-0.3-0.6-0.7-0.9-1.1c-0.2-0.3-0.3-0.7-0.3-1.1c0-0.6,0-1.2,0-1.8c0-15.1,0-30.1,0-45.2
			c0-0.7,0-1.4,0-2c0-1.2,1.1-2.3,2.2-2.5c0.9-0.1,1.5,0.2,2.1,0.8c0.5,0.6,0.7,1.2,0.7,2C150.2,73.8,150.3,81.9,150.2,90
			C150.3,90,150.2,90,150.2,90z"/>
		<path class="st0" d="M84.1,106.4c0,2.6,0,5.2,0,7.9c0,0.4,0,0.7-0.1,1.1c-0.2,0.8-0.8,1.3-1.5,1.6c-0.7,0.3-1.4,0.2-2-0.4
			c-0.8-0.7-1.1-1.5-1.1-2.6c0-5.1,0-10.2,0-15.3c0-0.5,0.1-1,0.3-1.5c0.4-0.8,1-1.2,1.8-1.4c0.2-0.1,0.4,0,0.7,0
			c0.6,0.2,1.1,0.5,1.5,1c0.3,0.3,0.4,0.7,0.5,1.1c0,0.2,0,0.4,0,0.7C84.1,101.3,84.1,103.9,84.1,106.4
			C84.1,106.4,84.1,106.4,84.1,106.4z"/>
		<path class="st0" d="M117.2,111.8c0,1.2,0,2.3-0.1,3.5c-0.1,0.8-0.4,1.3-1,1.7c-0.7,0.5-1.4,0.4-2.1,0c-0.3-0.2-0.6-0.4-0.8-0.6
			c-0.2-0.2-0.3-0.4-0.5-0.6c-0.5-0.6-0.6-1.3-0.5-2c0.1-1.2,0.1-2.3,0-3.5c-0.1-1.1,0.2-2,1-2.7c0.3-0.3,0.7-0.5,1.1-0.7
			c0.3-0.1,0.7-0.1,1,0.1c0.6,0.3,1.1,0.7,1.5,1.2c0.3,0.4,0.4,0.8,0.4,1.3C117.2,110.2,117.2,111,117.2,111.8z"/>
	</g>
</g>
</svg>
