<?xml version="1.0" encoding="utf-8"?>
<!-- Generator: Adobe Illustrator 26.0.3, SVG Export Plug-In . SVG Version: 6.00 Build 0)  -->
<svg version="1.1" id="Layer_1" xmlns="http://www.w3.org/2000/svg" xmlns:xlink="http://www.w3.org/1999/xlink" x="0px" y="0px"
	 viewBox="0 0 180 180" style="enable-background:new 0 0 180 180;" xml:space="preserve">
<style type="text/css">
	.st0{fill:#FDB719;}
</style>
<g>
	<g>
		<path class="st0" d="M3.5,46.8c0.5,0.1,0.8-0.2,1-0.6C5.2,44.3,6.7,43,8.4,42c0.9-0.5,1.8-0.7,2.8-0.8c0.6-0.1,1.2-0.1,1.8-0.1
			c5,0,9.9,0,14.9,0c0.5,0,1,0,1.4,0c0.7,0,1.4,0.3,1.9,0.8c0.2,0.2,0.4,0.4,0.6,0.6c0.7,0.8,0.7,2,0.1,2.9
			c-0.6,0.7-1.2,1.3-2.2,1.4c-0.3,0-0.6,0-0.8,0c-5.3,0-10.6,0-15.9,0c-0.1,0-0.3,0-0.4,0c-1.1-0.1-1.9,0.4-2.6,1.1
			c-0.4,0.4-0.6,0.9-0.7,1.5c0,0.3,0,0.7,0,1c0,1.2-0.1,2.4-0.1,3.6c-0.1,1.1-0.1,2.2,0,3.3c0.1,1,0.1,1.9,0.1,2.9
			c0,28.9,0,57.8,0,86.7c0,1.1,0,2.1-0.1,3.2c0,0.4,0,0.8,0,1.2c0,2.3,0,4.7,0,7c0,0.1,0,0.2,0,0.3c-0.1,1.1,0.3,2,1.2,2.7
			c0.4,0.3,0.8,0.5,1.3,0.5c0.6,0.1,1.2,0.1,1.9,0c0.2,0,0.4,0,0.6,0c50.4,0,100.8,0,151.2,0c0.6,0,1.3,0,1.9,0.1
			c0.9,0,1.7-0.3,2.4-0.9c0.5-0.5,0.7-1.2,0.8-1.9c0-0.6,0-1.2,0-1.8c0-5.6,0-11.2,0-16.8c0-29.8,0-59.6,0-89.5c0-0.4,0-0.9,0-1.3
			c0-2-1.6-3-3.1-3c-5.4,0-10.9,0-16.3,0c-0.6,0-1.1-0.1-1.7-0.3c-1-0.4-1.5-1.3-1.8-2.2c-0.1-0.2-0.1-0.4,0-0.5
			c0.2-0.9,0.6-1.6,1.4-2.1c0.7-0.4,1.4-0.6,2.2-0.6c5.4,0,10.9,0,16.3,0c1.5,0,2.9,0.4,4.2,1c0.9,0.4,1.7,1.1,2.4,1.8
			c1.5,1.7,2.2,3.6,2.5,5.8c0,0.2,0,0.3,0,0.5c0,27.1,0,54.3,0,81.4c0,8.9,0,17.9,0,26.8c0,0.5-0.1,1.1-0.2,1.6
			c-0.3,1.2-0.7,2.4-1.4,3.5c-0.5,0.8-1.2,1.5-1.9,2.1c-0.7,0.6-1.5,1-2.3,1.4c-0.5,0.2-1,0.4-1.5,0.7c-0.7,0.3-1.4,0.5-2.2,0.5
			c-29,0-58.1,0-87.1,0c-21.5,0-43,0-64.5,0c-0.8,0-1.6,0-2.4,0c-0.8,0-1.6-0.1-2.3-0.5c-0.7-0.4-1.5-0.7-2.3-1
			c-1-0.4-1.8-1.2-2.5-1.9c-0.7-0.7-1.2-1.5-1.5-2.4C4.2,162,3.9,162,3.5,162C3.5,123.6,3.5,85.2,3.5,46.8z"/>
		<path class="st0" d="M133.1,104.3c0,1.6-0.2,3-0.2,4.4c-0.1,2.2-0.7,4.3-1.1,6.5c-0.2,0.8-0.6,1.6-0.8,2.4c-0.4,1.5-1,2.9-1.6,4.3
			c-0.5,1.2-1.1,2.3-1.7,3.4c-0.5,0.9-1,1.8-1.6,2.7c-0.6,0.9-1.2,1.7-1.8,2.5c-0.9,1.2-1.9,2.4-3,3.5c-0.9,0.9-1.8,1.9-2.8,2.7
			c-0.7,0.6-1.3,1.2-2,1.7c-0.8,0.6-1.7,1.3-2.6,1.8c-0.2,0.1-0.3,0.2-0.5,0.3c-1.1,0.7-2.1,1.4-3.3,2c-0.2,0.1-0.4,0.2-0.6,0.3
			c-0.6,0.4-1.2,0.6-1.8,0.9c-1.5,0.7-3,1.2-4.6,1.8c-0.5,0.2-1,0.3-1.6,0.5c-1,0.2-2,0.5-3,0.8c-1,0.3-2,0.4-3,0.5
			c-1.5,0.2-2.9,0.3-4.4,0.4c-1.2,0.1-2.5,0-3.7-0.1c-1-0.1-2-0.2-3.1-0.3c-1.4-0.1-2.8-0.4-4.2-0.8c-0.4-0.1-0.8-0.2-1.2-0.3
			c-1.2-0.3-2.3-0.7-3.5-1.1c-1.4-0.5-2.7-1.1-4-1.6c-0.1,0-0.1,0-0.2-0.1c-0.8-0.5-1.7-0.9-2.5-1.3c-1.1-0.6-2.2-1.3-3.2-2
			c-1.2-0.8-2.3-1.6-3.3-2.5c-1.3-1.1-2.5-2.2-3.6-3.4c-1.1-1.2-2.1-2.4-3.1-3.6c-0.7-0.9-1.2-1.8-1.9-2.6c-0.5-0.7-0.9-1.4-1.2-2.1
			c-0.5-1-1.2-2-1.6-3.1c-0.2-0.5-0.5-1-0.7-1.4c-0.3-0.6-0.4-1.3-0.7-1.9c-1-2.5-1.7-5.1-2.1-7.7c-0.3-2-0.5-4.1-0.7-6.2
			c-0.1-1.1,0-2.2,0.1-3.4c0.1-0.9,0.2-1.7,0.3-2.6c0.3-2.3,0.5-4.5,1.3-6.7c0.1-0.3,0.2-0.5,0.2-0.8c0.2-0.8,0.4-1.6,0.8-2.3
			c0.2-0.3,0.2-0.7,0.4-1c0-0.1,0.1-0.2,0.1-0.3c0.5-1.2,1-2.4,1.7-3.5c0.2-0.3,0.4-0.7,0.5-1c0-0.1,0.1-0.2,0.1-0.3
			c0.6-1,1.1-2,1.8-2.9c0.5-0.7,1-1.4,1.5-2.1c0.6-0.8,1.3-1.7,2-2.4c0.5-0.5,0.9-1,1.4-1.5c0.9-1,1.9-1.8,2.8-2.7
			c1.3-1.1,2.6-2,4-3c0.5-0.4,1-0.7,1.5-1c0.9-0.5,1.8-1.2,2.8-1.6c0.4-0.2,0.7-0.4,1.1-0.6c0.5-0.3,1.1-0.5,1.6-0.7
			c1.6-0.7,3.4-1.2,5.1-1.8c0.6-0.2,1.3-0.3,2-0.5c1.4-0.3,2.7-0.7,4.1-0.8c0.9-0.1,1.8-0.2,2.8-0.2c1.5-0.1,2.9-0.2,4.4-0.1
			c2.9,0.1,5.8,0.4,8.6,1.1c2.1,0.5,4.1,1.2,6,1.9c1.5,0.6,3,1.2,4.5,2c1.5,0.9,3.1,1.8,4.5,2.8c0.6,0.5,1.3,0.9,1.9,1.4
			c0.9,0.7,1.7,1.4,2.6,2.2c0.4,0.4,0.8,0.7,1.1,1c1.4,1.4,2.7,2.9,3.9,4.4c1,1.3,2,2.7,2.8,4.1c0.6,1,1.2,2,1.6,3.1c0,0,0,0,0,0
			c0.7,1.1,1.1,2.4,1.6,3.6c0.3,0.6,0.4,1.2,0.6,1.8c0.1,0.5,0.3,1,0.5,1.5c0.3,0.8,0.5,1.7,0.7,2.5c0.3,1.3,0.6,2.6,0.7,3.9
			c0.1,1,0.2,2.1,0.3,3.1C133.1,102.8,133.2,103.6,133.1,104.3z M90,67c-0.2,0-0.4,0-0.6,0c-2.2-0.1-4.4,0.1-6.5,0.6
			c-2.3,0.5-4.6,1.1-6.8,2c-1.4,0.6-2.7,1.2-4,1.9c-1,0.5-1.9,1.1-2.8,1.7c-0.7,0.4-1.3,0.9-1.9,1.3c-0.8,0.6-1.5,1.2-2.3,1.9
			c-0.9,0.8-1.7,1.5-2.5,2.4c-1.1,1.2-2.1,2.4-3,3.6c-0.7,0.9-1.3,1.8-1.8,2.8c-0.5,0.9-1,1.8-1.5,2.7c-0.7,1.2-1.1,2.5-1.7,3.8
			c0,0.1,0,0.1-0.1,0.2c-0.2,0.7-0.4,1.3-0.6,2c-0.2,0.6-0.4,1.3-0.5,1.9c-0.2,1-0.4,2-0.5,3c-0.3,1.6-0.4,3.3-0.4,4.9
			c0,2,0,4,0.4,5.9c0.3,1.4,0.5,2.9,0.8,4.3c0.2,0.9,0.6,1.7,0.8,2.5c0.4,1.3,1.1,2.6,1.5,3.9c0,0,0,0.1,0.1,0.1c0.6,1,1.1,2,1.7,3
			c0.5,0.8,1,1.6,1.5,2.3c0.9,1.3,1.9,2.5,2.9,3.7c1.7,1.8,3.5,3.5,5.5,5c0.7,0.5,1.4,1,2.1,1.4c0.9,0.7,2,1.2,3,1.8
			c1.1,0.6,2.3,1.1,3.5,1.6c1.7,0.7,3.5,1.2,5.2,1.7c2,0.5,4.2,0.8,6.3,0.9c2.4,0.1,4.8,0.1,7.2-0.3c1.2-0.2,2.4-0.2,3.6-0.6
			c1.9-0.6,3.9-1,5.8-1.9c0.4-0.2,0.8-0.3,1.2-0.5c1-0.6,2.1-1,3.1-1.7c0.1,0,0.1-0.1,0.2-0.1c0.9-0.4,1.7-1,2.6-1.6
			c1.3-0.9,2.5-1.8,3.6-2.8c0.6-0.6,1.3-1.2,1.9-1.9c1-1.1,2-2.2,2.9-3.3c0.6-0.8,1.2-1.6,1.8-2.5c0.6-1,1.2-2,1.7-3.1
			c0.6-1.2,1.1-2.5,1.7-3.7c0,0,0-0.1,0-0.1c0.1-0.5,0.3-1.1,0.6-1.6c0.3-0.7,0.5-1.4,0.6-2.1c0.1-0.5,0.2-0.9,0.3-1.4
			c0.4-1.3,0.5-2.7,0.7-4c0.2-2,0.2-4,0.2-5.9c0-0.7,0-1.5-0.1-2.2c-0.2-1.7-0.5-3.4-0.9-5c-0.2-0.7-0.3-1.5-0.6-2.2
			c-0.4-0.9-0.7-1.7-0.9-2.6c-0.1-0.2-0.2-0.4-0.3-0.6c-0.5-1.1-1-2.2-1.6-3.3c-0.7-1.3-1.4-2.6-2.3-3.8c-1.1-1.6-2.3-3-3.6-4.4
			c-1.3-1.4-2.7-2.6-4.2-3.8c-0.7-0.5-1.3-1.1-2.1-1.5c-0.9-0.6-1.8-1.2-2.8-1.7c-1.2-0.6-2.4-1.2-3.6-1.7c-1.6-0.7-3.3-1.3-5-1.7
			c-1.9-0.5-3.8-0.8-5.7-1C92.4,67,91.2,67.1,90,67z"/>
		<path class="st0" d="M89.9,11.7c8.5,0,16.9,0,25.4,0c0.8,0,1.7,0,2.5,0c0.3,0,0.5,0,0.5,0.4c0,0.2,0.2,0.3,0.4,0.4
			c1,0.8,2.1,1.4,3.1,2.3c1.2,1.2,2,2.6,2.4,4.3c0.2,0.7,0.3,1.4,0.3,2.1c0,3.6,0,7.1,0,10.7c0,0.8-0.3,1.6-0.8,2.3
			c-1.4,1.7-3.2,1.4-4.4-0.1c-0.5-0.6-0.7-1.3-0.7-2.1c0-1.3,0.1-2.5,0.1-3.8c0-2.3,0-4.6,0-6.8c0-0.8-0.3-1.5-0.7-2.2
			c-0.5-0.6-1.1-0.9-1.8-1c-0.4-0.1-0.7-0.1-1.1-0.1c-0.4,0-0.8,0-1.2,0c-16,0-32,0-48.1,0c-0.6,0-1.2-0.1-1.8,0
			c-1.6,0.1-2.8,1.4-2.8,2.9c0,1.9,0,3.9,0,5.8c0,1.7,0,3.4,0,5.2c0,1.2-0.5,2.1-1.3,2.7c-1.1,0.9-2.2,0.8-3.3-0.1
			c-0.8-0.6-1.2-1.4-1.2-2.4c0-3.8,0-7.7,0-11.5c0-1.3,0.3-2.5,1-3.7c0.5-0.8,1-1.6,1.7-2.3c0.3-0.3,0.6-0.5,0.9-0.7
			c0.5-0.3,1-0.7,1.5-1.1c0.2-0.1,0.4-0.2,0.5-0.4c0.2-0.1,0.5-0.3,0.5-0.6c0-0.2,0.1-0.2,0.3-0.2c0.1,0,0.2,0,0.3,0
			c1.3,0,2.5,0,3.8,0C73.9,11.7,81.9,11.7,89.9,11.7C89.9,11.7,89.9,11.7,89.9,11.7z"/>
		<path class="st0" d="M89.9,46.8c-13.5,0-27,0-40.5,0c-0.8,0-1.5,0-2.3,0c-1.2,0-2.1-0.6-2.8-1.6c-0.6-0.8-0.4-2.3,0.3-3
			c0.8-0.8,1.7-1.3,2.9-1.2c1,0,2,0,3,0c26.6,0,53.1,0,79.7,0c0.9,0,1.8,0,2.7,0c1.2,0,2.7,0.9,3.1,2.4c0.1,0.3,0.1,0.7,0,1
			c-0.4,1.4-1.4,2.3-2.9,2.4c-0.7,0-1.4,0-2.1,0C117.2,46.8,103.6,46.8,89.9,46.8z"/>
	</g>
	<g>
		<path class="st0" d="M17.9,150.8c0.6,0,1.1,0.2,1.4,0.5c0.3,0.3,0.6,0.6,0.9,1c0.4,0.6,0.5,1.4,0.1,1.9c-0.3,0.4-0.7,0.9-1.1,1.2
			c-0.7,0.5-1.6,0.5-2.3,0c-0.4-0.3-0.8-0.7-1.1-1.1c-0.4-0.6-0.4-1.5,0.1-2.1c0.3-0.4,0.7-0.8,1.1-1.1
			C17.2,150.9,17.6,150.8,17.9,150.8z"/>
		<path class="st0" d="M164.4,153.3c-0.1,0.7-0.3,1.4-0.8,1.9c-0.2,0.2-0.5,0.4-0.7,0.6c-0.5,0.3-1.1,0.4-1.6,0
			c-0.3-0.2-0.7-0.4-1-0.7c-1-1-1.1-2.3-0.1-3.3c0.3-0.3,0.7-0.6,1.1-0.8c0.3-0.1,0.7-0.2,1-0.1c0.9,0.3,1.7,0.8,2.1,1.8
			c0,0.1,0.1,0.2,0.1,0.3C164.4,153.1,164.4,153.2,164.4,153.3z"/>
		<path class="st0" d="M17.9,57.9c-0.5,0.1-0.9-0.2-1.3-0.5c-0.4-0.3-0.7-0.7-1-1.1c-0.4-0.6-0.3-1.5,0.2-2c0.2-0.3,0.4-0.5,0.7-0.7
			c0.9-0.8,2.2-0.7,3,0.1c0.3,0.3,0.5,0.5,0.7,0.9c0.4,0.6,0.4,1.4-0.1,2c-0.2,0.2-0.4,0.5-0.6,0.7C19.1,57.8,18.7,57.9,17.9,57.9z"
			/>
		<path class="st0" d="M162,57.9c-0.8,0-1.4-0.3-1.8-0.8c-0.3-0.3-0.5-0.7-0.6-1c-0.1-0.2-0.1-0.5-0.1-0.8c0.1-0.8,0.5-1.5,1.2-1.9
			c0.8-0.5,1.6-0.6,2.4-0.1c0.9,0.5,1.4,1.2,1.3,2.3c0,0.5-0.2,1-0.5,1.3c-0.2,0.2-0.5,0.5-0.7,0.7C162.7,57.8,162.4,58,162,57.9z"
			/>
		<path class="st0" d="M87.5,129.7c0-0.3,0-0.6,0.1-0.8c0.1-1.1-0.4-2-1.4-2.3c-0.2-0.1-0.4-0.2-0.7-0.2c-1.2-0.3-2.3-0.7-3.3-1.3
			c-1.1-0.6-2.2-1.4-3.2-2.2c-0.5-0.4-1-0.9-1.5-1.4c-0.5-0.5-0.8-1-1.1-1.6c-0.6-1.1-0.3-2.1,0.6-2.9c0.5-0.4,1-0.7,1.6-0.7
			c0.3,0,0.7,0.1,0.9,0.3c0.4,0.3,0.8,0.5,1.1,0.9c0.3,0.3,0.7,0.7,1,1c1.2,1.3,2.7,2.2,4.3,2.9c0.9,0.4,1.9,0.6,2.9,0.7
			c1.3,0.1,2.6,0.1,3.9-0.3c1.3-0.4,2.4-1,3.4-1.9c0.9-0.8,1.6-1.7,2.2-2.8c0.3-0.5,0.4-0.9,0.6-1.4c0.4-1.4,0.5-2.8,0.1-4.3
			c-0.2-0.9-0.6-1.6-1.1-2.3c-0.9-1.2-2-2.1-3.2-2.9c-1-0.7-2.1-1.1-3.2-1.6c-0.6-0.3-1.2-0.4-1.8-0.6c-1.2-0.3-2.3-0.8-3.4-1.3
			c-1.6-0.7-3-1.6-4.3-2.8c-0.9-0.9-1.7-1.9-2.2-3.2c-0.7-1.7-0.8-3.3-0.7-5.1c0.1-1.5,0.7-2.9,1.3-4.2c0-0.1,0.1-0.2,0.1-0.2
			c1.1-1.6,2.3-3,4-3.9c0.5-0.3,1-0.6,1.6-0.7c1.4-0.4,1.7-1.6,1.6-2.6c0-0.4-0.1-0.8-0.1-1.2c0-1.3,0.9-2.3,2.2-2.6
			c0.2,0,0.5,0,0.7,0c1,0.2,2,1.2,2.1,2.2c0,0.3,0,0.7,0,1c0,0.5-0.1,1.1,0.1,1.6c0.1,0.5,0.5,0.9,1,1.1c0.2,0.1,0.4,0.2,0.6,0.2
			c1.2,0.2,2.2,0.7,3.3,1.2c0.9,0.4,1.7,1,2.5,1.6c0.6,0.4,1,1.1,1.1,1.9c0.1,0.9-0.5,2-1.4,2.4c-0.2,0.1-0.4,0.1-0.6,0.2
			c-0.4,0.1-0.7,0.1-1.1,0c-0.7-0.3-1.3-0.6-1.9-1.1c-0.1-0.1-0.2-0.1-0.2-0.2c-1.3-0.6-2.6-1.2-4-1.4c-1.1-0.1-2.3-0.1-3.5,0
			c-0.4,0.1-0.8,0.2-1.2,0.5c-0.9,0.5-1.6,1.1-2.2,1.9c-0.2,0.3-0.4,0.6-0.6,1c-0.6,1.3-0.8,2.6-0.3,4c0.2,0.7,0.5,1.3,1,1.7
			c0.3,0.3,0.6,0.6,0.8,0.8c0.1,0.1,0.2,0.2,0.4,0.3c0.9,0.5,1.8,1.2,2.9,1.5c1.2,0.4,2.3,0.8,3.5,1.2c0.8,0.2,1.5,0.7,2.2,1
			c1.5,0.6,2.9,1.5,4.2,2.5c0.9,0.7,1.8,1.6,2.6,2.5c0.7,0.9,1.2,1.9,1.6,3c0.7,1.9,0.8,3.8,0.6,5.8c-0.1,1.5-0.6,3-1.2,4.4
			c-0.4,1-1.1,2-1.8,2.8c-0.8,1-1.7,1.8-2.7,2.5c-0.2,0.2-0.5,0.3-0.8,0.5c-1,0.6-2,1.1-3.2,1.4c-0.3,0.1-0.6,0.2-0.9,0.4
			c-0.6,0.3-0.9,0.8-0.9,1.5c0,0.6,0,1.3,0,1.9c0,0.8-0.3,1.4-0.9,1.9c-0.5,0.5-1,0.8-1.7,0.7c-0.5,0-0.9-0.2-1.2-0.5
			C87.8,131.6,87.4,130.8,87.5,129.7z"/>
	</g>
</g>
</svg>
