<?xml version="1.0" encoding="utf-8"?>
<!-- Generator: Adobe Illustrator 26.0.3, SVG Export Plug-In . SVG Version: 6.00 Build 0)  -->
<svg version="1.1" id="Layer_1" xmlns="http://www.w3.org/2000/svg" xmlns:xlink="http://www.w3.org/1999/xlink" x="0px" y="0px"
	 viewBox="0 0 180 180" style="enable-background:new 0 0 180 180;" xml:space="preserve">
<style type="text/css">
	.st0{fill:#FDB719;}
</style>
<g>
	<path class="st0" d="M92.3,67c0,0.2,0,0.3,0,0.5c-0.1,1.1,0.7,1.8,1.6,2.1c0.4,0.1,0.8,0.1,1.2,0.3c1.5,0.5,2.9,1.2,4.1,2.2
		c0.4,0.3,0.7,0.7,0.9,1.1c0.3,0.5,0.3,1.1,0,1.7c-0.2,0.3-0.5,0.6-0.8,0.9c-0.7,0.6-1.5,0.6-2.3,0.3c-0.5-0.2-0.9-0.6-1.4-0.9
		c-2.2-1.3-4.6-1.8-7.1-1.4c-0.6,0.1-1.1,0.3-1.6,0.7c-0.7,0.5-1.3,1-1.8,1.8c-0.4,0.6-0.7,1.1-0.7,1.8c-0.1,0.7-0.1,1.4,0,2.2
		c0.1,1.2,0.9,2,1.7,2.7c1.2,1,2.5,1.6,3.9,2c0.4,0.1,0.7,0.2,1,0.4c0.4,0.2,0.9,0.4,1.3,0.5c0.2,0,0.3,0.1,0.5,0.1
		c1,0.5,2.1,0.9,3.1,1.5c1,0.6,1.9,1.2,2.8,1.9c0.9,0.8,1.8,1.7,2.4,2.7c0.7,1.1,1.2,2.2,1.4,3.5c0.1,0.7,0.2,1.5,0.3,2.2
		c0,0.7-0.1,1.4-0.2,2.1c-0.1,0.8-0.2,1.7-0.5,2.5c-0.6,1.6-1.4,3.2-2.6,4.4c-0.7,0.7-1.4,1.5-2.3,2c-0.9,0.6-1.9,1.2-3,1.4
		c-0.6,0.1-1.1,0.3-1.6,0.8c-0.3,0.3-0.5,0.7-0.5,1.2c0,0.6,0,1.1,0,1.7c0,1.1-0.6,1.8-1.5,2.3c-0.5,0.3-1.2,0.2-1.7-0.1
		c-0.8-0.5-1.3-1.3-1.3-2.3c0-0.3,0-0.7,0-1c0.1-1.1-0.2-1.8-1.3-2.3c-0.4-0.2-0.7-0.2-1.1-0.3c-0.4-0.1-0.7-0.2-1-0.3
		c-2.2-0.9-4.1-2.1-5.7-3.9c-0.5-0.6-1.1-1.2-1.4-1.9c-0.3-0.8-0.1-1.6,0.4-2.2c0.4-0.5,0.9-0.9,1.7-0.9c0.4,0,0.7,0.1,1,0.3
		c0.4,0.3,0.8,0.6,1.2,1c0.8,0.9,1.7,1.7,2.7,2.4c1.4,0.8,2.9,1.5,4.5,1.6c0.9,0.1,1.9,0.1,2.9,0c1.5-0.2,2.8-0.9,4-1.9
		c2-1.7,2.9-3.8,2.9-6.4c0-1.5-0.6-2.8-1.6-4c-0.9-1.1-2-1.8-3.1-2.5c-1.1-0.6-2.3-1.2-3.5-1.6c-1.8-0.6-3.7-1.2-5.3-2.2
		c-1.3-0.8-2.5-1.7-3.4-3c-1.1-1.6-1.6-3.3-1.8-5.2c-0.1-0.8,0.1-1.5,0.3-2.3c0.2-0.7,0.4-1.3,0.6-2c0.3-0.9,0.9-1.7,1.5-2.4
		c0.4-0.5,0.9-1.1,1.5-1.5c0.8-0.6,1.6-1.2,2.6-1.4c0.3-0.1,0.6-0.2,0.9-0.4c0.6-0.5,0.9-1.2,0.8-2c-0.1-0.6-0.1-1.3,0.1-1.9
		c0.2-0.9,0.9-1.5,1.7-1.8c0.5-0.2,1-0.1,1.5,0.2c0.8,0.6,1.3,1.3,1.3,2.4C92.3,66.5,92.3,66.7,92.3,67C92.3,67,92.3,67,92.3,67z"/>
	<path class="st0" d="M41.7,29.8c0,0.4,0,0.9,0.1,1.3c0.1,0.6,0,1.1-0.1,1.6c-0.2,1-0.5,2-0.9,2.9c-0.4,0.9-0.3,1.6,0.5,2.2
		c1,0.8,1.8,1.7,2.7,2.6c3.5,3.5,6.9,6.9,10.4,10.4c0.4,0.4,0.7,0.8,1.1,1.3c0.6,0.8,0.5,1.8-0.2,2.6c-0.2,0.2-0.4,0.4-0.6,0.5
		c-0.6,0.5-1.9,0.5-2.4,0c-0.9-0.8-1.8-1.6-2.6-2.5c-0.1-0.2-0.3-0.3-0.4-0.5c-1.4-1.3-2.8-2.7-4.1-4c-1-1-2-2-3-3
		c-0.6-0.7-1.3-1.3-2-1.9c-0.8-0.8-1.5-1.6-2.3-2.4c-0.7-0.7-1.3-0.8-2.2-0.4c-1.1,0.5-2.2,0.8-3.4,1c-1.1,0.2-2.1,0-3.1-0.3
		c-0.6-0.2-1.1-0.3-1.7-0.5c-0.5-0.2-0.9-0.5-1.4-0.7c-1-0.5-1.8-1.2-2.5-2c-0.8-1-1.6-2-1.9-3.3c-0.2-0.6-0.4-1.3-0.6-1.9
		c-0.3-1.1-0.3-2.1,0-3.2c0.3-1,0.5-1.9,0.9-2.8c0.9-1.8,2.1-3.3,3.9-4.3c1.6-1,3.4-1.5,5.2-1.7c0.8-0.1,1.5,0.1,2.2,0.3
		c0.6,0.2,1.2,0.4,1.8,0.6c1,0.3,1.8,0.9,2.6,1.5c0.6,0.4,1,1,1.5,1.5c0.4,0.5,0.6,1.1,1,1.6c0.1,0.1,0.2,0.3,0.3,0.4
		C41.6,28.1,41.7,28.3,41.7,29.8z M37,31.3c0.4-2.7-2.8-6-5.6-5.6c-2.8-0.3-6,2.9-5.6,5.6c-0.4,2.6,2.6,5.7,5.6,5.7
		C34.5,37,37.3,33.9,37,31.3z"/>
	<g>
		<path class="st0" d="M86.9,170c0.1-0.5-0.2-0.7-0.6-0.8c-2.5-0.8-4.4-2.5-5.6-4.8c-1.5-2.8-1.8-5.7-0.7-8.8
			c0.7-1.8,1.7-3.3,3.1-4.5c0.7-0.6,1.5-1.1,2.4-1.5c0.2-0.1,0.4-0.1,0.5-0.2c0.8-0.4,1.3-1,1.3-1.9c0-2,0-4,0-6.1
			c0-0.2,0-0.4,0-0.6c0-1.2,0.6-2.1,1.6-2.7c0.7-0.4,1.5-0.4,2.2,0.1c1,0.6,1.6,1.5,1.6,2.7c0,2.1,0.1,4.2-0.1,6.3
			c-0.1,0.9,0.3,1.8,1.3,2.2c1.7,0.6,3.1,1.6,4.2,3c0.7,0.8,1.2,1.7,1.6,2.7c0.3,0.9,0.6,1.8,0.8,2.7c0.2,1.3,0.1,2.5-0.2,3.8
			c-0.3,1.3-0.8,2.4-1.6,3.5c-1.3,1.9-3,3.2-5.1,4c-0.4,0.1-0.7,0.3-0.6,0.8C91,170,89,170,86.9,170z M90,164.6
			c2.7,0.2,5.6-2.7,5.4-5.3c0.3-2.6-2.6-5.5-5.3-5.5c-2.8,0-5.4,2.7-5.4,5.4C84.6,162.1,87.5,164.8,90,164.6z"/>
		<path class="st0" d="M170,93.1c-0.4,0-0.6,0.2-0.7,0.6c-0.7,1.9-1.8,3.5-3.4,4.7c-1.9,1.5-4.2,2.3-6.6,2.3c-1.4,0-2.7-0.4-4-0.9
			c-2.3-1-4-2.6-5.3-4.8c-0.2-0.3-0.3-0.6-0.4-0.9c-0.3-0.8-1-1.4-2-1.4c-2,0-4.1,0-6.1,0c-0.6,0-1.1,0-1.6-0.3
			c-0.9-0.4-1.6-1.1-1.8-2.1c-0.1-0.6,0.1-1.2,0.5-1.7c0.8-1,1.8-1.4,3-1.3c2,0,4,0,6.1,0c1,0,1.6-0.4,2-1.4
			c0.9-2.4,2.5-4.1,4.7-5.3c1.4-0.8,3-1.3,4.6-1.3c0.9,0,1.9,0.1,2.8,0.3c3,0.8,5.3,2.5,6.9,5.1c0.3,0.5,0.5,1,0.7,1.6
			c0.1,0.4,0.3,0.6,0.7,0.5C170,88.9,170,91,170,93.1z M159.3,95.3c2.7,0.2,5.4-2.7,5.5-5.3c0-2.7-2.8-5.6-5.3-5.4
			c-2.8-0.3-5.5,2.7-5.5,5.3C153.9,92.5,156.6,95.5,159.3,95.3z"/>
		<path class="st0" d="M90.1,127.3c1.8,0.1,3.7,0,5.6-0.4c1.8-0.4,3.6-0.7,5.4-1.2c1.6-0.5,3.1-1.1,4.6-1.8c1-0.4,1.9-0.9,2.8-1.5
			c0.7-0.5,1.5-0.9,2.2-1.3c1.7-1.1,3.3-2.4,4.7-3.7c1.1-1,2.1-2,3.1-3.2c0.9-1,1.7-2.2,2.5-3.3c0.6-0.9,1.2-1.9,1.8-2.8
			c0.4-0.7,0.8-1.4,1.1-2.1c0.5-1.1,1-2.2,1.4-3.4c0.6-1.8,1.1-3.6,1.4-5.4c0.5-2.3,0.7-4.6,0.7-6.9c0-2.1-0.1-4.2-0.5-6.2
			c-0.5-2.4-1-4.8-1.8-7.1c-0.9-2.4-2-4.6-3.3-6.7c-1.8-2.9-4-5.5-6.5-7.8c-1.4-1.3-3-2.5-4.6-3.6c-1.4-1-3-1.8-4.5-2.6
			c-0.9-0.4-1.8-0.8-2.7-1.2c-1.6-0.6-3.3-1.2-5-1.5c-1.7-0.3-3.4-0.7-5.1-0.8c-0.4,0-0.8-0.1-1.1-0.1c-1.5,0-3,0-4.5,0
			c-1.5,0-2.9,0.2-4.4,0.5c-0.6,0.1-1.3,0.3-1.9,0.4c-1.8,0.3-3.4,1-5.1,1.6c-1.4,0.5-2.9-0.2-3.5-1.4c-0.4-0.9-0.2-1.7,0.4-2.4
			c0.4-0.5,0.9-0.8,1.4-1c1.3-0.6,2.6-1,4-1.3c2.6-0.7,5.2-1.2,7.9-1.4c1.3-0.1,2.6-0.3,3.9-0.2c2.1,0.1,4.3,0.2,6.4,0.6
			c0.9,0.2,1.7,0.3,2.6,0.5c2,0.4,3.9,1,5.8,1.8c1.2,0.5,2.4,1,3.6,1.6c0.9,0.4,1.7,1,2.6,1.5c0.7,0.4,1.4,0.9,2.1,1.3
			c2.2,1.4,4.2,3.1,6.1,4.9c1.4,1.3,2.7,2.7,3.9,4.3c0.6,0.8,1.2,1.6,1.8,2.5c0.5,0.8,1,1.6,1.5,2.4c0.5,0.8,1,1.7,1.4,2.6
			c0.2,0.4,0.4,0.9,0.6,1.3c0.1,0.1,0.2,0.3,0.2,0.5c0.4,1.4,1,2.7,1.5,4.1c0.8,2.4,1.2,4.9,1.6,7.4c0.2,1.2,0.2,2.4,0.3,3.6
			c0.2,3.1-0.1,6.2-0.7,9.3c-0.4,2.1-0.8,4.1-1.5,6c-0.5,1.5-1,2.9-1.7,4.3c-0.5,1.1-1.1,2.1-1.7,3.2c-0.4,0.8-0.9,1.6-1.4,2.3
			c-0.5,0.6-0.9,1.3-1.3,1.9c-1.7,2.4-3.8,4.5-5.9,6.5c-1.2,1.2-2.6,2.2-4,3.2c-1.4,0.9-2.7,1.8-4.2,2.6c-1.1,0.6-2.2,1.2-3.4,1.7
			c-1.3,0.6-2.7,1.1-4.1,1.5c-2.3,0.7-4.7,1.2-7.1,1.5c-3,0.4-5.9,0.6-8.9,0.2c-0.9-0.1-1.7-0.1-2.6-0.3c-1.5-0.3-3-0.5-4.5-0.9
			c-1.5-0.4-3.1-0.8-4.6-1.4c-0.2-0.1-0.5-0.2-0.7-0.3c-1.5-0.6-3-1.3-4.4-2.1c-1.4-0.8-2.8-1.6-4.2-2.6c-1.3-0.9-2.6-1.9-3.8-3
			c-1.9-1.7-3.6-3.4-5.2-5.4c-1.2-1.6-2.4-3.2-3.4-4.9c-0.9-1.6-1.8-3.2-2.5-4.9c-0.7-1.8-1.4-3.5-1.9-5.4c-0.2-0.9-0.5-1.8-0.6-2.8
			c-0.2-1.3-0.5-2.5-0.7-3.8c-0.2-2.1-0.4-4.1-0.3-6.2c0.1-3.1,0.6-6.2,1.3-9.2c0.5-1.9,1.1-3.7,1.8-5.5c0.6-1.4,1.2-2.7,1.9-4.1
			c0.8-1.4,1.6-2.8,2.5-4.1c0.8-1.2,1.7-2.3,2.6-3.4c1.1-1.3,2.3-2.5,3.5-3.6C62,57.8,63,57,64,56.2c0.4-0.3,0.9-0.6,1.5-0.6
			c1.6-0.2,2.6,1,2.9,2.2c0.1,0.5,0,0.9-0.3,1.4c-0.4,0.7-1,1.3-1.7,1.8c-1.6,1.3-3,2.7-4.3,4.1c-1,1.1-1.9,2.2-2.7,3.3
			c-0.5,0.7-1.1,1.5-1.5,2.3c-0.3,0.6-0.7,1.2-1.1,1.9c-0.7,1.2-1.1,2.5-1.7,3.7c-0.3,0.6-0.4,1.3-0.7,2c-0.7,2-1.1,4.1-1.5,6.2
			c-0.3,1.4-0.4,2.8-0.3,4.1c0,0.7,0,1.5,0,2.2c0,2.1,0.2,4.1,0.6,6.2c0.4,2.1,1,4.2,1.7,6.2c0.4,1.1,0.9,2.3,1.5,3.4
			c0.5,0.9,0.9,1.8,1.5,2.6c0.9,1.4,1.8,2.8,2.9,4.1c1.1,1.4,2.3,2.6,3.6,3.9c1.5,1.4,3.1,2.7,4.8,3.8c0.8,0.5,1.7,1.1,2.5,1.6
			c0.8,0.4,1.5,0.9,2.3,1.2c1.4,0.6,2.7,1.1,4.1,1.6c1.9,0.6,3.8,1,5.7,1.4c1.3,0.3,2.6,0.4,3.9,0.4
			C88.5,127.3,89.3,127.3,90.1,127.3z"/>
		<path class="st0" d="M148.6,20.6c1.5,0,2.9,0.4,4.3,0.9c2,0.8,3.6,2.2,4.7,4c1.1,1.8,1.8,3.8,1.7,6c0,1.3-0.4,2.5-0.9,3.7
			c-0.8,2-2.1,3.6-3.9,4.7c-1.7,1.2-3.6,1.8-5.7,1.9c-1.2,0-2.5-0.2-3.6-0.7c-0.3-0.2-0.7-0.3-1.1-0.4c-0.7-0.2-1.3-0.2-1.8,0.4
			c-1.2,1.3-2.4,2.5-3.6,3.7c-3.1,3.1-6.2,6.2-9.2,9.2c-0.4,0.4-0.9,0.9-1.4,1.3c-0.4,0.3-0.9,0.5-1.4,0.5c-1.2,0-1.9-0.7-2.4-1.6
			c-0.5-0.9-0.3-1.8,0.4-2.6c0.6-0.7,1.2-1.3,1.9-1.9c4.1-4.1,8.2-8.1,12.3-12.2c0.5-0.5,0.6-1.1,0.4-1.8c-0.1-0.2-0.1-0.3-0.2-0.5
			c-1.2-2.5-1.2-5-0.2-7.6c0.6-1.6,1.5-3,2.7-4.2c0.9-0.8,1.8-1.5,2.9-1.9C145.7,21.1,147.1,20.6,148.6,20.6z M154,31.3
			c0.1-2.7-2.6-5.4-5.4-5.4c-2.8,0-5.6,2.9-5.3,5.5c-0.2,2.6,2.7,5.5,5.4,5.3C151.3,36.9,154.2,34,154,31.3z"/>
		<path class="st0" d="M31,137.9c1.7,0,3,0.3,4.2,0.9c0.2,0.1,0.5,0.2,0.7,0.3c0.6,0.2,1.2,0.1,1.7-0.4c1.1-1.1,2.2-2.2,3.3-3.3
			c2.7-2.7,5.4-5.4,8.1-8.1c0.9-0.9,1.8-1.9,2.8-2.7c1-0.9,2.2-0.8,3.3,0c0.8,0.7,1.2,1.5,0.9,2.6c-0.1,0.4-0.3,0.7-0.5,1
			c-1,1.1-2.1,2.1-3.1,3.2c-2.7,2.7-5.3,5.4-8,8c-1,1-1.9,2-2.9,2.9c-0.6,0.5-0.7,1.1-0.4,1.8c0.1,0.2,0.1,0.3,0.2,0.5
			c1.1,2.4,1.2,4.9,0.3,7.4c-0.7,1.9-1.8,3.5-3.3,4.8c-0.5,0.4-1.1,0.8-1.7,1.1c-2.4,1.3-5,1.8-7.7,1c-1.7-0.5-3.3-1.2-4.6-2.5
			c-1.2-1.1-2.2-2.5-2.8-4.1c-0.5-1.2-0.8-2.5-0.8-3.8c0.2-3.8,1.7-6.8,4.9-8.9C27.4,138.6,29.3,138,31,137.9z M31.4,143.2
			c-2.7-0.2-5.4,2.8-5.4,5.3c0,2.7,2.7,5.5,5.4,5.4c2.8,0,5.4-2.8,5.4-5.4C36.8,145.9,34,143,31.4,143.2z"/>
		<path class="st0" d="M148.6,159.3c-3.7-0.3-6.7-1.7-8.8-4.8c-1.1-1.6-1.7-3.5-1.8-5.4c-0.1-1.4,0.2-2.7,0.7-4
			c0.2-0.4,0.3-0.7,0.5-1.1c0.2-0.6,0.1-1.1-0.4-1.6c-2.9-2.9-5.8-5.8-8.7-8.7c-1.5-1.5-3-3-4.6-4.6c-0.3-0.3-0.6-0.7-0.9-1.1
			c-0.6-0.9-0.5-2,0.2-2.8c0.2-0.2,0.3-0.3,0.5-0.5c0.7-0.7,2.2-0.7,2.9-0.2c0.7,0.5,1.3,1.1,1.9,1.8c2.2,2.2,4.4,4.4,6.5,6.5
			c1.7,1.7,3.4,3.4,5.1,5.1c0.2,0.2,0.3,0.4,0.5,0.5c0.5,0.6,1.1,0.8,1.9,0.5c0.3-0.1,0.5-0.2,0.7-0.3c2.3-1,4.6-1.1,7-0.2
			c1,0.3,1.9,0.7,2.7,1.3c1,0.7,1.9,1.6,2.7,2.6c1.1,1.5,1.7,3.2,1.9,4.9c0.2,1.4,0,2.7-0.4,4.1c-0.3,1.1-0.8,2.1-1.5,3.1
			c-1.2,1.7-2.7,3-4.7,3.8C151.4,158.9,150.1,159.3,148.6,159.3z M154,148.6c0.2-2.7-2.8-5.6-5.4-5.3c-2.5-0.2-5.6,2.7-5.3,5.5
			c-0.2,2.4,2.5,5.4,5.4,5.3C151.3,154,154.2,151.3,154,148.6z"/>
		<path class="st0" d="M87.4,35.6c0-1.1,0-2.1,0-3.2c0-1-0.4-1.6-1.3-2c-2.4-0.9-4.1-2.5-5.3-4.7c-1.3-2.4-1.8-4.9-1-7.6
			c0.8-2.7,2.3-4.9,4.7-6.5c0.6-0.4,1.2-0.7,1.9-0.9c0.3-0.1,0.5-0.2,0.6-0.5c0.1-0.2,0.3-0.2,0.5-0.2c0.6,0,1.1,0,1.7,0
			c1.1,0,2.3,0,3.4,0c0.3,0,0.5,0,0.6,0.3c0.1,0.2,0.4,0.3,0.6,0.3c1.9,0.7,3.5,1.9,4.7,3.5c1.4,1.9,2.1,4,2.3,6.3
			c0,0.7-0.1,1.5-0.2,2.2c-0.7,2.8-2.1,5.1-4.5,6.7c-0.6,0.4-1.3,0.8-2,1c-0.9,0.3-1.3,1.2-1.3,2c0.2,2,0,4,0.1,6c0,0.3,0,0.7-0.1,1
			c-0.2,0.9-0.7,1.6-1.5,2.1c-0.7,0.5-1.5,0.5-2.2,0c-1-0.6-1.6-1.5-1.6-2.7C87.3,37.9,87.4,36.7,87.4,35.6
			C87.4,35.6,87.4,35.6,87.4,35.6z M95.4,20.7c0.2-2.7-2.7-5.4-5.3-5.4c-2.7,0-5.5,2.7-5.4,5.4c0,2.7,2.7,5.4,5.4,5.4
			C92.8,26.1,95.6,23.1,95.4,20.7z"/>
		<path class="st0" d="M34.3,92.6c-0.6,0-1.1,0-1.7,0c-1.1-0.1-1.8,0.5-2.2,1.5c-0.6,1.7-1.8,3.1-3.2,4.2c-1.9,1.4-4,2.2-6.4,2.3
			c-1.2,0-2.3-0.2-3.5-0.6c-0.8-0.3-1.7-0.6-2.4-1.1c-1.9-1.2-3.3-2.9-4.1-5c-0.1-0.3-0.2-0.7-0.6-0.9c-0.1,0-0.1-0.1-0.1-0.2
			c0-0.1,0-0.2,0-0.3c-0.1-1.7-0.1-3.3,0-5c0-0.3,0.1-0.5,0.4-0.7c0.2-0.1,0.3-0.4,0.4-0.6c0.3-0.9,0.8-1.7,1.4-2.5
			c1.2-1.6,2.7-2.8,4.6-3.5c0.8-0.3,1.6-0.6,2.5-0.7c1.4-0.2,2.8-0.1,4.2,0.4c1.4,0.5,2.8,1.1,4,2.1c1.3,1.1,2.3,2.4,2.9,4
			c0.1,0.3,0.2,0.6,0.4,0.8c0.4,0.4,0.9,0.7,1.5,0.7c1.3,0,2.7,0,4,0c1.1,0,2,0.5,2.5,1.4c0.7,1,0.6,1.9-0.2,2.8
			c-0.6,0.7-1.4,1.1-2.3,1.1C35.7,92.6,35,92.6,34.3,92.6C34.3,92.6,34.3,92.6,34.3,92.6z M26,90c0.3-2.7-2.8-5.6-5.3-5.4
			c-2.7-0.3-5.6,2.8-5.4,5.3c-0.3,2.7,2.8,5.7,5.2,5.4C23.3,95.6,26.3,92.5,26,90z"/>
	</g>
</g>
</svg>
