<svg width="20" height="20" viewBox="0 0 20 20" fill="none" xmlns="http://www.w3.org/2000/svg">
<rect width="20" height="20" rx="4" fill="#2CB56E"/>
<path d="M4 8.76906C4.12961 7.14892 4.58325 5.52878 5.81456 4.20027C6.04138 3.97345 6.17099 3.90864 6.43021 4.16787C6.68943 4.4919 7.14307 4.71871 7.24028 5.07515C7.33749 5.43158 6.85145 5.6584 6.62463 5.98242C4.77767 8.89867 6.07378 12.7222 9.37886 13.9211C11.323 14.634 13.0728 14.1803 14.6605 12.9166C14.7901 12.8194 14.8549 12.625 15.0494 12.8194C15.3734 13.1434 15.6974 13.4675 16.0214 13.7915C16.2159 14.0183 15.989 14.1155 15.8594 14.2127C15.0169 15.0552 13.9801 15.5412 12.8784 15.8005C10.7722 16.2541 8.76321 15.9625 6.98106 14.634C5.32851 13.4027 4.32403 11.8149 4.09721 9.70874C4.09721 9.54673 4 9.41712 4 9.25511C4 9.1579 4 8.99588 4 8.76906Z" fill="white"/>
<path d="M10.1888 12.0417C10.124 11.8149 10.2861 11.5881 10.3509 11.3937C10.4157 11.1669 10.5129 10.8428 10.8369 10.8752C11.1933 10.9076 11.1933 11.2641 11.2905 11.5233C11.3553 11.7825 11.2581 12.0417 11.1609 12.2686C11.0637 12.5278 10.9665 12.9166 10.6101 12.8518C10.1888 12.7546 10.1564 12.3982 10.1888 12.0417Z" fill="white"/>
<path d="M7.98566 9.90316C7.79125 9.93557 7.56443 9.87076 7.40241 9.77355C7.208 9.64394 7.14319 9.48193 7.3052 9.28751C7.59683 8.89868 8.50411 8.73666 8.92534 8.99588C9.28177 9.2227 9.28177 9.48193 8.89294 9.67634C8.63372 9.77355 8.34209 9.90316 7.98566 9.90316Z" fill="white"/>
<path d="M8.82802 8.12099C8.30958 8.12099 7.95315 7.86177 7.66152 7.47294C7.4347 7.14891 7.53191 6.95449 7.92075 6.92209C8.37438 6.88969 8.76322 7.0517 9.08725 7.34332C9.28166 7.50534 9.37887 7.73216 9.31407 7.95898C9.24926 8.2506 8.99004 8.05619 8.82802 8.12099Z" fill="white"/>
<path d="M13.1378 12.0418C13.1378 12.1714 13.1702 12.3982 12.9434 12.4954C12.7166 12.5926 12.5869 12.3982 12.4573 12.2686C12.1009 11.977 11.9389 11.5881 11.9389 11.1345C11.9389 10.9725 11.8417 10.778 12.1333 10.7132C12.3277 10.6484 12.4573 10.7456 12.5869 10.8429C12.911 11.0697 13.1378 11.5881 13.1378 12.0418Z" fill="white"/>
<path d="M9.83266 10.616C9.83266 11.0372 9.02259 11.8149 8.63375 11.8149C8.37453 11.8149 8.27732 11.6529 8.30972 11.4261C8.34213 11.0048 9.08739 10.2596 9.47623 10.2596C9.70304 10.2596 9.80025 10.3568 9.83266 10.616Z" fill="white"/>
</svg>
