<?xml version="1.0" encoding="utf-8"?>
<!-- Generator: Adobe Illustrator 26.0.3, SVG Export Plug-In . SVG Version: 6.00 Build 0)  -->
<svg version="1.1" id="Isolation_Mode" xmlns="http://www.w3.org/2000/svg" xmlns:xlink="http://www.w3.org/1999/xlink" x="0px"
	 y="0px" viewBox="0 0 478.5 713.9" style="enable-background:new 0 0 478.5 713.9;" xml:space="preserve">
<style type="text/css">
	.st0{fill:#FFB815;}
</style>
<g>
	<path class="st0" d="M239.3,235.3C107.1,235.3,0,342.5,0,474.6s107.1,239.3,239.3,239.3c132.1,0,239.3-107.1,239.3-239.3
		S371.4,235.3,239.3,235.3z M260.4,470.8V547c0,11.7-9.5,21.2-21.2,21.2h0c-11.7,0-21.2-9.5-21.2-21.2v-76.2
		c-15.5-7.8-26.2-23.8-26.2-42.4c0-26.1,21.2-47.3,47.3-47.3c26.1,0,47.3,21.2,47.3,47.3C286.6,447,275.9,463,260.4,470.8z"/>
	<path class="st0" d="M140.4,237.4V161c0-54.5,44.3-98.9,98.9-98.9s98.9,44.3,98.9,98.9v76.3c22.5,9.4,43.4,22,62.2,37.1V161
		c0-88.8-72.2-161-161-161s-161,72.2-161,161v113.4C97,259.3,117.9,246.8,140.4,237.4z"/>
</g>
</svg>
