<svg width="20" height="20" viewBox="0 0 20 20" fill="none" xmlns="http://www.w3.org/2000/svg">
<rect width="20" height="20" rx="4" fill="url(#paint0_linear_104_344)"/>
<g clip-path="url(#clip0_104_344)">
<path d="M10.1177 4C9.45856 4 8.91107 4.05347 8.37522 4.18607C6.63024 4.61781 5.3724 5.64786 4.59806 7.25959C4.47592 7.51249 4.52899 7.6245 4.79837 7.72494C5.30733 7.91461 5.81628 8.09887 6.32196 8.29614C6.44702 8.34528 6.49101 8.32324 6.54008 8.20184C6.88653 7.35425 7.46056 6.71151 8.3076 6.33359C9.01432 6.01819 9.75848 5.94051 10.5252 6.02686C11.458 6.13235 12.252 6.50304 12.8667 7.2231C13.0572 7.44885 13.2202 7.69625 13.352 7.96014C13.3808 8.0165 13.4004 8.08225 13.4975 8.03818C14.0355 7.7943 14.5779 7.55982 15.1145 7.31306C15.277 7.23863 15.3159 7.0999 15.2348 6.95357C14.8451 6.24941 14.3423 5.63919 13.696 5.15216C12.6057 4.33131 11.3555 4.0159 10.1177 4ZM10.3656 14.919C10.3656 15.1719 10.3656 15.4248 10.3656 15.6777C10.3656 15.9227 10.4652 16.021 10.7113 15.9971C10.9637 15.9737 11.2148 15.9375 11.4635 15.8887C13.0125 15.5773 14.2471 14.7958 15.0887 13.4493C15.6005 12.6306 15.8746 11.732 15.9677 10.7732C16.0493 9.95863 15.9859 9.13617 15.7805 8.34347C15.7281 8.14115 15.5987 8.06925 15.4169 8.14873C14.8735 8.38502 14.3358 8.62853 13.7945 8.86482C13.7181 8.89805 13.6996 8.93418 13.7167 9.01475C13.8626 9.69889 13.8583 10.4063 13.704 11.0886C13.5047 11.9961 13.0888 12.7769 12.3225 13.3427C11.779 13.7444 11.1566 13.9367 10.491 14.0031C10.3903 14.0129 10.3583 14.0425 10.3609 14.1426C10.3678 14.4013 10.3634 14.66 10.3656 14.919ZM4.38976 8.51545C4.20108 8.52592 4.13746 8.63901 4.11129 8.78786C3.93199 9.76675 3.96971 10.7727 4.2218 11.7357C4.59152 13.1469 5.33059 14.3117 6.58152 15.1148C7.32859 15.5943 8.15237 15.8696 9.03613 15.9653C9.4113 16.0058 9.48328 15.9404 9.48328 15.5621C9.48328 15.1047 9.47565 14.647 9.48801 14.1892C9.49237 14.0295 9.43529 13.9912 9.28843 13.9724C8.37776 13.8474 7.60125 13.4666 7.03958 12.7263C6.27615 11.7205 6.09075 10.568 6.23398 9.34534C6.24743 9.23081 6.22962 9.18998 6.1231 9.15168C5.58434 8.95731 5.04921 8.75426 4.51263 8.55627C4.46792 8.53785 4.42175 8.52556 4.38976 8.51545ZM10.0886 7.29174C10.2176 7.23032 10.351 7.17649 10.4746 7.10568C10.6117 7.02728 10.5913 6.8889 10.5659 6.7657C10.5426 6.65406 10.4343 6.68333 10.3529 6.68188C10.2318 6.67971 10.1107 6.68188 9.98933 6.68188C9.57199 6.68405 9.63379 6.64575 9.63052 7.03631C9.62833 7.31089 9.63051 7.30439 9.34514 7.36473C8.92416 7.45433 8.53154 7.61113 8.24326 7.9428C7.59398 8.69284 7.93534 9.79479 8.90816 10.1062C9.31315 10.2359 9.73558 10.271 10.1544 10.3281C10.4539 10.3689 10.7502 10.4234 11.0138 10.5846C11.1926 10.693 11.2882 10.8472 11.2795 11.0626C11.2679 11.3516 11.0934 11.5731 10.768 11.693C10.4771 11.7998 10.165 11.8369 9.857 11.8014C9.36949 11.7479 8.92453 11.5933 8.63515 11.1601C8.58062 11.0785 8.52609 11.0676 8.43702 11.107C8.25016 11.1906 8.06064 11.2683 7.86845 11.34C7.7343 11.3906 7.70922 11.4575 7.78229 11.5846C8.07894 12.0988 8.52681 12.4084 9.09102 12.5659C9.41494 12.6559 9.75085 12.6526 10.1206 12.6794C10.0148 12.726 9.94606 12.7592 9.87481 12.7877C9.68141 12.8643 9.59816 12.9958 9.62651 13.2083C9.63997 13.3058 9.66687 13.3506 9.76648 13.3496C9.9846 13.3474 10.2027 13.3474 10.4208 13.3496C10.5274 13.3496 10.5761 13.3026 10.5739 13.1964C10.5713 13.058 10.5793 12.9189 10.5713 12.7809C10.5644 12.6602 10.6059 12.6161 10.732 12.6002C11.1363 12.5549 11.5169 12.3876 11.8226 12.1208C12.5134 11.5243 12.5097 10.1445 11.4431 9.73011C11.144 9.61824 10.8337 9.53831 10.5175 9.49166C10.1177 9.42735 9.71122 9.41615 9.32405 9.28789C9.09975 9.21383 8.91544 9.10038 8.90526 8.83122C8.89544 8.57325 9.0165 8.38104 9.27752 8.27049C9.85918 8.02517 10.7746 8.09562 11.2199 8.59565C11.2675 8.64912 11.3108 8.67947 11.3908 8.63937C11.5791 8.54507 11.7728 8.46089 11.9652 8.37418C12.0651 8.32902 12.0771 8.2741 12.0157 8.17836C11.8099 7.85428 11.5351 7.61257 11.173 7.47239C10.8258 7.3351 10.4645 7.29174 10.0886 7.29174Z" fill="white"/>
</g>
<defs>
<linearGradient id="paint0_linear_104_344" x1="10" y1="0" x2="10" y2="20" gradientUnits="userSpaceOnUse">
<stop stop-color="#174EA6"/>
<stop offset="1" stop-color="#013C5D"/>
</linearGradient>
<clipPath id="clip0_104_344">
<rect width="12" height="12" fill="white" transform="translate(4 4)"/>
</clipPath>
</defs>
</svg>
