<?xml version="1.0" encoding="utf-8"?>
<!-- Generator: Adobe Illustrator 26.0.3, SVG Export Plug-In . SVG Version: 6.00 Build 0)  -->
<svg version="1.1" id="Layer_1" xmlns="http://www.w3.org/2000/svg" xmlns:xlink="http://www.w3.org/1999/xlink" x="0px" y="0px"
	 viewBox="0 0 217 30" style="enable-background:new 0 0 217 30;" xml:space="preserve">
<style type="text/css">
	.st0{fill:#FFFFFF;}
</style>
<g>
	<g>
		<path class="st0" d="M178.3,4.1h-2.5v13.3h2.5V4.1z"/>
		<path class="st0" d="M162.2,4.1h-1.3v13.3h1.3V4.1z"/>
		<path class="st0" d="M165.9,4.1h-1.3v13.3h1.3V4.1z"/>
		<path class="st0" d="M173.8,4.1h-1v13.3h1V4.1z"/>
		<path class="st0" d="M171.4,4.1h-1.1v13.3h1.1V4.1z"/>
		<path class="st0" d="M183.2,4.1h-2.5v13.3h2.5V4.1z"/>
		<path class="st0" d="M168.9,4.1h-1.1v13.3h1.1V4.1z"/>
		<path class="st0" d="M196.7,4.1h-5v13.3h5V4.1z"/>
		<path class="st0" d="M190.6,4.1h-2.5v13.3h2.5V4.1z"/>
		<path class="st0" d="M200.8,4.1h-2.5v13.3h2.5V4.1z"/>
		<path class="st0" d="M204.7,4.1h-1.1v13.3h1.1V4.1z"/>
		<path class="st0" d="M210.3,4.1h-2.5v13.3h2.5V4.1z"/>
		<path class="st0" d="M213.3,4.1h-1.1v13.3h1.1V4.1z"/>
		<path class="st0" d="M186.1,4.1h-1.1v13.3h1.1V4.1z"/>
		<path class="st0" d="M215.7,4.1h-1.1v13.3h1.1V4.1z"/>
		<path class="st0" d="M166.4,24.5L166.4,24.5c0.4-0.1,0.8-0.4,1-0.7c0.3-0.3,0.4-0.7,0.4-1.1c0-0.4-0.1-0.8-0.4-1.1
			c-0.2-0.3-0.6-0.6-1-0.7c-0.9-0.3-1.8-0.4-2.7-0.4c-1,0-1.9,0.1-2.9,0.2v8.5c0.8,0.1,1.6,0.2,2.5,0.2c1.9,0,3-0.3,3.7-0.7
			c0.3-0.2,0.6-0.5,0.8-0.8c0.2-0.3,0.3-0.7,0.3-1.1c0-0.5-0.2-1-0.5-1.4C167.4,24.9,166.9,24.6,166.4,24.5z M163.3,22.3
			c0.3,0,0.6-0.1,0.9-0.1c0.9,0,1.3,0.3,1.3,0.8c0,0.5-0.5,0.8-1.7,0.8h-0.5L163.3,22.3z M164.1,27.6c-0.3,0-0.5,0-0.8,0v-2h0.6
			c1,0,1.7,0.2,1.7,1C165.6,27.2,164.9,27.6,164.1,27.6L164.1,27.6z"/>
		<path class="st0" d="M174.9,20.4c-2.8,0-4.7,1.9-4.7,4.6c0,2.5,1.8,4.4,4.6,4.4c3,0,4.8-1.9,4.8-4.5
			C179.6,22.3,177.8,20.4,174.9,20.4z M174.9,27.5c-1.3,0-2.1-1.1-2.1-2.6s0.8-2.6,2.1-2.6c1.3,0,2.1,1.1,2.1,2.6
			S176.2,27.5,174.9,27.5z"/>
		<path class="st0" d="M184.3,20.6h-2.4v8.6h6.1v-2h-3.7V20.6z"/>
		<path class="st0" d="M192.6,25.8h3.5v-2h-3.5v-1.3h3.7v-1.9h-6.1v8.6h6.3v-1.9h-3.9V25.8z"/>
		<path class="st0" d="M198.4,22.6h2.4v6.7h2.4v-6.7h2.5v-2h-7.3V22.6z"/>
		<path class="st0" d="M211.8,20.4c-2.8,0-4.7,1.9-4.7,4.6c0,2.5,1.8,4.4,4.6,4.4c3,0,4.8-1.9,4.8-4.5
			C216.4,22.3,214.7,20.4,211.8,20.4z M211.8,27.5c-1.3,0-2.1-1.1-2.1-2.6s0.8-2.6,2.1-2.6c1.3,0,2.1,1.1,2.1,2.6
			C213.9,26.4,213.1,27.5,211.8,27.5L211.8,27.5z"/>
		<path class="st0" d="M45.9,20.7c1.7,0,3.2-0.7,4.4-1.8c1.2-1.2,1.8-2.8,1.8-4.4v-3.7c0-1.7-0.7-3.2-1.8-4.4
			c-1.2-1.2-2.7-1.8-4.4-1.8h-5.1c-1.7,0-3.2,0.7-4.4,1.8s-1.8,2.8-1.8,4.4V28c0,0.1,0.1,0.3,0.2,0.3c0.1,0.1,0.2,0.1,0.4,0.1
			c0.1,0,0.3,0,0.4-0.1c0.1-0.1,0.2-0.2,0.2-0.3V10.8c0-1.4,0.5-2.7,1.5-3.7c1-1,2.3-1.5,3.7-1.5h5.1c1.4,0,2.7,0.6,3.7,1.5
			c1,1,1.5,2.3,1.5,3.7v3.7c0,1.4-0.5,2.7-1.5,3.7c-1,1-2.3,1.5-3.7,1.5h-7.2c-0.1,0-0.1,0-0.2,0c-0.1,0-0.1,0.1-0.2,0.1
			c-0.1,0-0.1,0.1-0.1,0.2c0,0.1,0,0.1,0,0.2c0,0.1,0,0.1,0,0.2c0,0.1,0.1,0.1,0.1,0.2c0.1,0,0.1,0.1,0.2,0.1c0.1,0,0.1,0,0.2,0
			L45.9,20.7z"/>
		<path class="st0" d="M57,20.3c0,0.1,0.1,0.3,0.2,0.3c0.1,0.1,0.2,0.1,0.4,0.1c0.1,0,0.3,0,0.4-0.1c0.1-0.1,0.2-0.2,0.2-0.3V7.4
			c0-0.8-0.3-1.5-0.8-2c-0.5-0.5-1.3-0.8-2-0.8H53c-0.1,0-0.3,0.1-0.3,0.2c-0.1,0.1-0.1,0.2-0.1,0.4c0,0.1,0,0.3,0.1,0.4
			c0.1,0.1,0.2,0.2,0.3,0.2h2.2c0.2,0,0.5,0.1,0.7,0.1c0.2,0.1,0.4,0.2,0.6,0.4c0.2,0.2,0.3,0.4,0.4,0.6C57,6.9,57,7.2,57,7.4V20.3z
			"/>
		<path class="st0" d="M56.1,1.2l1-1C57.2,0.1,57.4,0,57.5,0c0.2,0,0.3,0.1,0.4,0.2l1,1c0.1,0.1,0.2,0.3,0.2,0.4
			c0,0.2-0.1,0.3-0.2,0.4l-1,1c-0.1,0.1-0.1,0.1-0.2,0.1c-0.1,0-0.2,0-0.2,0c-0.1,0-0.2,0-0.2,0s-0.1-0.1-0.2-0.1l-1-1
			C56,2,55.9,1.8,55.9,1.6C55.9,1.5,56,1.3,56.1,1.2z"/>
		<path class="st0" d="M84.3,4.5h-1.8c-0.6,0-1.2,0.1-1.8,0.4c-0.6,0.2-1.1,0.6-1.5,1L74.1,11c-0.2,0.2-0.5,0.3-0.8,0.3
			c-0.3,0-0.6-0.1-0.8-0.3l-5.1-5.1c-0.4-0.4-1-0.8-1.5-1c-0.6-0.2-1.2-0.4-1.8-0.4h-2.2c-0.1,0-0.1,0-0.2,0c-0.1,0-0.1,0.1-0.2,0.1
			c-0.1,0-0.1,0.1-0.1,0.2c0,0.1,0,0.1,0,0.2s0,0.1,0,0.2c0,0.1,0.1,0.1,0.1,0.2c0.1,0,0.1,0.1,0.2,0.1c0.1,0,0.1,0,0.2,0H64
			c0.5,0,1,0.1,1.4,0.3c0.4,0.2,0.9,0.5,1.2,0.8l5.1,5.1c0.4,0.4,1,0.7,1.6,0.7c0.6,0,1.2-0.2,1.6-0.7l5.1-5.1
			c0.3-0.3,0.7-0.6,1.2-0.8c0.4-0.2,0.9-0.3,1.4-0.3h1.8c0.1,0,0.3-0.1,0.3-0.2c0.1-0.1,0.1-0.2,0.1-0.4s0-0.3-0.1-0.4
			C84.5,4.6,84.4,4.6,84.3,4.5z"/>
		<path class="st0" d="M84.3,19.6h-1.8c-0.5,0-1-0.1-1.4-0.3c-0.4-0.2-0.9-0.5-1.2-0.8l-5.1-5.1c-0.4-0.4-1-0.7-1.6-0.7
			s-1.2,0.2-1.6,0.7l-5.1,5.1c-0.3,0.3-0.7,0.6-1.2,0.8c-0.4,0.2-0.9,0.3-1.4,0.3h-2.2c-0.1,0-0.1,0-0.2,0c-0.1,0-0.1,0.1-0.2,0.1
			c-0.1,0-0.1,0.1-0.1,0.2c0,0.1,0,0.1,0,0.2c0,0.1,0,0.1,0,0.2c0,0.1,0.1,0.1,0.1,0.2c0.1,0,0.1,0.1,0.2,0.1c0.1,0,0.1,0,0.2,0H64
			c0.6,0,1.2-0.1,1.8-0.4c0.6-0.2,1.1-0.6,1.5-1l5.1-5.1c0.2-0.2,0.5-0.3,0.8-0.3c0.3,0,0.6,0.1,0.8,0.3l5.1,5.1
			c0.4,0.4,1,0.8,1.5,1c0.6,0.2,1.2,0.4,1.8,0.4h1.8c0.1,0,0.3-0.1,0.3-0.2c0.1-0.1,0.1-0.2,0.1-0.4c0-0.1,0-0.3-0.1-0.4
			C84.5,19.7,84.4,19.7,84.3,19.6L84.3,19.6z"/>
		<path class="st0" d="M19.3,22.2l-4.2-4.2c-0.1-0.1-0.3-0.2-0.6-0.2c-0.2,0-0.4,0.1-0.6,0.2l-4.2,4.2c-0.4,0.4-0.8,0.7-1.3,0.9
			s-1,0.3-1.6,0.3H6.1l5.3,5.3c0.8,0.8,1.9,1.2,3,1.2c1.1,0,2.2-0.4,3-1.2l5.3-5.3h-0.5C21.1,23.4,20,23,19.3,22.2z"/>
		<path class="st0" d="M9.8,9.8L14,14c0.1,0.1,0.3,0.2,0.6,0.2c0.2,0,0.4-0.1,0.6-0.2l4.2-4.2c0.4-0.4,0.8-0.7,1.3-0.9
			c0.5-0.2,1-0.3,1.6-0.3h0.5l-5.3-5.4c-0.8-0.8-1.9-1.2-3-1.2c-1.1,0-2.2,0.4-3,1.2L6.1,8.6h0.8c0.5,0,1.1,0.1,1.6,0.3
			C9,9.1,9.4,9.4,9.8,9.8z"/>
		<path class="st0" d="M23.8,9.8c-0.1,0-0.1,0-0.2,0h-1.5c-0.8,0-1.5,0.3-2,0.8L16,14.9c-0.2,0.2-0.4,0.3-0.7,0.4
			c-0.2,0.1-0.5,0.2-0.8,0.2c-0.3,0-0.5-0.1-0.8-0.2c-0.2-0.1-0.5-0.2-0.7-0.4l-4.2-4.2c-0.5-0.5-1.3-0.8-2-0.8H5.1
			c-0.1,0-0.1,0-0.2,0L1.7,13c-0.8,0.8-1.2,1.9-1.2,3c0,1.1,0.4,2.2,1.2,3l3.2,3.2c0.1,0,0.1,0,0.2,0h1.8c0.8,0,1.5-0.3,2-0.8
			l4.2-4.2c0.4-0.4,0.9-0.6,1.4-0.6c0.5,0,1,0.2,1.4,0.6l4.2,4.2c0.5,0.5,1.3,0.8,2,0.8h1.5c0.1,0,0.2,0,0.2,0l3.2-3.2
			c0.8-0.8,1.2-1.9,1.2-3c0-1.1-0.4-2.2-1.2-3L23.8,9.8z"/>
		<path class="st0" d="M39.5,26.4c-0.3,0-0.5,0.1-0.8,0.1v-0.1h-0.1v2.1h0.2v-0.6c0.2,0.1,0.4,0.1,0.6,0.1c0.2,0,0.4,0,0.6-0.1
			c0.1-0.1,0.2-0.2,0.3-0.3c0.1-0.1,0.1-0.2,0.1-0.4c0-0.1,0-0.2,0-0.3c0-0.1-0.1-0.2-0.2-0.3C39.9,26.4,39.7,26.4,39.5,26.4z
			 M39.3,27.8c-0.2,0-0.4,0-0.6-0.1v-1c0.3-0.1,0.5-0.1,0.8-0.1c0.4,0,0.6,0.2,0.6,0.6C40.1,27.6,39.9,27.8,39.3,27.8L39.3,27.8z"/>
		<path class="st0" d="M42.3,26.5c-0.2-0.1-0.4-0.2-0.7-0.2c-0.2,0-0.5,0.1-0.7,0.2c-0.1,0.1-0.2,0.2-0.2,0.3c0,0.1-0.1,0.2-0.1,0.4
			c0,0.1,0,0.2,0.1,0.4c0,0.1,0.1,0.2,0.2,0.3c0.2,0.1,0.4,0.2,0.7,0.2c0.2,0,0.5,0,0.7-0.2c0.1-0.1,0.2-0.2,0.2-0.3
			c0-0.1,0.1-0.2,0.1-0.3c0-0.1,0-0.2-0.1-0.3C42.4,26.7,42.4,26.6,42.3,26.5z M41.6,27.8c-0.5,0-0.8-0.2-0.8-0.6s0.2-0.6,0.8-0.6
			c0.5,0,0.8,0.2,0.8,0.6C42.4,27.6,42.1,27.8,41.6,27.8z"/>
		<path class="st0" d="M44.8,27.7L44.8,27.7l-0.6-1.3h-0.2l-0.6,1.3h0L43,26.4h-0.2l0.6,1.5h0.2l0.6-1.3h0l0.6,1.3h0.2l0.6-1.5h-0.2
			L44.8,27.7z"/>
		<path class="st0" d="M47.3,26.5c-0.2-0.1-0.4-0.2-0.6-0.2c-0.2,0-0.4,0-0.6,0.2c-0.2,0.2-0.3,0.4-0.3,0.6c0,0.2,0.1,0.5,0.2,0.6
			c0.2,0.1,0.4,0.2,0.6,0.2c0.3,0,0.5,0,0.8-0.1v-0.2c-0.3,0.1-0.5,0.1-0.8,0.1c-0.6,0-0.7-0.3-0.7-0.6h1.5c0-0.1,0-0.3-0.1-0.4
			C47.5,26.7,47.4,26.6,47.3,26.5z M46,27.1c0-0.3,0.2-0.5,0.7-0.5c0.5,0,0.7,0.2,0.7,0.5H46z"/>
		<path class="st0" d="M48.2,26.5L48.2,26.5l-0.1-0.1v1.5h0.2v-1.3c0.2-0.1,0.5-0.1,0.7-0.1h0v-0.2C48.7,26.4,48.5,26.4,48.2,26.5z"
			/>
		<path class="st0" d="M50.6,26.5c-0.2-0.1-0.4-0.2-0.6-0.2c-0.2,0-0.4,0-0.6,0.2c-0.1,0.1-0.2,0.2-0.2,0.3c0,0.1-0.1,0.2-0.1,0.4
			c0,0.1,0,0.2,0,0.3c0,0.1,0.1,0.2,0.2,0.3c0.2,0.1,0.4,0.2,0.6,0.2c0.3,0,0.5,0,0.8-0.1v-0.2c-0.3,0.1-0.5,0.1-0.8,0.1
			c-0.6,0-0.7-0.3-0.7-0.6h1.6c0-0.1,0-0.3-0.1-0.4C50.8,26.7,50.7,26.6,50.6,26.5z M49.3,27.1c0-0.3,0.2-0.5,0.7-0.5
			s0.7,0.2,0.7,0.5H49.3z"/>
		<path class="st0" d="M52.8,26.5c-0.2-0.1-0.4-0.1-0.6-0.1c-0.2,0-0.4,0-0.6,0.1c-0.1,0.1-0.2,0.2-0.3,0.3
			c-0.1,0.1-0.1,0.2-0.1,0.4c0,0.1,0,0.2,0,0.3c0,0.1,0.1,0.2,0.2,0.3c0.2,0.1,0.3,0.2,0.5,0.2c0.3,0,0.5-0.1,0.8-0.1v0.1H53v-2.2
			h-0.2L52.8,26.5z M52.8,27.7c-0.3,0.1-0.5,0.1-0.8,0.1c-0.4,0-0.6-0.2-0.6-0.6s0.2-0.6,0.8-0.6c0.2,0,0.4,0,0.6,0.1L52.8,27.7z"/>
		<path class="st0" d="M55.6,26.4c-0.3,0-0.5,0.1-0.8,0.1v-0.7h-0.2v2.2h0.1v-0.1c0.2,0.1,0.4,0.1,0.7,0.1c0.2,0,0.4,0,0.6-0.1
			c0.1-0.1,0.2-0.2,0.3-0.3c0.1-0.1,0.1-0.2,0.1-0.4c0-0.1,0-0.2,0-0.3s-0.1-0.2-0.2-0.3C55.9,26.4,55.8,26.4,55.6,26.4z M55.4,27.8
			c-0.2,0-0.4,0-0.6-0.1v-1c0.3-0.1,0.5-0.1,0.8-0.1c0.4,0,0.6,0.2,0.6,0.6C56.2,27.6,55.9,27.8,55.4,27.8z"/>
		<path class="st0" d="M57.4,27.7l-0.7-1.3h-0.2l0.8,1.5l-0.1,0.1c0,0.1-0.1,0.2-0.2,0.2c-0.1,0.1-0.2,0.1-0.3,0.1h-0.2v0.2h0.2
			c0.1,0,0.3,0,0.4-0.1c0.1-0.1,0.2-0.2,0.2-0.3l0.9-1.7h-0.2L57.4,27.7z"/>
		<path class="st0" d="M61.3,26.9c0.1,0,0.2-0.1,0.2-0.2c0.1-0.1,0.1-0.2,0.1-0.3c0-0.1,0-0.2,0-0.2c0-0.1-0.1-0.1-0.2-0.2
			c-0.3-0.1-0.6-0.2-0.9-0.1h-0.9V28h0.9c0.3,0,0.7,0,1-0.1c0.1,0,0.1-0.1,0.2-0.2c0-0.1,0.1-0.2,0-0.2c0-0.1,0-0.2-0.1-0.3
			C61.5,27,61.4,26.9,61.3,26.9z M60.1,26.2h0.5c0.4,0,0.6,0,0.6,0.3c0,0.3-0.2,0.3-0.6,0.3h-0.5V26.2z M60.7,27.6h-0.6v-0.5h0.6
			c0.3,0,0.6,0,0.6,0.3S61.1,27.6,60.7,27.6z"/>
		<path class="st0" d="M63.8,26.5c-0.2-0.1-0.5-0.2-0.7-0.1c-0.2,0-0.4,0-0.7,0v0.3c0.2,0,0.4,0,0.6,0c0.4,0,0.6,0.1,0.6,0.3
			c-0.2,0-0.4,0-0.5,0c-0.2,0-0.4,0-0.6,0.1c-0.1,0-0.1,0.1-0.2,0.2c0,0.1-0.1,0.1-0.1,0.2s0,0.2,0,0.2c0,0.1,0.1,0.1,0.1,0.2
			c0.1,0.1,0.3,0.1,0.5,0.1c0.3,0,0.6-0.1,0.8-0.1v0.1H64V27c0-0.1,0-0.2,0-0.3C63.9,26.7,63.8,26.6,63.8,26.5z M63.5,27.6
			c-0.2,0.1-0.4,0.1-0.6,0.1c-0.2,0-0.3-0.1-0.3-0.2c0-0.1,0.1-0.2,0.4-0.2c0.2,0,0.4,0,0.5,0V27.6z"/>
		<path class="st0" d="M65.7,26.4c-0.3,0-0.5,0.1-0.8,0.1v-0.1h-0.3v1.5h0.4v-1.1c0.2-0.1,0.4-0.1,0.6-0.1c0.3,0,0.4,0.1,0.4,0.4
			v0.8h0.4V27c0-0.1,0-0.2,0-0.3c0-0.1-0.1-0.2-0.1-0.2C66.1,26.4,65.9,26.4,65.7,26.4z"/>
		<path class="st0" d="M67.2,27.2c0-0.3,0.2-0.5,0.6-0.5c0.2,0,0.3,0,0.5,0v-0.3c-0.2,0-0.4,0-0.5,0c-0.2,0-0.5,0-0.7,0.2
			c-0.1,0.1-0.2,0.2-0.2,0.3c-0.1,0.1-0.1,0.2-0.1,0.4c0,0.1,0,0.2,0,0.3c0,0.1,0.1,0.2,0.2,0.3c0.2,0.1,0.4,0.2,0.6,0.2
			c0.2,0,0.5,0,0.7-0.1v-0.3c-0.2,0-0.4,0.1-0.6,0.1C67.3,27.7,67.2,27.5,67.2,27.2z"/>
		<path class="st0" d="M70.3,26.5c-0.2-0.1-0.5-0.2-0.7-0.2c-0.3,0-0.5,0.1-0.7,0.2c-0.1,0.1-0.2,0.2-0.2,0.3
			c-0.1,0.1-0.1,0.2-0.1,0.4c0,0.1,0,0.2,0.1,0.4c0.1,0.1,0.1,0.2,0.2,0.3C69,28,69.3,28,69.5,28c0.3,0,0.5,0,0.7-0.2
			c0.1-0.1,0.2-0.2,0.2-0.3c0-0.1,0.1-0.2,0.1-0.4c0-0.1,0-0.2-0.1-0.4C70.4,26.7,70.4,26.6,70.3,26.5z M69.5,27.7
			c-0.4,0-0.6-0.2-0.6-0.5s0.2-0.5,0.6-0.5c0.4,0,0.6,0.1,0.6,0.5C70.1,27.5,69.9,27.7,69.5,27.7z"/>
		<path class="st0" d="M72.4,26.9c0-0.5,0.3-0.7,0.8-0.7c0.2,0,0.5,0,0.7,0v-0.4c-0.3,0-0.5,0-0.7,0c-0.3,0-0.6,0-0.9,0.2
			c-0.1,0.1-0.2,0.2-0.3,0.4c-0.1,0.2-0.1,0.3-0.1,0.5c0,0.2,0,0.3,0.1,0.5c0.1,0.1,0.1,0.3,0.3,0.4c0.2,0.2,0.5,0.2,0.7,0.2
			c0.3,0,0.7-0.1,1-0.1v-0.3c-0.3,0.1-0.6,0.1-0.9,0.1C72.6,27.6,72.4,27.4,72.4,26.9z"/>
		<path class="st0" d="M75.9,26.5c-0.2-0.1-0.4-0.2-0.7-0.2c-0.2,0-0.5,0.1-0.7,0.2c-0.1,0.1-0.2,0.2-0.2,0.3c0,0.1-0.1,0.2-0.1,0.4
			c0,0.1,0,0.2,0,0.3c0,0.1,0.1,0.2,0.2,0.3c0.2,0.1,0.4,0.2,0.6,0.2c0.3,0,0.6,0,0.9-0.1v-0.3c-0.3,0-0.5,0.1-0.8,0.1
			c-0.4,0-0.5-0.2-0.6-0.4h1.4C76.1,27,76.1,26.7,75.9,26.5z M74.7,27c0-0.2,0.2-0.4,0.5-0.4s0.5,0.1,0.5,0.4H74.7z"/>
		<path class="st0" d="M77.7,26.4c-0.3,0-0.5,0.1-0.8,0.1v-0.1h-0.3v1.5H77v-1.1c0.2-0.1,0.4-0.1,0.6-0.1c0.3,0,0.4,0.1,0.4,0.4v0.8
			h0.4V27c0-0.1,0-0.2,0-0.3c0-0.1-0.1-0.2-0.1-0.2C78.1,26.4,77.9,26.4,77.7,26.4z"/>
		<path class="st0" d="M79.5,27.5c0-0.1-0.1-0.2,0-0.3v-0.5H80v-0.3h-0.6V26h-0.4l0,0.5h-0.3v0.3H79v0.6c0,0.2,0,0.3,0.1,0.5
			c0.1,0.1,0.1,0.1,0.2,0.2c0.1,0,0.2,0.1,0.3,0c0.1,0,0.3,0,0.4-0.1v-0.3c-0.1,0-0.2,0-0.3,0c-0.1,0-0.1,0-0.2,0
			C79.5,27.6,79.5,27.6,79.5,27.5z"/>
		<path class="st0" d="M80.8,26.5L80.8,26.5l-0.3-0.1v1.5h0.4v-1.1c0.2,0,0.4-0.1,0.6-0.1h0.1v-0.4h-0.1
			C81.3,26.4,81,26.4,80.8,26.5z"/>
		<path class="st0" d="M83.4,26.5c-0.2-0.1-0.5-0.2-0.7-0.1c-0.2,0-0.4,0-0.7,0v0.3c0.2,0,0.4,0,0.6,0c0.4,0,0.6,0.1,0.6,0.3
			c-0.2,0-0.4,0-0.5,0c-0.2,0-0.4,0-0.6,0.1c-0.1,0-0.1,0.1-0.2,0.2s-0.1,0.1-0.1,0.2c0,0.1,0,0.2,0,0.2c0,0.1,0.1,0.1,0.1,0.2
			c0.1,0.1,0.3,0.1,0.5,0.1c0.3,0,0.6-0.1,0.8-0.1v0.1h0.3V27c0-0.1,0-0.2,0-0.3C83.5,26.7,83.4,26.6,83.4,26.5z M83.1,27.6
			c-0.2,0.1-0.4,0.1-0.6,0.1c-0.2,0-0.3-0.1-0.3-0.2c0-0.1,0.1-0.2,0.4-0.2c0.2,0,0.4,0,0.5,0V27.6z"/>
		<path class="st0" d="M84.5,25.8h-0.4v2.2h0.4V25.8z"/>
		<path class="st0" d="M139.5,2h-35.8c-0.4,0-0.7,0.1-1,0.2c-0.3,0.1-0.6,0.3-0.9,0.6c-0.3,0.3-0.5,0.6-0.6,0.9
			c-0.1,0.3-0.2,0.7-0.2,1.1v22.5c0,0.4,0.1,0.7,0.2,1s0.3,0.6,0.6,0.9c0.3,0.3,0.6,0.5,0.9,0.6c0.3,0.1,0.7,0.2,1,0.2h35.8
			c0.4,0,0.7-0.1,1-0.2c0.3-0.1,0.6-0.3,0.9-0.6c0.3-0.3,0.5-0.6,0.6-0.9c0.1-0.3,0.2-0.7,0.2-1V4.8c0-0.4-0.1-0.7-0.2-1.1
			c-0.1-0.3-0.3-0.6-0.6-0.9c-0.3-0.3-0.6-0.5-0.9-0.6C140.3,2.1,139.9,2,139.5,2z M140.5,27.3c0,0.3-0.1,0.5-0.3,0.7
			c-0.2,0.2-0.4,0.3-0.7,0.3h-35.8c-0.1,0-0.3,0-0.4-0.1c-0.1,0-0.2-0.1-0.3-0.2c-0.1-0.1-0.2-0.2-0.2-0.3c0-0.1-0.1-0.2-0.1-0.4
			V14.2h37.7V27.3z M102.8,8.5V4.8c0-0.3,0.1-0.5,0.3-0.7c0.2-0.2,0.4-0.3,0.7-0.3h35.8c0.3,0,0.5,0.1,0.7,0.3
			c0.2,0.2,0.3,0.4,0.3,0.7v3.7H102.8z"/>
		<path class="st0" d="M104.9,19.7h21.2c0.2,0,0.5-0.1,0.6-0.3c0.2-0.2,0.3-0.4,0.3-0.6c0-0.2-0.1-0.5-0.3-0.6
			c-0.2-0.2-0.4-0.3-0.6-0.3h-21.2c-0.2,0-0.5,0.1-0.6,0.3c-0.2,0.2-0.3,0.4-0.3,0.6c0,0.2,0.1,0.5,0.3,0.6
			C104.5,19.6,104.7,19.7,104.9,19.7z"/>
		<path class="st0" d="M104.9,24.9h6.2c0.2,0,0.5-0.1,0.6-0.3s0.3-0.4,0.3-0.6c0-0.2-0.1-0.5-0.3-0.6s-0.4-0.3-0.6-0.3h-6.2
			c-0.2,0-0.5,0.1-0.6,0.3c-0.2,0.2-0.3,0.4-0.3,0.6c0,0.2,0.1,0.5,0.3,0.6C104.5,24.9,104.7,24.9,104.9,24.9z"/>
	</g>
</g>
</svg>
