<?xml version="1.0" encoding="utf-8"?>
<!-- Generator: Adobe Illustrator 26.0.3, SVG Export Plug-In . SVG Version: 6.00 Build 0)  -->
<svg version="1.1" id="Layer_1" xmlns="http://www.w3.org/2000/svg" xmlns:xlink="http://www.w3.org/1999/xlink" x="0px" y="0px"
	 viewBox="0 0 31 34" style="enable-background:new 0 0 31 34;" xml:space="preserve">
<style type="text/css">
	.st0{fill:#FFB815;}
</style>
<path class="st0" d="M15,33c0.5,0.3,1.1,0.3,1.6,0c13.3-7.1,14.2-21,14.2-25c0-0.3-0.1-0.6-0.3-0.9c-0.2-0.3-0.4-0.5-0.7-0.6
	L16.5,0.6c-0.2-0.1-0.4-0.1-0.7-0.1c-0.2,0-0.5,0-0.7,0.1L1.9,6.5C1.6,6.6,1.4,6.8,1.2,7.1C1,7.3,0.9,7.6,0.9,8
	C0.9,11.9,1.7,25.9,15,33z M10.4,14l3.8,3.8l7.1-7.1l2.3,2.3l-9.4,9.4L8,16.4L10.4,14z"/>
</svg>
