<svg width="48" height="48" viewBox="0 0 48 48" fill="none" xmlns="http://www.w3.org/2000/svg">
<path d="M0 35.7909V35.7931C0.0287267 36.8586 0.0375874 37.9302 0.217316 38.9892C0.40777 40.1095 0.680021 41.202 1.19943 42.2188C1.90165 43.595 2.86605 44.7573 4.08339 45.7066C4.95741 46.3883 5.9122 46.9295 6.96912 47.2708C8.51029 47.768 10.1002 47.9585 11.7134 47.9678C12.7199 47.9742 13.7257 47.9994 14.7325 47.9952C22.0443 47.9644 29.3563 48.048 36.6683 47.95C37.6385 47.9369 38.593 47.8185 39.5452 47.6444C41.3704 47.3103 42.9835 46.5315 44.3636 45.3003C45.972 43.8657 47.0572 42.11 47.547 39.9911C47.8676 38.606 47.9478 37.2008 47.9615 35.7907V35.5094C47.9615 35.4003 47.92 11.5495 47.9162 11.2343C47.9055 10.3683 47.8417 9.50882 47.6793 8.65672C47.4818 7.61837 47.2029 6.60659 46.7057 5.66719C46.1806 4.67472 45.523 3.78233 44.7096 3.00252C43.4636 1.80775 42.0258 0.96283 40.3519 0.515888C38.84 0.112315 37.2976 0.0229643 35.744 0.0243634C35.7415 0.0239903 35.7356 0.00822784 35.7352 0.000579834H12.2188C12.2184 0.00860091 12.2181 0.0166221 12.2175 0.0243634C11.3358 0.0404988 10.4527 0.0338765 9.57542 0.142627C8.61438 0.262104 7.66257 0.442019 6.75293 0.777971C5.32013 1.30792 4.07528 2.13335 3.01192 3.23531C1.80717 4.4838 0.957962 5.92769 0.507381 7.60904C0.105394 9.10917 0.0179082 10.6391 0.015763 12.1799" fill="#FFFC00"/>
<path d="M24.1984 40.4979C24.0988 40.4979 24.0038 40.4943 23.9315 40.4908C23.8741 40.4958 23.8149 40.4979 23.7556 40.4979C21.6629 40.4979 20.2637 39.5086 19.0289 38.6351C18.1439 38.0099 17.3092 37.4197 16.3314 37.257C15.8511 37.1774 15.3734 37.137 14.9118 37.137C14.0802 37.137 13.4229 37.266 12.943 37.3598C12.6477 37.4174 12.3931 37.4669 12.1963 37.4669C11.9902 37.4669 11.7398 37.4212 11.6354 37.0648C11.5527 36.7837 11.4934 36.5113 11.4361 36.2491C11.2928 35.5937 11.1889 35.1936 10.9435 35.1557C8.31886 34.7507 6.76809 34.1542 6.45918 33.4317C6.42779 33.3595 6.40935 33.2824 6.40471 33.2039C6.39889 33.1001 6.43164 32.9978 6.49667 32.9167C6.5617 32.8356 6.65441 32.7814 6.75699 32.7645C8.84136 32.4212 10.6947 31.3196 12.2658 29.489C13.4829 28.0718 14.0805 26.7177 14.1447 26.5682C14.1476 26.5613 14.1507 26.5546 14.1541 26.5479C14.457 25.9335 14.5172 25.4025 14.3338 24.9702C13.9956 24.1727 12.8755 23.8173 12.1345 23.5822C11.9502 23.5239 11.7759 23.4687 11.637 23.4136C10.9801 23.1541 9.89977 22.6058 10.0437 21.8492C10.1485 21.2974 10.8783 20.9131 11.4682 20.9131C11.632 20.9131 11.7771 20.9418 11.8993 20.9992C12.5658 21.3115 13.1654 21.4697 13.6811 21.4697C14.3224 21.4697 14.6321 21.2256 14.707 21.1562C14.6876 20.8059 14.6665 20.4558 14.6437 20.1058C14.4932 17.7111 14.3054 14.731 15.0677 13.022C17.3492 7.90655 22.1877 7.50876 23.6158 7.50876C23.8516 7.50678 24.0873 7.50457 24.323 7.50214C25.7551 7.50214 30.6036 7.90039 32.8866 13.019C33.6488 14.729 33.4609 17.7117 33.3099 20.1089L33.3028 20.2236C33.2821 20.5491 33.263 20.8572 33.2469 21.1558C33.3174 21.2207 33.6008 21.4446 34.1775 21.4672C34.6691 21.4484 35.234 21.2909 35.8561 20.9996C36.0485 20.9093 36.2614 20.8905 36.406 20.8905C36.6245 20.8905 36.8468 20.9331 37.0322 21.0104L37.042 21.0142C37.5699 21.2016 37.9157 21.5761 37.9232 21.9695C37.9298 22.3362 37.6572 22.8844 36.3168 23.4137C36.1795 23.4681 36.0043 23.5237 35.8193 23.5824C35.0776 23.8178 33.9585 24.1729 33.6203 24.97C33.4366 25.4023 33.497 25.9331 33.7999 26.5474C33.8033 26.5541 33.8062 26.5609 33.8095 26.568C33.9027 26.7866 36.1603 31.9342 41.1972 32.764C41.2997 32.781 41.3924 32.8352 41.4574 32.9163C41.5224 32.9974 41.5552 33.0996 41.5495 33.2034C41.5446 33.2827 41.5257 33.3605 41.4938 33.4333C41.187 34.1517 39.6363 34.7474 37.0109 35.153C36.7645 35.191 36.6607 35.5893 36.5187 36.2412C36.46 36.5105 36.4002 36.7745 36.3186 37.0518C36.2422 37.3127 36.0722 37.4402 35.7993 37.4402H35.7582C35.5805 37.4402 35.3288 37.4079 35.0113 37.3458C34.4564 37.2378 33.834 37.1373 33.0425 37.1373C32.581 37.1373 32.1034 37.1777 31.6226 37.2573C30.6458 37.42 29.8112 38.0092 28.9278 38.6338C27.6906 39.5085 26.2909 40.4979 24.1984 40.4979Z" fill="white"/>
<path d="M24.3229 7.92362C25.6711 7.92362 30.3136 8.28578 32.5014 13.1907C33.2218 14.8058 33.0371 17.7315 32.889 20.0818C32.8659 20.4548 32.843 20.8163 32.8243 21.1615L32.8165 21.3099L32.9155 21.4204C32.9555 21.4648 33.33 21.8562 34.1629 21.8883L34.1763 21.8891L34.1903 21.8888C34.741 21.8678 35.3612 21.6968 36.0348 21.3812C36.134 21.3348 36.2661 21.3121 36.4058 21.3121C36.565 21.3121 36.7342 21.3421 36.8737 21.4008L36.8948 21.4092C37.248 21.533 37.4977 21.7663 37.5015 21.9775C37.5036 22.0969 37.4143 22.5269 36.1623 23.0216C36.0399 23.0699 35.8788 23.1213 35.6921 23.1801C34.8773 23.4388 33.6464 23.8293 33.2321 24.8055C32.9988 25.3554 33.0627 26.0044 33.4218 26.7341C33.5695 27.0789 35.8953 32.3176 41.1287 33.18C41.1269 33.2091 41.1196 33.2375 41.1073 33.2639C41.0186 33.4729 40.4548 34.1947 36.9464 34.736C36.3974 34.8201 36.2629 35.4355 36.107 36.1509C36.0506 36.407 35.9934 36.6655 35.9147 36.9326C35.8906 37.0132 35.8861 37.0178 35.7997 37.0178H35.7584C35.6029 37.0178 35.3667 36.9855 35.093 36.9318C34.5944 36.8347 33.9134 36.7156 33.0427 36.7156C32.5568 36.7156 32.0562 36.7579 31.554 36.8417C30.4804 37.0202 29.6073 37.6378 28.6826 38.2914C27.4408 39.1688 26.1574 40.0768 24.1991 40.0768C24.1136 40.0768 24.0301 40.0739 23.9464 40.0697L23.9244 40.0688L23.9023 40.0705C23.8543 40.0747 23.8059 40.0768 23.7565 40.0768C21.7985 40.0768 20.5144 39.1691 19.2732 38.2914C18.3484 37.6378 17.4748 37.0202 16.4014 36.8417C15.8996 36.7581 15.3986 36.7156 14.9129 36.7156C14.0424 36.7156 13.3605 36.8488 12.8631 36.9461C12.5893 36.9996 12.3523 37.0455 12.1972 37.0455C12.0702 37.0455 12.0678 37.038 12.0409 36.9463C11.9622 36.679 11.9046 36.4144 11.8486 36.1586C11.6923 35.4425 11.5577 34.8237 11.009 34.7395C7.50086 34.1977 6.93695 33.4747 6.84798 33.2664C6.83588 33.2393 6.82859 33.2103 6.82643 33.1807C12.0597 32.3191 14.385 27.0802 14.5332 26.7341C14.893 26.0049 14.9567 25.3561 14.7227 24.8055C14.3084 23.8298 13.0777 23.4388 12.2634 23.1806C12.0762 23.1214 11.9151 23.0699 11.7926 23.0216C10.7353 22.6038 10.4101 22.183 10.4584 21.928C10.5145 21.6339 11.0243 21.3349 11.4692 21.3349C11.5691 21.3349 11.6568 21.351 11.7216 21.3813C12.4442 21.72 13.1038 21.8917 13.6823 21.8917C14.5918 21.8917 14.9966 21.4685 15.04 21.4202L15.1386 21.31L15.1307 21.1623C15.1123 20.8173 15.0897 20.4559 15.0658 20.0837C14.9181 17.7329 14.7335 14.8091 15.4536 13.1938C17.6333 8.30695 22.2531 7.93024 23.6169 7.93024C23.6505 7.93024 24.2434 7.92418 24.2434 7.92418C24.2677 7.92399 24.2946 7.92362 24.3229 7.92362ZM24.3229 7.08066H24.3213C24.2902 7.08066 24.261 7.08066 24.2332 7.08103L23.6146 7.08719C22.8157 7.08719 21.2171 7.20004 19.5 7.95794C18.5183 8.39099 17.6352 8.97653 16.8755 9.69833C15.9696 10.5584 15.2317 11.6187 14.6825 12.8504C13.8783 14.6539 14.0692 17.6915 14.2225 20.1327L14.2231 20.1365C14.2395 20.3979 14.2568 20.6709 14.2725 20.9369C14.1545 20.9911 13.9632 21.0483 13.6813 21.0483C13.2276 21.0483 12.6882 20.9032 12.0783 20.6175C11.8988 20.5339 11.694 20.4916 11.468 20.4916C11.1049 20.4916 10.7222 20.5985 10.3901 20.7937C9.97238 21.039 9.70246 21.3857 9.62915 21.7701C9.58084 22.0243 9.58317 22.5269 10.1414 23.0365C10.4484 23.317 10.8995 23.5758 11.4817 23.8058C11.6344 23.866 11.8157 23.9235 12.0078 23.9844C12.6742 24.1962 13.6828 24.5162 13.9458 25.1352C14.0791 25.4491 14.0217 25.862 13.7758 26.3612C13.7693 26.3748 13.7629 26.3882 13.757 26.4022C13.6956 26.5457 13.1222 27.8446 11.9459 29.2144C11.2776 29.9934 10.5414 30.6444 9.75907 31.1499C8.80419 31.7671 7.77096 32.1705 6.68839 32.3489C6.48314 32.3826 6.2976 32.491 6.16745 32.6533C6.0373 32.8155 5.97174 33.0202 5.98338 33.2278C5.99065 33.3519 6.01975 33.4756 6.07021 33.5952L6.07142 33.5974C6.24332 33.9994 6.64185 34.341 7.28979 34.6423C8.08155 35.01 9.26568 35.3194 10.809 35.5614C10.887 35.7097 10.9679 36.0824 11.024 36.3376C11.0826 36.6088 11.1438 36.8877 11.231 37.1839C11.3251 37.5048 11.5692 37.8884 12.1963 37.8884C12.4339 37.8884 12.7072 37.8348 13.0237 37.7735C13.4871 37.6825 14.1209 37.5585 14.9119 37.5585C15.3504 37.5585 15.8049 37.5971 16.2624 37.6731C17.1443 37.8199 17.9045 38.3569 18.7841 38.9789C20.0716 39.889 21.5289 40.9191 23.7555 40.9191C23.8162 40.9191 23.8771 40.9172 23.9373 40.913C24.0109 40.9164 24.1021 40.9191 24.1984 40.9191C26.4256 40.9191 27.8826 39.8886 29.1686 38.9792L29.1707 38.9774C30.0505 38.3562 30.8099 37.8199 31.6915 37.6731C32.1488 37.5972 32.6032 37.5585 33.0419 37.5585C33.7976 37.5585 34.3959 37.6548 34.9301 37.759C35.2788 37.8277 35.5497 37.8607 35.7576 37.8607L35.7779 37.861H35.799C36.2576 37.861 36.5946 37.6093 36.7232 37.1688C36.8086 36.8788 36.8696 36.6065 36.9298 36.3307C36.9822 36.0916 37.066 35.7082 37.1439 35.5583C38.6883 35.3158 39.872 35.0071 40.6638 34.6395C41.3103 34.3396 41.7083 33.9984 41.8812 33.598C41.9331 33.478 41.9634 33.3536 41.9702 33.2269C41.9819 33.0192 41.9163 32.8145 41.7862 32.6523C41.656 32.49 41.4704 32.3816 41.2651 32.3479C36.4539 31.555 34.2864 26.6114 34.1967 26.4013C34.1909 26.3875 34.1845 26.3738 34.1776 26.3605C33.9317 25.8611 33.8749 25.4486 34.0083 25.1342C34.2707 24.5157 35.2787 24.1957 35.9455 23.984C36.1386 23.9232 36.3206 23.8654 36.4721 23.8055C37.1286 23.5462 37.5979 23.2649 37.9074 22.9454C38.2772 22.5646 38.3492 22.1998 38.3447 21.961C38.3334 21.3833 37.8918 20.8699 37.1893 20.6186C36.952 20.5205 36.6814 20.4687 36.4059 20.4687C36.2183 20.4687 35.9406 20.4944 35.6777 20.6172C35.1148 20.8806 34.6106 21.0246 34.1777 21.0451C33.9475 21.0334 33.7861 20.9835 33.6815 20.9359C33.6947 20.7105 33.7092 20.4791 33.7243 20.2377L33.7305 20.1343C33.8847 17.6916 34.0762 14.6516 33.2716 12.8469C32.7201 11.6108 31.9796 10.5477 31.0701 9.68583C30.3074 8.96356 29.4213 8.37812 28.436 7.94535C26.7214 7.19305 25.1229 7.08066 24.3229 7.08066Z" fill="#020202"/>
</svg>
