<?xml version="1.0" encoding="utf-8"?>
<!-- Generator: Adobe Illustrator 26.0.3, SVG Export Plug-In . SVG Version: 6.00 Build 0)  -->
<svg version="1.1" id="Layer_1" xmlns="http://www.w3.org/2000/svg" xmlns:xlink="http://www.w3.org/1999/xlink" x="0px" y="0px"
	 viewBox="0 0 24 33" style="enable-background:new 0 0 24 33;" xml:space="preserve">
<style type="text/css">
	.st0{fill:#FFB815;}
</style>
<path class="st0" d="M23.4,12.2c0-1.9-0.5-3.8-1.4-5.5c-0.9-1.7-2.3-3.1-3.9-4.1c-1.6-1-3.5-1.6-5.4-1.7c-1.9-0.1-3.9,0.3-5.6,1.1
	C5.4,2.7,3.9,4,2.7,5.5c-1.1,1.6-1.8,3.4-2.1,5.3c-0.2,1.9,0,3.9,0.8,5.6c0.7,1.8,1.9,3.4,3.4,4.6v10.2c0,0.1,0,0.3,0.1,0.4
	C5,31.8,5.1,31.9,5.2,32c0.1,0.1,0.2,0.1,0.4,0.1c0.1,0,0.3,0,0.4-0.1l6-3l6,3c0.1,0.1,0.2,0.1,0.4,0.1c0.1,0,0.3,0,0.4-0.1
	c0.1-0.1,0.2-0.2,0.3-0.3c0.1-0.1,0.1-0.3,0.1-0.4V21.1c1.3-1.1,2.4-2.4,3.1-4C23.1,15.6,23.4,13.9,23.4,12.2z M2.2,12.2
	c0-1.9,0.6-3.8,1.7-5.5s2.6-2.9,4.4-3.6s3.8-0.9,5.7-0.6c1.9,0.4,3.7,1.3,5,2.7c1.4,1.4,2.3,3.1,2.7,5c0.4,1.9,0.2,3.9-0.6,5.7
	c-0.7,1.8-2,3.3-3.6,4.4C15.9,21.4,14,22,12,22c-2.6,0-5.1-1-6.9-2.9C3.2,17.3,2.2,14.8,2.2,12.2z M17.6,30l-5.2-2.6
	c-0.1-0.1-0.2-0.1-0.4-0.1c-0.1,0-0.2,0-0.4,0.1L6.4,30v-7.9c1.7,1,3.6,1.5,5.6,1.5s3.9-0.5,5.6-1.5V30z M12,19.4
	c1.4,0,2.8-0.4,4-1.2c1.2-0.8,2.1-1.9,2.6-3.2c0.5-1.3,0.7-2.8,0.4-4.1c-0.3-1.4-1-2.7-2-3.7c-1-1-2.3-1.7-3.7-2
	C12,4.9,10.6,5,9.3,5.6C8,6.1,6.8,7,6.1,8.2c-0.8,1.2-1.2,2.6-1.2,4c0,1.9,0.8,3.7,2.1,5.1C8.3,18.6,10.1,19.4,12,19.4z M12,6.6
	c1.1,0,2.2,0.3,3.1,0.9c0.9,0.6,1.6,1.5,2.1,2.5c0.4,1,0.5,2.1,0.3,3.2c-0.2,1.1-0.7,2.1-1.5,2.9s-1.8,1.3-2.9,1.5
	c-1.1,0.2-2.2,0.1-3.2-0.3c-1-0.4-1.9-1.1-2.5-2.1c-0.6-0.9-0.9-2-0.9-3.1c0-1.5,0.6-2.9,1.6-3.9C9.1,7.2,10.5,6.6,12,6.6z"/>
</svg>
