<svg width="20" height="20" viewBox="0 0 20 20" fill="none" xmlns="http://www.w3.org/2000/svg">
<rect width="20" height="20" rx="4" fill="#1F192D"/>
<path d="M16.586 5H13.8949C13.7293 5 13.6051 5.0414 13.4809 5.0828L11.2038 5.91083C10.9968 5.99363 10.7484 6.03503 10.5 6.03503C10.2516 6.03503 10.0446 5.99363 9.79618 5.91083L7.51911 5.0828C7.3949 5.0414 7.2293 5 7.1051 5H4L4.82803 6.49045C4.99363 6.78025 5.24204 6.98726 5.53185 7.07006L7.80892 7.89809C8.63694 8.1879 9.21656 9.01592 9.21656 9.88535V14.0255L10.5 16.2197L11.1624 15.1019L11.7834 14.0255V9.88535C11.7834 8.97452 12.3217 8.1879 13.1911 7.89809L14.8885 7.27707L15.4682 7.07006L15.6338 6.98726C15.8408 6.86306 16.0064 6.69745 16.1306 6.49045L17 5H16.586ZM15.7994 6.36624C15.6752 6.57325 15.5096 6.69745 15.3025 6.78025L13.0255 7.60828C12.0732 7.98089 11.4108 8.89172 11.4108 9.88535V13.9427L10.4586 15.5987V7.48408L16.4618 5.20701L15.7994 6.36624Z" fill="white"/>
</svg>
