<?xml version="1.0" encoding="utf-8"?>
<!-- Generator: Adobe Illustrator 26.0.3, SVG Export Plug-In . SVG Version: 6.00 Build 0)  -->
<svg version="1.1" id="Layer_1" xmlns="http://www.w3.org/2000/svg" xmlns:xlink="http://www.w3.org/1999/xlink" x="0px" y="0px"
	 viewBox="0 0 35.2 35.2" style="enable-background:new 0 0 35.2 35.2;" xml:space="preserve">
<style type="text/css">
	.st0{fill:#D22529;}
	.st1{fill:none;stroke:#D22529;stroke-width:4;stroke-miterlimit:10;}
</style>
<desc>Created with sketchtool.</desc>
<g id="Page-1">
	<path class="st0" d="M25.3,12.9l-4.7,4.7l4.7,4.7c0.4,0.4,0.4,0.9,0,1.3l-1.7,1.7c-0.4,0.4-0.9,0.4-1.3,0l-4.7-4.7l-4.7,4.7
		c-0.4,0.4-0.9,0.4-1.3,0l-1.7-1.7c-0.4-0.4-0.4-0.9,0-1.3l4.7-4.7l-4.7-4.7c-0.4-0.4-0.4-0.9,0-1.3l1.7-1.7c0.4-0.4,0.9-0.4,1.3,0
		l4.7,4.7l4.7-4.7c0.4-0.4,0.9-0.4,1.3,0l1.7,1.7C25.7,11.9,25.7,12.5,25.3,12.9z"/>
</g>
<path class="st1" d="M31.6,33.2h-28c-0.9,0-1.6-0.7-1.6-1.6v-28C2,2.7,2.7,2,3.6,2h28c0.9,0,1.6,0.7,1.6,1.6v28
	C33.2,32.5,32.5,33.2,31.6,33.2z"/>
</svg>
